SplineFontDB: 3.0
FontName: SUN4
FullName: SUN4
FamilyName: SUN4
Weight: Regular
Copyright: 
UComments: "2017-6-29: Created with FontForge (http://fontforge.org)"
Version: 001.000
ItalicAngle: 0
UnderlinePosition: -100
UnderlineWidth: 50
Ascent: 800
Descent: 200
InvalidEm: 0
LayerCount: 4
Layer: 0 0 "Back" 1
Layer: 1 0 "Fore" 0
Layer: 2 0 "Back 2" 1
Layer: 3 0 "Back 3" 1
XUID: [1021 90 1308529427 3215012]
StyleMap: 0x0000
FSType: 0
OS2Version: 0
OS2_WeightWidthSlopeOnly: 0
OS2_UseTypoMetrics: 1
CreationTime: 1498745959
ModificationTime: 1534456967
PfmFamily: 17
TTFWeight: 400
TTFWidth: 5
LineGap: 90
VLineGap: 90
OS2TypoAscent: 0
OS2TypoAOffset: 1
OS2TypoDescent: 0
OS2TypoDOffset: 1
OS2TypoLinegap: 90
OS2WinAscent: 0
OS2WinAOffset: 1
OS2WinDescent: 0
OS2WinDOffset: 1
HheadAscent: 0
HheadAOffset: 1
HheadDescent: 0
HheadDOffset: 1
OS2Vendor: 'PfEd'
MarkAttachClasses: 1
DEI: 91125
LangName: 1033
Encoding: Custom
UnicodeInterp: none
NameList: Adobe Glyph List
DisplaySize: -48
AntiAlias: 1
FitToEm: 0
WidthSeparation: 5
WinInfo: 2880 20 9
BeginPrivate: 0
EndPrivate
Grid
-1000 -183 m 0
 2000 -183 l 1024
-1000 855.767089844 m 0
 2000 855.767089844 l 1024
-1000 968 m 0
 2000 968 l 1024
1353 1248 m 0
 1593 -660 l 1024
  Named: "Right"
-141 1284 m 0
 -300 -702 l 1024
  Named: "Left"
-1000 751.110443115 m 0
 2000 751.110443115 l 1024
EndSplineSet
AnchorClass2: "3"""  "2"""  "1"""  "aa""" 
BeginChars: 5222 5148

StartChar: uni000F
Encoding: -1 15 0
Width: 1000
VWidth: 0
LayerCount: 4
Back
SplineSet
875.27734375 446.388671875 m 1
 776.95703125 407.381835938 611.321289062 374.529296875 505.555664062 373.055664062 c 0
 399.764648438 374.404296875 234.129882812 407.256835938 135.833007812 446.388671875 c 1
 234.18359375 485.654296875 399.943359375 518.6328125 505.833007812 520 c 0
 611.532226562 518.4140625 777.04296875 485.436523438 875.27734375 446.388671875 c 1
98.888671875 371.666992188 m 1
 207.21875 327.659179688 390.02734375 290.69921875 506.944335938 289.166992188 c 0
 619.084960938 290.671875 794.924804688 324.893554688 899.444335938 365.555664062 c 1
 866.388671875 139.444335938 702.77734375 -33.3330078125 500 -33.3330078125 c 0
 297.22265625 -33.3330078125 129.72265625 142.5 98.888671875 371.666992188 c 1
961.944335938 500 m 0
 981.79296875 491.748046875 997.970703125 467.606445312 998.055664062 446.111328125 c 0
 998.055664062 446.099609375 998.055664062 446.081054688 998.055664062 446.069335938 c 0
 998.055664062 435.95703125 993.327148438 421.04296875 987.5 412.77734375 c 0
 972.22265625 117.77734375 761.666992188 -116.666992188 500 -116.666992188 c 0
 238.333007812 -116.666992188 25.27734375 120.27734375 11.111328125 416.944335938 c 0
 5.19140625 423.994140625 0.2138671875 437.185546875 0 446.388671875 c 0
 0.142578125 463.171875 12.587890625 482.584960938 27.77734375 489.72265625 c 0
 152.793945312 550.228515625 366.962890625 601.125976562 505.833007812 603.333007812 c 0
 637.662109375 601.04296875 842 554.749023438 961.944335938 500 c 0
505.555664062 519.72265625 m 2
 505.833007812 520 l 2
 399.943359375 518.6328125 234.18359375 485.654296875 135.833007812 446.388671875 c 1
 234.115234375 407.177734375 399.75 374.200195312 505.555664062 372.77734375 c 0
 611.2421875 374.279296875 776.752929688 407.1328125 875 446.111328125 c 1
 776.765625 485.159179688 611.25390625 518.13671875 505.555664062 519.72265625 c 2
500 -33.3330078125 m 0
 698.888671875 -33.3330078125 865 139.72265625 898.333007812 364.72265625 c 1
 793.813476562 324.060546875 617.973632812 289.837890625 505.833007812 288.333007812 c 0
 389.189453125 290.203125 206.87890625 327.536132812 98.888671875 371.666992188 c 1
 129.72265625 142.5 297.22265625 -33.3330078125 500 -33.3330078125 c 0
EndSplineSet
Fore
Validated: 1
EndChar

StartChar: NameMe96
Encoding: 96 57370 6
Width: 1034
VWidth: 0
Flags: W
HStem: -61.1143 29.4951<498.196 536.078> 633.687 27.7021<252.116 389.476 641.294 783.197>
VStem: 100 27.7383<368.346 513.331> 907.615 26.3984<369.296 511.096>
LayerCount: 4
Fore
SplineSet
517.015625 -61.111328125 m 0
 516.885742188 -61.1123046875 516.67578125 -61.1142578125 516.545898438 -61.1142578125 c 0
 507.0625 -61.1142578125 493.95703125 -55.63671875 487.29296875 -48.888671875 c 2
 206.182617188 223.333007812 l 2
 202.461914062 226.422851562 196.73828125 231.774414062 193.404296875 235.27734375 c 0
 187.571289062 241.111328125 179.23828125 251.111328125 167.571289062 265.833007812 c 0
 157.987304688 277.8203125 143.80078125 298.229492188 135.904296875 311.388671875 c 0
 127.204101562 326.420898438 115.879882812 352.056640625 110.626953125 368.611328125 c 0
 104.951171875 386.174804688 100.344726562 415.411132812 100.344726562 433.869140625 c 0
 100.344726562 434.2578125 100.346679688 434.888671875 100.348632812 435.27734375 c 0
 100.15625 438.712890625 100 444.29296875 100 447.733398438 c 0
 100 496.486328125 127.16015625 564.826171875 160.626953125 600.27734375 c 0
 197.107421875 633.397460938 266.703125 660.27734375 315.975585938 660.27734375 c 0
 319.100585938 660.27734375 324.171875 660.153320312 327.29296875 660 c 0
 344.696289062 659.91015625 372.19921875 655.306640625 388.682617188 649.72265625 c 0
 405.47265625 644.109375 431.108398438 631.665039062 445.904296875 621.944335938 c 0
 462.848632812 610.833007812 477.571289062 600.27734375 490.071289062 590.27734375 c 0
 502.571289062 580.27734375 507.29296875 575.833007812 515.626953125 568.055664062 c 0
 523.959960938 575.833007812 532.29296875 583.055664062 541.182617188 590.27734375 c 0
 550.071289062 597.5 568.959960938 610.833007812 585.348632812 621.944335938 c 0
 600.143554688 631.668945312 625.778320312 644.11328125 642.571289062 649.72265625 c 0
 659.375 655.747070312 687.499023438 660.849609375 705.348632812 661.111328125 c 0
 708.470703125 661.264648438 713.541015625 661.388671875 716.666992188 661.388671875 c 0
 765.939453125 661.388671875 835.53515625 634.508789062 872.015625 601.388671875 c 0
 906.23828125 565.779296875 934.013671875 496.794921875 934.013671875 447.405273438 c 0
 934.013671875 444.055664062 933.865234375 438.622070312 933.682617188 435.27734375 c 0
 933.682617188 365.27734375 897.571289062 293.888671875 826.459960938 222.77734375 c 2
 546.459960938 -48.0556640625 l 2
 539.879882812 -55.146484375 526.688476562 -60.99609375 517.015625 -61.111328125 c 0
328.682617188 633.333007812 m 0
 325.678710938 633.493164062 320.798828125 633.624023438 317.791015625 633.624023438 c 0
 274.077148438 633.624023438 212.37890625 609.724609375 180.071289062 580.27734375 c 0
 151.18359375 549.344726562 127.73828125 489.888671875 127.73828125 447.563476562 c 0
 127.73828125 444.169921875 127.912109375 438.665039062 128.126953125 435.27734375 c 0
 128.323242188 418.887695312 132.803710938 393.002929688 138.126953125 377.5 c 0
 142.862304688 362.556640625 153.067382812 339.409179688 160.904296875 325.833007812 c 0
 168.026367188 313.58203125 180.844726562 294.541992188 189.515625 283.333007812 c 0
 200.626953125 269.444335938 208.682617188 260 213.682617188 255.555664062 c 0
 216.580078125 252.463867188 221.557617188 247.735351562 224.79296875 245 c 2
 507.015625 -27.22265625 l 2
 509.288085938 -29.6494140625 513.830078125 -31.619140625 517.154296875 -31.619140625 c 0
 520.479492188 -31.619140625 525.021484375 -29.6494140625 527.29296875 -27.22265625 c 2
 808.404296875 243.333007812 l 2
 873.959960938 308.888671875 907.29296875 373.888671875 907.29296875 436.111328125 c 0
 907.470703125 439.193359375 907.615234375 444.200195312 907.615234375 447.288085938 c 0
 907.615234375 490.099609375 883.702148438 550.051757812 854.23828125 581.111328125 c 0
 822.036132812 610.1328125 760.717773438 633.686523438 717.3671875 633.686523438 c 0
 714.047851562 633.686523438 708.663085938 633.528320312 705.348632812 633.333007812 c 0
 690.461914062 633.224609375 666.942382812 629.2421875 652.848632812 624.444335938 c 0
 637.9375 619.530273438 615.1640625 608.579101562 602.015625 600 c 0
 585.904296875 589.444335938 571.73828125 579.166992188 560.071289062 570 c 0
 550.384765625 561.934570312 535.451171875 547.997070312 526.73828125 538.888671875 c 2
 517.015625 529.166992188 l 1
 507.29296875 538.888671875 l 2
 498.625976562 547.599609375 483.817382812 560.915039062 474.23828125 568.611328125 c 0
 462.571289062 578.055664062 448.404296875 588.055664062 432.29296875 598.611328125 c 0
 419.142578125 607.185546875 396.369140625 618.13671875 381.459960938 623.055664062 c 0
 367.357421875 628.2734375 343.712890625 632.877929688 328.682617188 633.333007812 c 0
EndSplineSet
Validated: 1
EndChar

StartChar: NameMe.103
Encoding: 103 57377 13
Width: 1126
VWidth: 0
Flags: W
HStem: -126 34.5933<542.121 584.182> 185.287 9.01217<592.447 790.118> 360.453 7.95711<262.357 443.186> 688.898 32.4904<268.896 421.408 701.004 858.56>
VStem: 99.9998 30.7981<377.693 547.738> 996.703 29.3104<378.807 545.117>
LayerCount: 4
Fore
SplineSet
-225.825195312 483 m 1049,168,-1
705 522 m 1,169,-1
 445 154 l 5,170,-1
 427 178 l 1,171,-1
 685 534 l 1,172,-1
 705 522 l 1,169,-1
EndSplineSet
Refer: 69 57605 N 0.270576 0 0 0.225933 550.763 199.194 2
Refer: 69 57605 N 0.247522 0 0 0.199483 224.225 372.732 2
Refer: 6 57370 N 1.11031 0 0 1.17285 -11.0312 -54.322 2
Validated: 1
EndChar

StartChar: NameMe.108
Encoding: 108 57382 18
Width: 1205
VWidth: 0
Flags: W
HStem: -2.9996 21.1874<529.099 554.853> 496.101 19.8994<361.803 455.186 626.384 722.856> 544 20<185 915>
VStem: 162.586 12.9342<434.708 572.759> 258.388 18.8577<305.497 409.645> 807.441 17.9468<306.18 408.04> 896.265 14.6588<410.015 548.804>
LayerCount: 4
Fore
SplineSet
185 564 m 1
 915 562 l 5
 919 544 l 1
 179 544 l 1
 185 564 l 1
EndSplineSet
Refer: 16 57380 N 1 0 0 1 -70 -72 2
Validated: 5
EndChar

StartChar: NameMe.110
Encoding: 110 57508 20
Width: 1034
VWidth: 0
Flags: W
HStem: -132.461 12.4609<376.736 694> 186.034 23.5223<515.826 548.878> 740.138 22.0924<301.121 420.968 640.679 764.489>
VStem: 168.4 24.2017<528.529 644.154> 873.044 23.0326<529.287 642.372>
LayerCount: 4
Fore
SplineSet
726.594726562 -134.334960938 m 1
 343.561523438 -132.4609375 l 1
 533.775390625 119.331054688 l 1
 726.594726562 -134.334960938 l 1
376.736328125 -120 m 1
 694 -120 l 1
 533.920898438 88.265625 l 1
 376.736328125 -120 l 1
EndSplineSet
Refer: 6 57370 N 0.8725 0 0 0.7975 81.15 234.773 2
Refer: 76 57724 N 0.323765 0 0 0.318892 388.194 417.915 2
Validated: 1
EndChar

StartChar: NameMe.192
Encoding: 192 57384 62
Width: 1026
VWidth: 0
Flags: W
HStem: -88.8887 67.8887<280 748>
LayerCount: 4
Fore
SplineSet
825.833007812 -88.888671875 m 1
 227.5 -88.888671875 l 1
 100 447.77734375 l 1
 331.388671875 279.166992188 l 1
 514.4453125 656.944335938 l 1
 696.9453125 279.166992188 l 1
 926.9453125 445.833007812 l 1
 825.833007812 -88.888671875 l 1
280 -21 m 1
 748 -24 l 1
 829 294 l 1
 667 174 l 1
 517 516 l 1
 361 189 l 5
 193 312 l 1
 280 -21 l 1
EndSplineSet
Validated: 1
EndChar

StartChar: NameMe.288
Encoding: 288 57400 63
Width: 805
VWidth: 0
Flags: W
HStem: 469.167 27.7773<100 388.611 416.389 705>
VStem: 388.611 27.7773<-122.777 469.167 496.944 716.667>
LayerCount: 4
Fore
SplineSet
705 496.944335938 m 1
 705 469.166992188 l 1
 416.388671875 469.166992188 l 1
 416.388671875 -122.77734375 l 1
 388.611328125 -122.77734375 l 1
 388.611328125 469.166992188 l 1
 100 469.166992188 l 1
 100 496.944335938 l 1
 388.611328125 496.944335938 l 1
 388.611328125 716.666992188 l 1
 416.388671875 716.666992188 l 1
 416.388671875 496.944335938 l 1
 705 496.944335938 l 1
EndSplineSet
Validated: 1
EndChar

StartChar: NameMe.448
Encoding: 448 57442 64
Width: 1051
VWidth: 0
Flags: W
HStem: -125 181.944<344.137 701.111> 688.889 27.7783<418.025 633.087>
VStem: 100 28.0557<272.321 437.024> 923.333 27.7783<272.299 437.908>
LayerCount: 4
Fore
SplineSet
951.111328125 355.555664062 m 0
 951.111328125 213.611328125 853.333007812 90.8330078125 711.944335938 32.22265625 c 1
 711.944335938 -125 l 1
 339.166992188 -125 l 1
 339.166992188 31.6669921875 l 1
 197.778320312 90.5556640625 100 213.333007812 100 355.555664062 c 0
 100 554.72265625 290.833007812 716.666992188 525.555664062 716.666992188 c 0
 760.278320312 716.666992188 951.111328125 554.72265625 951.111328125 355.555664062 c 0
701.111328125 56.9443359375 m 1
 700.833007812 57.5 l 1
 831.111328125 111.666992188 923.333007812 225 923.333007812 355.555664062 c 0
 923.333007812 539.444335938 745 688.888671875 525.555664062 688.888671875 c 0
 306.111328125 688.888671875 127.778320312 539.444335938 128.055664062 355.555664062 c 0
 128.055664062 223.611328125 218.611328125 112.5 350.278320312 56.9443359375 c 2
 701.111328125 56.9443359375 l 1
EndSplineSet
Validated: 33
EndChar

StartChar: NameMe.544
Encoding: 544 57457 65
Width: 1013
VWidth: 0
Flags: W
HStem: -116.667 27.7783<368.095 810.316> 313.43 26.7627<175.726 265.587> 685.466 31.0996<494.825 669.969>
VStem: 100 29.5996<156.84 270.489> 305.86 27.5654<325.426 509.447> 312.539 27.7773<300.206 419.185>
LayerCount: 4
Fore
SplineSet
810.31640625 -116.666992188 m 1xf8
 361.427734375 -116.666992188 l 2
 357.443359375 -115.103515625 351.345703125 -111.8671875 347.81640625 -109.444335938 c 1
 334.833984375 -99.7197265625 318.158203125 -80.1826171875 310.594726562 -65.8330078125 c 0
 306.963867188 -59.689453125 300.493164062 -50.107421875 296.150390625 -44.4443359375 c 0
 278.90625 -23.064453125 247.669921875 8.419921875 226.427734375 25.8330078125 c 2
 222.81640625 28.888671875 l 2
 189.831054688 52.6181640625 144.907226562 99.41015625 122.5390625 133.333007812 c 0
 110.09765625 153.029296875 100 187.920898438 100 211.216796875 c 0
 100 236.03515625 111.341796875 272.823242188 125.31640625 293.333007812 c 0
 144.825195312 319.200195312 186.951171875 340.192382812 219.349609375 340.192382812 c 0
 234.684570312 340.192382812 258.264648438 334.630859375 271.983398438 327.77734375 c 0
 277.057617188 324.59765625 284.772460938 318.748046875 289.206054688 314.72265625 c 0
 294.997070312 309.630859375 305.450195312 303.03515625 312.5390625 300 c 1
 312.97265625 302.125 313.32421875 305.609375 313.32421875 307.77734375 c 0
 313.32421875 309.946289062 312.97265625 313.430664062 312.5390625 315.555664062 c 0
 312.5390625 318.611328125 312.5390625 321.666992188 312.5390625 324.72265625 c 0xf4
 312.5390625 339.72265625 310.594726562 355.27734375 309.206054688 370 c 0
 307.358398438 384.446289062 305.860351562 407.990234375 305.860351562 422.553710938 c 0
 305.860351562 426.833984375 305.990234375 433.778320312 306.150390625 438.055664062 c 0
 314.483398438 573.888671875 385.594726562 671.388671875 500.594726562 705.27734375 c 0
 522.706054688 711.508789062 559.294921875 716.565429688 582.267578125 716.565429688 c 0
 628.331054688 716.565429688 697.768554688 697.322265625 737.260742188 673.611328125 c 0
 766.680664062 656.60546875 807.623046875 621.138671875 828.650390625 594.444335938 c 0
 900.0390625 503.055664062 926.706054688 378.055664062 907.81640625 223.055664062 c 0
 900.540039062 169.15625 883.615234375 82.6669921875 870.0390625 30 c 0
 868.059570312 19.587890625 866.192382812 2.5390625 865.872070312 -8.0556640625 c 0
 863.372070312 -49.72265625 860.0390625 -101.666992188 811.983398438 -114.444335938 c 2
 810.31640625 -116.666992188 l 1xf8
368.094726562 -88.888671875 m 1
 806.706054688 -88.888671875 l 2
 831.983398438 -81.111328125 834.483398438 -50.5556640625 838.372070312 -8.3330078125 c 0
 838.75390625 3.58984375 840.994140625 22.7548828125 843.372070312 34.4443359375 c 0
 856.720703125 86.2041015625 873.396484375 171.200195312 880.594726562 224.166992188 c 0
 898.372070312 371.666992188 873.650390625 489.72265625 806.983398438 575.27734375 c 0
 787.809570312 599.625976562 750.4765625 631.981445312 723.650390625 647.5 c 0
 687.797851562 668.45703125 624.997070312 685.465820312 583.46875 685.465820312 c 0
 562.510742188 685.465820312 529.1171875 680.901367188 508.927734375 675.27734375 c 0
 403.650390625 644.166992188 342.260742188 558.333007812 333.650390625 433.055664062 c 0
 333.526367188 429.411132812 333.42578125 423.493164062 333.42578125 419.845703125 c 0xf8
 333.42578125 405.875976562 334.895507812 383.295898438 336.706054688 369.444335938 c 0
 338.372070312 353.888671875 339.760742188 338.055664062 340.31640625 321.944335938 c 0
 340.31640625 319.166992188 340.31640625 316.666992188 340.31640625 313.888671875 c 0
 340.856445312 311.271484375 341.293945312 306.977539062 341.293945312 304.3046875 c 0
 341.293945312 296.09765625 337.49609375 283.96484375 332.81640625 277.22265625 c 0
 328.791015625 274.3046875 321.487304688 271.936523438 316.515625 271.936523438 c 0
 315.412109375 271.936523438 313.630859375 272.064453125 312.5390625 272.22265625 c 1
 299.44140625 274.65234375 281.521484375 284.608398438 272.5390625 294.444335938 c 0
 269.158203125 297.494140625 263.30859375 301.974609375 259.483398438 304.444335938 c 0
 249.177734375 309.404296875 231.53125 313.4296875 220.09375 313.4296875 c 0
 195.55859375 313.4296875 163.427734375 297.706054688 148.372070312 278.333007812 c 0
 138.009765625 262.055664062 129.599609375 233.184570312 129.599609375 213.888671875 c 0
 129.599609375 194.592773438 138.009765625 165.721679688 148.372070312 149.444335938 c 0
 168.762695312 117.387695312 209.954101562 72.8369140625 240.31640625 50 c 2
 243.927734375 46.9443359375 l 2
 266.346679688 29.0830078125 299.448242188 -3.2724609375 317.81640625 -25.27734375 c 0
 322.733398438 -31.6015625 330.075195312 -42.3037109375 334.206054688 -49.1669921875 c 0
 339.84765625 -60.43359375 352.291992188 -76.1142578125 361.983398438 -84.1669921875 c 1
 368.094726562 -88.888671875 l 1
EndSplineSet
Validated: 33
EndChar

StartChar: NameMe.640
Encoding: 640 57484 66
Width: 1033
VWidth: 0
Flags: W
HStem: -87.5 27.7773<447.13 586.204> 63.8887 27.7783<100 276.667 756.667 933.334> 238.889 27.7783<272.223 502.778 530.556 761.111>
VStem: 244.163 28.0596<151.142 238.889> 502.778 27.7773<266.667 716.667> 761.111 28.0596<151.142 238.889>
CounterMasks: 1 1c
LayerCount: 4
Fore
SplineSet
933.333984375 91.6669921875 m 1
 933.333984375 63.888671875 l 1
 743.055664062 63.888671875 l 2
 694.166992188 -27.22265625 610.833984375 -87.5 516.666992188 -87.5 c 0
 422.5 -87.5 339.166992188 -27.22265625 290.278320312 63.888671875 c 2
 100 63.888671875 l 1
 100 91.6669921875 l 1
 276.666992188 91.6669921875 l 2
 258.724609375 133.790039062 244.163085938 205.13671875 244.163085938 250.921875 c 0
 244.163085938 251.43359375 244.165039062 252.265625 244.166992188 252.77734375 c 2
 244.166992188 266.666992188 l 1
 502.778320312 266.666992188 l 1
 502.778320312 716.666992188 l 1
 530.555664062 716.666992188 l 1
 530.555664062 266.666992188 l 1
 789.166992188 266.666992188 l 1
 789.166992188 252.77734375 l 2
 789.168945312 252.265625 789.170898438 251.43359375 789.170898438 250.921875 c 0
 789.170898438 205.13671875 774.609375 133.790039062 756.666992188 91.6669921875 c 2
 933.333984375 91.6669921875 l 1
516.666992188 -59.72265625 m 0
 648.055664062 -59.72265625 755.278320312 73.0556640625 761.111328125 238.888671875 c 1
 272.22265625 238.888671875 l 1
 278.055664062 73.0556640625 385.278320312 -59.72265625 516.666992188 -59.72265625 c 0
EndSplineSet
Validated: 1
EndChar

StartChar: NameMe.736
Encoding: 736 57494 67
Width: 1038
VWidth: 0
Flags: W
LayerCount: 4
Fore
SplineSet
414 -84 m 1
 78 246 l 5
 142 312 l 1
 412 64 l 1
 892 672 l 1
 964 622 l 1
 414 -84 l 1
EndSplineSet
Validated: 1
EndChar

StartChar: NameMe.832
Encoding: 832 57602 68
Width: 1034
VWidth: 75
Flags: W
HStem: 248.333 27.7783<275.279 500 528.057 756.668> 516.111 27.5<204.281 208.283 233.612 500.279 528.057 799.723 825.053 829.172>
VStem: 500 27.7793<-61.1113 248.333 276.111 516.111>
LayerCount: 4
Fore
SplineSet
835.834960938 540.833007812 m 2
 859.3984375 508.692382812 903.576171875 462.150390625 934.4453125 436.944335938 c 2
 916.9453125 415.27734375 l 2
 886.7265625 439.909179688 843.046875 485.08203125 819.4453125 516.111328125 c 2
 528.056640625 516.111328125 l 1
 528.056640625 276.111328125 l 1
 756.66796875 276.111328125 l 1
 756.66796875 248.333007812 l 1
 527.779296875 248.333007812 l 1
 527.779296875 -61.111328125 l 1
 500 -61.111328125 l 1
 500 248.333007812 l 1
 275.279296875 248.333007812 l 1
 275.279296875 276.111328125 l 1
 500.279296875 276.111328125 l 1
 500.279296875 516.111328125 l 1
 213.890625 516.111328125 l 2
 190.576171875 485.13671875 147.39453125 439.962890625 117.5 415.27734375 c 2
 100 436.944335938 l 2
 128.716796875 460.661132812 170.15625 504.092773438 192.5 533.888671875 c 2
 192.5 543.888671875 l 1
 199.4453125 543.888671875 l 2
 219.501953125 571.338867188 246.87890625 618.876953125 260.556640625 650 c 2
 286.112304688 638.888671875 l 2
 274.045898438 611.256835938 250.525390625 568.572265625 233.612304688 543.611328125 c 2
 799.72265625 543.611328125 l 2
 782.823242188 568.499023438 759.302734375 611.05859375 747.22265625 638.611328125 c 2
 772.779296875 649.72265625 l 2
 786.456054688 618.598632812 813.833984375 571.061523438 833.890625 543.611328125 c 2
 835.834960938 543.611328125 l 1
 835.834960938 540.833007812 l 2
EndSplineSet
Validated: 1
EndChar

StartChar: NameMe.928
Encoding: 928 57605 69
Width: 1024
VWidth: 0
Flags: W
HStem: -61.5557 39.8887<154.057 884.611>
LayerCount: 4
Fore
SplineSet
959.666015625 -67.5556640625 m 5
 77.666015625 -61.5556640625 l 5
 515.666015625 744.444335938 l 5
 959.666015625 -67.5556640625 l 5
154.056640625 -21.6669921875 m 5
 884.611328125 -21.6669921875 l 5
 516 645 l 5
 154.056640625 -21.6669921875 l 5
EndSplineSet
Validated: 1
EndChar

StartChar: NameMe.1024
Encoding: 1024 57631 70
Width: 1015
VWidth: 0
Flags: W
VStem: 443.757 41.3389<529.033 726.453>
LayerCount: 4
Fore
SplineSet
458.072265625 366.096679688 m 6
 508.62890625 180.470703125 644.508789062 31.91015625 891.612304688 -92.927734375 c 5
 876.047851562 -130.646484375 l 5
 634.340820312 -8.1806640625 487.212890625 138.600585938 427 318 c 5
 370.298828125 158.732421875 210.48046875 -40.5341796875 70.2607421875 -126.791992188 c 5
 44.982421875 -88.658203125 l 5
 322.193359375 89.2587890625 455.40234375 355.658203125 443.756835938 726.912109375 c 5
 484.088867188 726.022460938 l 6
 484.635742188 726.010742188 485.095703125 691.1953125 485.095703125 677.91015625 c 4
 485.095703125 587.508789062 458.072265625 366.096679688 458.072265625 366.096679688 c 6
EndSplineSet
Validated: 33
EndChar

StartChar: NameMe.1120
Encoding: 1120 57683 71
Width: 1022
VWidth: 0
Flags: W
HStem: -125.833 27.7773<100 502.777 530.555 922.777> 494.444 27.7783<211.111 502.777 530.555 822.222>
VStem: 502.777 27.7773<-98.0557 494.444 522.223 716.667>
LayerCount: 4
Fore
SplineSet
530.5546875 -98.0556640625 m 1
 922.77734375 -98.0556640625 l 1
 922.77734375 -125.833007812 l 1
 100 -125.833007812 l 1
 100 -98.0556640625 l 1
 502.77734375 -98.0556640625 l 1
 502.77734375 494.444335938 l 1
 211.111328125 494.444335938 l 1
 211.111328125 522.22265625 l 1
 502.77734375 522.22265625 l 1
 502.77734375 716.666992188 l 1
 530.5546875 716.666992188 l 1
 530.5546875 522.22265625 l 1
 822.221679688 522.22265625 l 1
 822.221679688 494.444335938 l 1
 530.5546875 494.444335938 l 1
 530.5546875 -98.0556640625 l 1
EndSplineSet
Validated: 1
EndChar

StartChar: NameMe.1216
Encoding: 1216 57695 72
Width: 1033
VWidth: 0
Flags: W
HStem: -116.659 27.7695<422.605 610.727> 244.444 111.111<470.461 557.873> 688.881 27.7871<420.669 613.818>
VStem: 100 27.7783<204.665 395.357> 458.611 111.111<256.294 343.706> 905.556 27.7783<204.394 395.606>
LayerCount: 4
Fore
SplineSet
1425 486 m 1052,0,-1
514.166992188 716.666992188 m 0,1,-1
 514.397460938 716.666992188 514.772460938 716.66796875 515.00390625 716.66796875 c 0,4,-1
 745.005859375 716.66796875 932.41796875 530 933.333984375 300 c 0,7,-1
 933.329101562 70.00390625 746.663085938 -116.659179688 516.666992188 -116.659179688 c 0,10,-1
 286.666992188 -116.659179688 100 70.0078125 100 300.0078125 c 0,13,-1
 100 528.631835938 285.546875 715.294921875 514.166992188 716.666992188 c 0,1,-1
514.166992188 -88.888671875 m 0,16,-1
 514.3984375 -88.8896484375 514.772460938 -88.8896484375 515.00390625 -88.8896484375 c 0,19,-1
 729.672851562 -88.8896484375 904.640625 85.3330078125 905.555664062 300 c 0,22,-1
 905.551757812 514.662109375 731.329101562 688.880859375 516.666992188 688.880859375 c 0,25,-1
 302 688.880859375 127.778320312 514.658203125 127.778320312 299.9921875 c 0,28,-1
 127.778320312 86.701171875 300.879882812 -87.517578125 514.166992188 -88.888671875 c 0,16,-1
458.611328125 300 m 0,31,-1
 458.611328125 330.682617188 483.484375 355.555664062 514.166992188 355.555664062 c 0,34,-1
 544.849609375 355.555664062 569.72265625 330.682617188 569.72265625 300 c 0,37,-1
 569.72265625 269.317382812 544.849609375 244.444335938 514.166992188 244.444335938 c 0,40,-1
 483.484375 244.444335938 458.611328125 269.317382812 458.611328125 300 c 0,31,-1
EndSplineSet
Validated: 1
EndChar

StartChar: NameMe.1312
Encoding: 1312 57702 73
Width: 1036
VWidth: 0
Flags: W
HStem: 75.1631 28.1689<723.612 791.472> 469.723 27.7773<100 619.168 652.72 738.891>
VStem: 513.297 27.2598<219.208 353.194> 907.779 28.2949<219.639 354.248>
LayerCount: 4
Fore
SplineSet
738.890625 497.5 m 1
 738.334960938 497.5 l 2
 847.487304688 490.4375 936.07421875 395.932617188 936.07421875 286.551757812 c 0
 936.07421875 169.865234375 841.37109375 75.1630859375 724.685546875 75.1630859375 c 0
 607.999023438 75.1630859375 513.296875 169.865234375 513.296875 286.551757812 c 0
 513.296875 353.99609375 560.7265625 436.056640625 619.16796875 469.72265625 c 2
 100 469.72265625 l 1
 100 497.5 l 1
 738.890625 497.5 l 1
724.16796875 103.333007812 m 2
 723.612304688 103.333007812 l 2
 723.765625 103.333007812 724.014648438 103.33203125 724.16796875 103.33203125 c 0
 825.521484375 103.33203125 907.779296875 185.58984375 907.779296875 286.943359375 c 0
 907.779296875 286.943359375 907.779296875 286.944335938 907.779296875 286.944335938 c 0
 907.779296875 388.297851562 825.521484375 470.555664062 724.16796875 470.555664062 c 0
 622.814453125 470.555664062 540.556640625 388.297851562 540.556640625 286.944335938 c 0
 540.556640625 185.590820312 622.814453125 103.333007812 724.16796875 103.333007812 c 2
EndSplineSet
Validated: 5
EndChar

StartChar: NameMe.1408
Encoding: 1408 57706 74
Width: 1033
VWidth: 0
Flags: W
HStem: -125 27.7773<100 150 186.111 846.39 883.89 933.334> 688.889 27.7783<100 143.056 180.278 833.611 868.056 933.334>
LayerCount: 4
Fore
SplineSet
933.333984375 716.666992188 m 1
 933.333984375 685.833007812 l 1
 868.055664062 685.833007812 l 1
 869.444335938 685.833007812 l 1
 530.278320312 296.944335938 l 1
 883.889648438 -97.22265625 l 1
 933.333984375 -97.22265625 l 1
 933.333984375 -125 l 1
 100 -125 l 1
 100 -97.22265625 l 1
 150 -97.22265625 l 1
 493.055664062 297.77734375 l 1
 143.055664062 688.888671875 l 1
 100 688.888671875 l 1
 100 716.666992188 l 1
 933.333984375 716.666992188 l 1
846.389648438 -97.22265625 m 1
 511.666992188 275.833007812 l 1
 186.111328125 -97.22265625 l 1
 846.389648438 -97.22265625 l 1
511.389648438 319.444335938 m 1
 833.611328125 688.888671875 l 1
 180.278320312 688.888671875 l 1
 511.389648438 319.444335938 l 1
EndSplineSet
Validated: 5
EndChar

StartChar: NameMe.1504
Encoding: 1504 57713 75
Width: 1036
VWidth: 0
Flags: W
HStem: 107.223 27.7773<127.777 908.889>
VStem: 100 27.7773<-116.667 107.223> 908.889 27.7773<-110.556 107.223>
LayerCount: 4
Fore
SplineSet
100 135 m 1
 936.666015625 135 l 1
 936.666015625 -110.555664062 l 1
 908.888671875 -110.555664062 l 1
 908.888671875 107.22265625 l 1
 127.77734375 107.22265625 l 1
 127.77734375 -116.666992188 l 1
 100 -116.666992188 l 1
 100 135 l 1
607.5 436.111328125 m 2
 536.126953125 494.228515625 448.26953125 609.836914062 411.388671875 694.166992188 c 2
 436.944335938 705.27734375 l 2
 472.318359375 624.408203125 556.567382812 513.528320312 625 457.77734375 c 2
 607.5 436.111328125 l 2
EndSplineSet
Validated: 1
EndChar

StartChar: NameMe.1600
Encoding: 1600 57724 76
Width: 993
VWidth: 0
Flags: W
LayerCount: 4
Fore
SplineSet
893.888671875 677.5 m 1
 530 310 l 1
 926 -54 l 1
 874.444335938 -96.9443359375 l 1
 478 268 l 1
 119.444335938 -96.9443359375 l 1
 82 -56 l 1
 436 304 l 1
 88 666 l 1
 134 710 l 1
 486 360 l 1
 854 712 l 5
 893.888671875 677.5 l 1
EndSplineSet
Validated: 1
EndChar

StartChar: NameMe.1696
Encoding: 1696 57752 77
Width: 1036
VWidth: 0
Flags: W
HStem: -33.1152 28.123<719.244 825.672> 625 27.2227<214.526 645.001>
VStem: 177.779 28.8887<235.56 613.796> 909.168 27.7773<92.4446 122.583>
LayerCount: 4
Fore
SplineSet
126.388671875 -51.9443359375 m 1
 100 -43.0556640625 l 1
 135.380859375 63.3037109375 170.224609375 240.387695312 177.779296875 352.22265625 c 0
 179.556640625 380.0625 181.001953125 425.297851562 181.001953125 453.194335938 c 0
 181.001953125 481.090820312 179.556640625 526.327148438 177.779296875 554.166992188 c 0
 175.556640625 590.27734375 177.779296875 616.111328125 192.779296875 632.5 c 0
 207.779296875 648.888671875 233.333984375 652.22265625 271.388671875 652.22265625 c 2
 684.723632812 652.22265625 l 1
 677.779296875 633.333007812 l 2
 538.888671875 234.444335938 642.779296875 77.77734375 677.779296875 40 c 0
 697.9375 15.1640625 740.2578125 -4.9921875 772.244140625 -4.9921875 c 0
 779.450195312 -4.9921875 791.013671875 -3.7509765625 798.056640625 -2.22265625 c 0
 849.16796875 10.5556640625 890.279296875 59.1669921875 909.16796875 127.77734375 c 2
 936.9453125 120.833007812 l 2
 916.66796875 42.22265625 868.056640625 -13.888671875 806.66796875 -29.1669921875 c 0
 797.40234375 -31.345703125 782.158203125 -33.115234375 772.638671875 -33.115234375 c 0
 733.403320312 -33.115234375 681.572265625 -8.32421875 656.9453125 22.22265625 c 0
 558.611328125 129.72265625 554.4453125 354.166992188 645.000976562 625 c 1
 272.779296875 625 l 2
 238.056640625 625 221.66796875 621.944335938 214.16796875 614.166992188 c 0
 206.66796875 606.388671875 204.723632812 589.72265625 206.66796875 556.666992188 c 0
 208.470703125 528.329101562 209.935546875 482.284179688 209.935546875 453.888671875 c 0
 209.935546875 425.493164062 208.470703125 379.44921875 206.66796875 351.111328125 c 0
 198.720703125 237.037109375 162.755859375 56.46875 126.388671875 -51.9443359375 c 1
EndSplineSet
Validated: 33
EndChar

StartChar: NameMe.1792
Encoding: 1792 57755 78
Width: 1034
VWidth: 0
Flags: W
HStem: 72 59.3887<100 906.944> 468.611 59.3887<100 906.944>
VStem: 906.944 93.0557<131.389 466.25> 906.944 85.0557<131.389 468.611>
LayerCount: 4
Fore
SplineSet
1000 69 m 1xe0
 100 72 l 1
 100 131.388671875 l 1
 906.944335938 131.388671875 l 1xe0
 906.944335938 468.611328125 l 1
 100 468.611328125 l 1
 100 528 l 1
 992 523 l 1xd0
 1000 69 l 1xe0
EndSplineSet
Validated: 1
EndChar

StartChar: NameMe.1888
Encoding: 1888 57859 79
Width: 1036
VWidth: 0
Flags: W
HStem: -43.333 27.7773<407.771 628.895> 611.944 27.7783<407.771 628.895>
VStem: 100 27.7773<220.505 375.882> 293.056 27.7773<247.271 276.61> 716.11 27.7783<255.593 276.96> 908.889 27.7773<220.507 375.884>
LayerCount: 4
Fore
SplineSet
518.333007812 639.72265625 m 0
 748.888671875 639.72265625 936.666015625 486.666992188 936.666015625 298.333007812 c 0
 936.666015625 110 748.888671875 -43.3330078125 518.333007812 -43.3330078125 c 0
 287.77734375 -43.3330078125 100 109.72265625 100 298.055664062 c 0
 100 486.388671875 287.77734375 639.72265625 518.333007812 639.72265625 c 0
518.333007812 -15.5556640625 m 0
 733.610351562 -15.5556640625 908.888671875 125 908.888671875 298.055664062 c 0
 908.888671875 471.111328125 733.610351562 611.944335938 518.333007812 611.944335938 c 0
 303.055664062 611.944335938 127.77734375 471.388671875 127.77734375 298.333007812 c 0
 127.77734375 125.27734375 303.055664062 -15.5556640625 518.333007812 -15.5556640625 c 0
320.833007812 281.388671875 m 1
 293.055664062 275 l 1
 347.771484375 52.07421875 684.544921875 61.609375 743.888671875 275 c 1
 716.110351562 282.77734375 l 1
 663.125 95.3935546875 371.377929688 86.7529296875 320.833007812 281.388671875 c 1
EndSplineSet
Validated: 41
EndChar

StartChar: NameMe.0
Encoding: 0 57344 82
Width: 904
VWidth: 0
Flags: W
HStem: -129 63<76 577> 525 42.2227<289.445 498.056> 654 61.5557<100 571>
VStem: 577 54.667<-66 195.277 399.444 654>
LayerCount: 4
Fore
SplineSet
631.666992188 399.444335938 m 1
 742 295 l 1
 631.666992188 195.27734375 l 1
 637 -132 l 1
 76 -129 l 1
 70 -66 l 1
 577 -66 l 1
 577 240 l 1
 654 295 l 5
 577 360 l 1
 571 654 l 1
 94 654 l 1
 100 715.555664062 l 1
 631.666992188 715.555664062 l 1
 631.666992188 399.444335938 l 1
288 525 m 1
 289.4453125 567.22265625 l 1
 498.055664062 567.22265625 l 1
 500 527 l 1
 288 525 l 1
EndSplineSet
Validated: 1
EndChar

StartChar: NameMe.8
Encoding: 8 57352 90
Width: 991
VWidth: 0
Flags: W
HStem: -116.667 56.667<190 673> 347.223 27.7773<102.778 146.01> 386.111 27.7773<100 125.065> 538.889 27.7783<377.778 586.111> 688.889 43.1113<215.071 227.778 241.667 664>
VStem: 227.778 27.7773<530.428 688.889> 664 51<400 690> 679 40.4443<-66 194.444>
LayerCount: 4
Fore
SplineSet
719.444335938 400 m 1xfd
 838 291 l 5
 719.444335938 194.444335938 l 1
 719.444335938 -116.666992188 l 1
 188.888671875 -116.666992188 l 1
 190 -60 l 1
 673 -66 l 1
 679 231 l 1xfd
 760 287 l 1
 667 375 l 1
 664 690 l 1
 241.666992188 688.888671875 l 1
 255.555664062 688.888671875 l 1
 252.778320312 483.333007812 208.333007812 402.77734375 169.444335938 369.444335938 c 0
 152.778320312 355.555664062 130.555664062 347.22265625 111.111328125 347.22265625 c 0
 108.333007812 347.22265625 102.778320312 347.22265625 100 347.22265625 c 2
 102.778320312 375 l 2
 113.888671875 375 130.555664062 375 150 391.666992188 c 0
 180.555664062 413.888671875 227.778320312 486.111328125 227.778320312 688.888671875 c 1
 216.666992188 688.888671875 l 1
 200 461.111328125 172.22265625 388.888671875 100 386.111328125 c 2
 100 413.888671875 l 2
 138.888671875 416.666992188 162.868987541 477.124556847 188.888671875 697.22265625 c 2
 193 732 l 1
 715 735 l 1xfe
 719.444335938 400 l 1xfd
377.778320312 538.888671875 m 1
 377.778320312 566.666992188 l 1
 586.111328125 566.666992188 l 1
 586.111328125 538.888671875 l 1
 377.778320312 538.888671875 l 1
EndSplineSet
Validated: 1
EndChar

StartChar: NameMe.352
Encoding: 352 57407 134
Width: 1033
VWidth: 0
Flags: W
HStem: -116.667 27.7783<127.778 905.556> 688.889 27.7783<127.778 905.556>
VStem: 100 27.7783<-88.8887 688.889> 905.556 27.7783<-88.8887 688.889>
LayerCount: 4
Fore
SplineSet
933.333984375 -116.666992188 m 1
 100 -116.666992188 l 1
 100 716.666992188 l 1
 933.333984375 716.666992188 l 1
 933.333984375 -116.666992188 l 1
127.778320312 -88.888671875 m 1
 905.555664062 -88.888671875 l 1
 905.555664062 688.888671875 l 1
 127.778320312 688.888671875 l 1
 127.778320312 -88.888671875 l 1
EndSplineSet
Validated: 1
EndChar

StartChar: NameMe.1801
Encoding: 1801 57507 173
Width: 853
VWidth: 0
Flags: W
HStem: -26 20.2773<200.126 648.55> 562.09 37.4057<154.409 733.475> 811.894 37.4057<154.409 733.475>
VStem: 733.475 61.0363<599.495 811.894> 733.475 66.7771<599.495 810.406>
LayerCount: 4
Fore
SplineSet
667 -26 m 5xe0
 182.350585938 -26 l 5
 79.0751953125 365.766601562 l 5
 266.5 242.680664062 l 5
 414.776367188 518.458007812 l 5
 562.600585938 242.680664062 l 5
 748.901367188 364.346679688 l 5
 667 -26 l 5xe0
200.125976562 -5.72265625 m 5
 648.549804688 -5.72265625 l 5
 716.049804688 318.721679688 l 5
 553.82421875 212.466796875 l 5
 414.776367188 472.022460938 l 5
 275.05078125 212.061523438 l 5
 115.076171875 317.100585938 l 5
 200.125976562 -5.72265625 l 5
EndSplineSet
Refer: 78 57755 N 0.717604 0 0 0.629845 82.6483 516.741 2
Validated: 1
EndChar

StartChar: NameMe.1802
Encoding: 1802 57585 174
Width: 875
VWidth: 0
Flags: W
HStem: -116.36 21.2881<241.787 270.979 292.062 677.559 699.452 728.321> 507.372 21.2871<241.787 266.925 288.656 670.098 690.208 728.321> 595.644 32.5469<260.774 679.296> 812.999 30.9033<260.774 679.296>
VStem: 679.296 32.7041<628.19 812.999>
LayerCount: 4
Fore
SplineSet
728.321289062 528.659179688 m 1
 728.321289062 505.030273438 l 1
 690.208007812 505.030273438 l 1
 691.018554688 505.030273438 l 1
 493 207 l 1
 699.452148438 -95.072265625 l 1
 728.321289062 -95.072265625 l 1
 728.321289062 -116.360351562 l 1
 241.787109375 -116.360351562 l 1
 241.787109375 -95.072265625 l 1
 270.978515625 -95.072265625 l 1
 471.268554688 207.638671875 l 1
 266.924804688 507.372070312 l 1
 241.787109375 507.372070312 l 1
 241.787109375 528.659179688 l 1
 728.321289062 528.659179688 l 1
677.55859375 -95.072265625 m 1
 482.134765625 190.823242188 l 1
 292.0625 -95.072265625 l 1
 677.55859375 -95.072265625 l 1
481.971679688 224.245117188 m 1
 670.09765625 507.372070312 l 1
 288.65625 507.372070312 l 1
 481.971679688 224.245117188 l 1
712 594 m 5
 260.774414062 595.643554688 l 5
 260.774414062 628.190429688 l 5
 679.295898438 628.190429688 l 5
 679.295898438 812.999023438 l 5
 260.774414062 812.999023438 l 5
 260.774414062 845.544921875 l 5
 707.33203125 843.90234375 l 5
 712 594 l 5
EndSplineSet
Validated: 5
EndChar

StartChar: NameMe.1803
Encoding: 1803 59910 175
Width: 1385
VWidth: 0
Flags: W
HStem: -67 34.5146<215.109 356.798> 1.71875 35.7744<571.959 702.606> 269.351 34.207<217.084 358.608> 414.987 39.3447<259.25 975.413> 677.742 36.0322<259.25 975.413>
VStem: 103.676 22.6494<63.1632 173.11> 445.592 36.5303<121.699 185.623> 975.413 82.5869<454.332 677.742> 975.413 75.4863<454.332 677.742>
LayerCount: 4
Fore
SplineSet
1058 413 m 1xff
 259.25 414.987304688 l 1
 259.25 454.33203125 l 1
 975.413085938 454.33203125 l 1
 975.413085938 677.7421875 l 1xff
 259.25 677.7421875 l 1
 259.25 717.086914062 l 1
 1050.89941406 713.774414062 l 1xfe80
 1058 413 l 1xff
438.567382812 115.510742188 m 5
 445.240234375 110.353515625 l 1030
1062.73925781 212.456054688 m 4
 1087.35839844 194.02734375 1123.23632812 159.991210938 1142.82324219 136.481445312 c 6
 1116.12792969 114.135742188 l 6
 1098.26367188 135.342773438 1065.69042969 166.14453125 1043.41894531 182.891601562 c 4
 1024.15136719 197.879882812 988.587890625 211.43359375 964.037109375 213.143554688 c 4
 898.353515625 216.237304688 862.174804688 168.108398438 823.537109375 118.260742188 c 4
 808.982421875 98.2978515625 782.544921875 68.265625 764.52734375 51.2236328125 c 4
 739.973632812 28.3232421875 692.766601562 6.1455078125 659.15234375 1.71875 c 6
 641.940429688 1.71875 l 6
 609.606445312 2.953125 561.611328125 18.353515625 534.809570312 36.0986328125 c 4
 518.07421875 46.85546875 492.739257812 66.5693359375 478.258789062 80.1015625 c 5
 460.78125 -1.0986328125 377.786132812 -67 293 -67 c 4
 188.493164062 -67 103.67578125 16.0126953125 103.67578125 118.296875 c 4
 103.67578125 218.592773438 186.829101562 301.587890625 289.286132812 303.557617188 c 4
 289.720703125 303.561523438 290.42578125 303.563476562 290.861328125 303.563476562 c 4
 392.165039062 303.563476562 477.850585938 223.166015625 482.122070312 124.10546875 c 4
 499.76953125 105.885742188 531.241210938 79.548828125 552.372070312 65.3193359375 c 4
 575.198242188 49.958984375 616.20703125 37.4931640625 643.908203125 37.4931640625 c 4
 646.76171875 37.4931640625 651.387695312 37.6376953125 654.235351562 37.8173828125 c 4
 681.235351562 41.8994140625 719.159179688 60.2265625 738.885742188 78.7265625 c 4
 755.5 94.5693359375 779.891601562 122.446289062 793.330078125 140.94921875 c 4
 835.479492188 195.610351562 879.736328125 249.583984375 963.685546875 249.583984375 c 4
 994.276367188 247.647460938 1038.65136719 231.014648438 1062.73925781 212.456054688 c 4
287.879882812 -32.314453125 m 4
 288.263671875 -32.3173828125 288.884765625 -32.3203125 289.267578125 -32.3203125 c 4
 369.90625 -32.3203125 439.625 31.59765625 444.889648438 110.353515625 c 6
 439.270507812 115.853515625 l 5
 445.591796875 121.69921875 l 6
 442.602539062 203.112304688 372.623046875 269.186523438 289.38671875 269.186523438 c 4
 288.970703125 269.186523438 288.296875 269.182617188 287.879882812 269.1796875 c 4
 285.8515625 269.274414062 282.5546875 269.350585938 280.5234375 269.350585938 c 4
 195.405273438 269.350585938 126.325195312 201.739257812 126.325195312 118.431640625 c 4
 126.325195312 35.125 195.405273438 -32.4853515625 280.5234375 -32.4853515625 c 4
 282.5546875 -32.4853515625 285.8515625 -32.408203125 287.879882812 -32.314453125 c 4
EndSplineSet
Validated: 35
EndChar

StartChar: NameMe.1984
Encoding: 1984 57873 292
Width: 1023
VWidth: 0
Flags: W
LayerCount: 4
Fore
SplineSet
515.833007812 -83.0556640625 m 1
 100 669.72265625 l 1
 148 690 l 1
 520 51 l 1
 859 696 l 1
 923.888671875 669.72265625 l 1
 515.833007812 -83.0556640625 l 1
EndSplineSet
Validated: 1
EndChar

StartChar: NameMe.2009
Encoding: 2009 57510 317
Width: 771
VWidth: 0
Flags: W
HStem: 253.137 22.5134<175.81 567.4> 403.487 22.5134<175.81 567.4>
VStem: 348.704 21.4692<151.554 246.066> 567.4 41.2754<275.651 403.487> 567.4 45.1576<275.651 402.592>
LayerCount: 4
Fore
SplineSet
376 441 m 1xe0
 128.580078125 770.340820312 l 1
 157.139648438 779.211914062 l 1
 378.479492188 499.649414062 l 1
 580.184570312 781.836914062 l 1
 618.79296875 770.340820312 l 1
 376 441 l 1xe0
EndSplineSet
Refer: 70 57631 N 0.519347 0 0 0.478734 118.24 -101.712 2
Refer: 78 57755 N 0.485275 0 0 0.379086 127.283 225.843 2
Validated: 1
EndChar

StartChar: NameMe.2080
Encoding: 2080 57898 388
Width: 1036
VWidth: 0
Flags: W
VStem: 100 27.7773<125.556 589.217> 909.166 27.5<129.167 589.727>
LayerCount: 4
Fore
SplineSet
518.333007812 -25 m 1
 508.055664062 -13.611328125 l 2
 312.5 203.611328125 129.444335938 96.111328125 121.110351562 91.388671875 c 2
 100 77.77734375 l 1
 100 597.5 l 1
 106.110351562 601.666992188 l 2
 108.055664062 601.666992188 307.77734375 736.944335938 524.166015625 507.5 c 1
 740.555664062 737.5 929.166015625 602.77734375 931.110351562 601.388671875 c 2
 936.666015625 597.22265625 l 1
 936.666015625 75 l 1
 914.166015625 92.5 l 2
 907.221679688 97.77734375 740.555664062 222.22265625 528.610351562 -13.611328125 c 2
 518.333007812 -25 l 1
245.555664062 148.888671875 m 0
 320.833007812 148.888671875 418.888671875 121.111328125 518.333007812 16.388671875 c 1
 633.888671875 139.166992188 738.055664062 160.833007812 805.555664062 156.944335938 c 0
 835.814453125 155.479492188 882.232421875 143.03515625 909.166015625 129.166992188 c 2
 909.166015625 582.77734375 l 2
 877.221679688 602.77734375 720.27734375 683.888671875 534.721679688 477.77734375 c 2
 524.444335938 466.388671875 l 1
 514.166015625 477.77734375 l 2
 330 681.944335938 161.110351562 601.666992188 127.77734375 582.5 c 2
 127.77734375 125.555664062 l 2
 158.975585938 138.435546875 211.6875 148.888671875 245.439453125 148.888671875 c 0
 245.471679688 148.888671875 245.5234375 148.888671875 245.555664062 148.888671875 c 0
EndSplineSet
Validated: 33
EndChar

StartChar: NameMe.2176
Encoding: 2176 57905 484
Width: 1040
VWidth: 0
Flags: W
HStem: 102.777 27.7783<232.812 362.013> 230.556 138.889<247.318 346.523> 286.111 27.7773<361.002 466.454 493.049 940.344> 469.444 27.7783<232.817 362.052>
VStem: 100 28.1357<235.418 364.584> 466.454 27.5<236.296 286.111 313.889 363.763>
LayerCount: 4
Fore
SplineSet
940.34375 313.888671875 m 1xbc
 940.34375 286.111328125 l 1
 493.954101562 286.111328125 l 2
 486.809570312 184.911132812 398.673828125 102.77734375 297.221679688 102.77734375 c 0
 188.35546875 102.77734375 100 191.133789062 100 300 c 0
 100 408.866210938 188.35546875 497.22265625 297.221679688 497.22265625 c 0
 398.673828125 497.22265625 486.809570312 415.088867188 493.954101562 313.888671875 c 2
 940.34375 313.888671875 l 1xbc
297.565429688 130.555664062 m 0
 383.610351562 130.677734375 459.272460938 200.366210938 466.454101562 286.111328125 c 2
 365.62109375 286.111328125 l 2xbc
 359.361328125 255.444335938 328.87890625 230.555664062 297.580078125 230.555664062 c 0
 259.24609375 230.555664062 228.135742188 261.666992188 228.135742188 300 c 0
 228.135742188 338.333007812 259.24609375 369.444335938 297.580078125 369.444335938 c 0xdc
 328.87890625 369.444335938 359.361328125 344.555664062 365.62109375 313.888671875 c 2
 466.454101562 313.888671875 l 2
 459.392578125 399.755859375 383.737304688 469.444335938 297.580078125 469.444335938 c 0
 204.046875 469.444335938 128.135742188 393.533203125 128.135742188 300 c 0
 128.135742188 206.474609375 204.040039062 130.563476562 297.565429688 130.555664062 c 0
EndSplineSet
Validated: 1
EndChar

StartChar: NameMe.2272
Encoding: 2272 57912 496
Width: 755
VWidth: 0
Flags: W
HStem: -116.667 27.7783<127.777 627.777> 146.667 27.7773<127.777 627.777> 427.777 27.7783<127.777 627.777> 688.889 27.7783<127.777 627.777>
VStem: 100 27.7773<-88.8887 146.667 174.444 427.777 455.556 688.889> 627.777 27.7773<-88.8887 146.667 174.444 427.777 455.556 688.889>
LayerCount: 4
Fore
SplineSet
100 716.666992188 m 1
 655.5546875 716.666992188 l 1
 655.5546875 -116.666992188 l 1
 100 -116.666992188 l 1
 100 716.666992188 l 1
627.77734375 174.444335938 m 1
 627.77734375 427.77734375 l 1
 127.77734375 427.77734375 l 1
 127.77734375 174.444335938 l 1
 627.77734375 174.444335938 l 1
627.77734375 688.888671875 m 1
 127.77734375 688.888671875 l 1
 127.77734375 455.555664062 l 1
 627.77734375 455.555664062 l 1
 627.77734375 688.888671875 l 1
127.77734375 -88.888671875 m 1
 627.77734375 -88.888671875 l 1
 627.77734375 146.666992188 l 1
 127.77734375 146.666992188 l 1
 127.77734375 -88.888671875 l 1
EndSplineSet
Validated: 1
EndChar

StartChar: NameMe.2368
Encoding: 2368 57916 497
Width: 868
VWidth: 0
Flags: W
LayerCount: 4
Fore
SplineSet
122.999023438 75.6513671875 m 1
 100 91.228515625 l 1
 523.392578125 716.340820312 l 1
 546.390625 700.763671875 l 1
 122.999023438 75.6513671875 l 1
345.04296875 -115.84765625 m 1
 322.044921875 -100.270507812 l 1
 745.436523438 524.840820312 l 1
 768.435546875 509.263671875 l 1
 345.04296875 -115.84765625 l 1
EndSplineSet
Validated: 1
EndChar

StartChar: NameMe.2464
Encoding: 2464 57918 498
Width: 1033
VWidth: 0
Flags: W
HStem: -116.667 27.7783<127.778 905.556> 245 111.111<639.628 727.04> 688.889 27.7783<127.778 905.556>
VStem: 100 27.7783<-88.8887 688.889> 627.778 111.111<256.849 344.262> 905.556 27.7783<-88.8887 688.889>
LayerCount: 4
Fore
SplineSet
627.778320312 300.555664062 m 0
 627.778320312 331.23828125 652.651367188 356.111328125 683.333984375 356.111328125 c 0
 714.016601562 356.111328125 738.889648438 331.23828125 738.889648438 300.555664062 c 0
 738.889648438 269.873046875 714.016601562 245 683.333984375 245 c 0
 652.651367188 245 627.778320312 269.873046875 627.778320312 300.555664062 c 0
100 716.666992188 m 1
 933.333984375 716.666992188 l 1
 933.333984375 -116.666992188 l 1
 100 -116.666992188 l 1
 100 716.666992188 l 1
905.555664062 -88.888671875 m 1
 905.555664062 688.888671875 l 1
 127.778320312 688.888671875 l 1
 127.778320312 -88.888671875 l 1
 905.555664062 -88.888671875 l 1
EndSplineSet
Validated: 1
EndChar

StartChar: NameMe.2560
Encoding: 2560 57924 499
Width: 1040
VWidth: 0
Flags: W
HStem: -27.7773 27.7773<102.701 157.193 883.456 937.828> 444.444 27.7783<214.722 500.277 540.277 825.833>
VStem: 506.389 27.7773<-116.667 355.556 472.223 716.667>
LayerCount: 4
Fore
SplineSet
540.27734375 444.444335938 m 2
 548.0546875 402.22265625 620.833007812 43.3330078125 940.5546875 0.8330078125 c 1
 936.944335938 -26.9443359375 l 1
 681.110351562 7.22265625 575.833007812 230 534.166015625 355.555664062 c 2
 534.166015625 -116.666992188 l 1
 506.388671875 -116.666992188 l 1
 506.388671875 355.555664062 l 2
 464.721679688 230 359.444335938 7.22265625 103.610351562 -27.77734375 c 1
 100 0 l 1
 420.27734375 43.3330078125 492.77734375 402.22265625 500.27734375 444.444335938 c 2
 214.721679688 444.444335938 l 1
 214.721679688 472.22265625 l 1
 506.388671875 472.22265625 l 1
 506.388671875 716.666992188 l 1
 534.166015625 716.666992188 l 1
 534.166015625 472.22265625 l 1
 825.833007812 472.22265625 l 1
 825.833007812 444.444335938 l 1
 540.27734375 444.444335938 l 2
EndSplineSet
Validated: 1
EndChar

StartChar: NameMe.2656
Encoding: 2656 57927 500
Width: 756
VWidth: 0
Flags: W
HStem: -116.668 27.4277<298.496 448.23>
VStem: 629.562 27.0742<92.2025 251.214>
LayerCount: 4
Fore
SplineSet
369.229492188 -116.666992188 m 0
 369.022460938 -116.666992188 368.686523438 -116.66796875 368.48046875 -116.66796875 c 0
 307.424804688 -116.66796875 222.764648438 -81.6982421875 179.506835938 -38.611328125 c 0
 91.173828125 50 75.0625 188.888671875 138.118164062 316.111328125 c 0
 159.506835938 359.166992188 184.78515625 401.111328125 209.229492188 441.666992188 c 0
 222.28515625 463.055664062 235.340820312 484.72265625 247.5625 506.388671875 c 2
 335.895507812 661.111328125 l 1
 340.0625 669.166992188 l 2
 359.506835938 707.22265625 364.506835938 716.666992188 375.618164062 716.666992188 c 2
 380.895507812 716.666992188 l 2
 390.340820312 712.77734375 396.451171875 700.833007812 404.506835938 683.055664062 c 0
 405.895507812 680 407.006835938 677.22265625 407.840820312 676.111328125 c 2
 544.78515625 435.833007812 l 2
 554.506835938 418.888671875 565.0625 402.5 575.618164062 385.833007812 c 0
 595.244140625 357.157226562 622.373046875 308.001953125 636.173828125 276.111328125 c 1
 639.5078125 267.962890625 642.377929688 259.629882812 644.78515625 251.111328125 c 0
 651.326171875 229.15234375 656.635742188 192.735351562 656.635742188 169.822265625 c 0
 656.635742188 39.4443359375 552.641601562 -85.9169921875 424.506835938 -110 c 0
 409.4296875 -113.329101562 384.665039062 -116.315429688 369.229492188 -116.666992188 c 0
375.618164062 676.666992188 m 2
 371.451171875 669.166992188 367.28515625 660.555664062 365.0625 655.833007812 c 2
 360.0625 646.111328125 l 1
 271.729492188 491.944335938 l 2
 259.229492188 470 246.173828125 448.333007812 232.840820312 426.666992188 c 0
 208.673828125 386.666992188 183.673828125 345.27734375 162.840820312 303.333007812 c 0
 105.0625 186.111328125 118.951171875 59.72265625 198.673828125 -18.888671875 c 0
 237.778320312 -57.72265625 314.244140625 -89.240234375 369.35546875 -89.240234375 c 0
 383.111328125 -89.240234375 405.206054688 -86.9677734375 418.673828125 -84.1669921875 c 0
 535.083984375 -62.95703125 629.561523438 50.2900390625 629.561523438 168.616210938 c 0
 629.561523438 190.021484375 624.435546875 223.9921875 618.118164062 244.444335938 c 0
 615.896484375 252.22265625 613.303710938 259.815429688 610.340820312 267.22265625 c 1
 597.068359375 297.723632812 571.059570312 344.763671875 552.28515625 372.22265625 c 0
 541.451171875 389.166992188 530.618164062 406.111328125 520.618164062 423.333007812 c 2
 383.673828125 661.111328125 l 2
 383.673828125 663.055664062 380.895507812 666.388671875 379.229492188 670.555664062 c 2
 375.618164062 676.666992188 l 2
EndSplineSet
Validated: 33
EndChar

StartChar: NameMe.2752
Encoding: 2752 57931 501
Width: 1033
VWidth: 0
Flags: W
HStem: 122.777 65.2227<100 933> 445 57<100 933.334>
LayerCount: 4
Fore
SplineSet
100 445 m 5
 97 502 l 5
 935 506 l 5
 933.333984375 445 l 5
 100 445 l 5
100 122.77734375 m 5
 95 188 l 5
 933 184 l 5
 933.333984375 122.77734375 l 5
 100 122.77734375 l 5
EndSplineSet
Validated: 1
EndChar

StartChar: NameMe.2848
Encoding: 2848 57934 502
Width: 1033
VWidth: 0
Flags: W
HStem: 385.833 44.167<100 414 457.5 832 917.778 932>
VStem: 414 44<186 384>
LayerCount: 4
Fore
SplineSet
932 430 m 1
 933.333984375 385.833007812 l 1
 917.778320312 385.833007812 l 1
 917.778320312 383.333007812 l 1
 414 116 l 1
 414 384 l 1
 100 386.388671875 l 1
 100 432 l 1
 932 430 l 1
458 186 m 1
 832 384 l 1
 457.5 386.388671875 l 1
 458 186 l 1
EndSplineSet
Validated: 1
EndChar

StartChar: NameMe.2944
Encoding: 2944 57937 503
Width: 1005
VWidth: 0
Flags: W
HStem: -102.5 28.8887<411.636 488.611 516.389 593.364> 286.111 27.7773<128.889 438.418 566.433 876.111> 674.167 28.333<411.636 488.611 516.389 590.826>
VStem: 100 28.333<209.136 286.111 313.889 388.285> 488.611 27.7773<-73.6113 236.529 363.377 673.611> 876.667 28.333<211.715 286.111 313.611 390.753>
CounterMasks: 1 1c
LayerCount: 4
Fore
SplineSet
502.5 702.5 m 0
 724.374023438 702.194335938 904.694335938 521.874023438 905 300 c 0
 905 77.8203125 724.6796875 -102.5 502.5 -102.5 c 0
 280.3203125 -102.5 100 77.8203125 100 300 c 0
 100 522.1796875 280.3203125 702.5 502.5 702.5 c 0
876.666992188 313.611328125 m 1
 876.666992188 313.888671875 l 2
 873.95703125 390.508789062 829.40625 498.27734375 777.22265625 554.444335938 c 2
 560.833007812 338.055664062 l 2
 564.993164062 331.865234375 569.59765625 320.9140625 571.111328125 313.611328125 c 2
 876.666992188 313.611328125 l 1
540.833007812 357.77734375 m 2
 757.22265625 573.611328125 l 2
 701.056640625 626.02734375 593.163085938 670.827148438 516.388671875 673.611328125 c 2
 516.388671875 368.055664062 l 2
 523.692382812 366.541992188 534.642578125 361.9375 540.833007812 357.77734375 c 2
488.611328125 368.055664062 m 2
 488.611328125 674.166992188 l 2
 411.836914062 671.3828125 303.943359375 626.583007812 247.77734375 574.166992188 c 2
 464.166992188 357.77734375 l 2
 470.357421875 361.9375 481.307617188 366.541992188 488.611328125 368.055664062 c 2
464.166992188 242.22265625 m 2
 247.77734375 26.111328125 l 2
 303.9765625 -26.216796875 411.870117188 -70.892578125 488.611328125 -73.611328125 c 2
 488.611328125 231.944335938 l 2
 481.307617188 233.458007812 464.166992188 242.22265625 464.166992188 242.22265625 c 2
516.388671875 231.944335938 m 2
 516.388671875 -74.1669921875 l 2
 593.163085938 -71.3828125 701.056640625 -26.5830078125 757.22265625 25.8330078125 c 2
 540.833007812 242.22265625 l 2
 534.642578125 238.0625 523.692382812 233.458007812 516.388671875 231.944335938 c 2
228.333007812 554.72265625 m 2
 176.09375 498.490234375 131.541992188 390.596679688 128.888671875 313.888671875 c 2
 434.444335938 313.888671875 l 2
 435.958007812 321.192382812 440.5625 332.142578125 444.72265625 338.333007812 c 2
 228.333007812 554.72265625 l 2
128.333007812 286.111328125 m 2
 131.1171875 209.336914062 175.916992188 101.443359375 228.333007812 45.27734375 c 2
 444.166992188 261.666992188 l 2
 440.006835938 267.857421875 435.40234375 278.807617188 433.888671875 286.111328125 c 2
 128.333007812 286.111328125 l 2
776.666992188 45.27734375 m 2
 828.90625 101.509765625 873.458007812 209.403320312 876.111328125 286.111328125 c 2
 570.555664062 286.111328125 l 2
 569.041992188 278.807617188 564.4375 267.857421875 560.27734375 261.666992188 c 2
 776.666992188 45.27734375 l 2
EndSplineSet
Validated: 1
EndChar

StartChar: NameMe.3040
Encoding: 3040 57939 504
Width: 1078
VWidth: 0
Flags: W
HStem: 688.889 27.7783<146.944 932.222>
LayerCount: 4
Fore
SplineSet
543.611328125 -87.22265625 m 1
 100 716.666992188 l 1
 978.888671875 716.666992188 l 1
 543.611328125 -87.22265625 l 1
146.944335938 688.888671875 m 1
 543.333007812 -29.4443359375 l 1
 932.221679688 688.888671875 l 1
 146.944335938 688.888671875 l 1
EndSplineSet
Validated: 1
EndChar

StartChar: NameMe.3136
Encoding: 3136 57942 505
Width: 1027
VWidth: 0
Flags: W
HStem: -110.556 27.7783<106.233 126.505> -43.8887 27.5<860.328 922.777> 436.667 27.7773<211.944 496.11>
LayerCount: 4
Fore
SplineSet
441.450195312 565.447265625 m 1
 308.874023438 696.458984375 l 1
 328.3984375 716.217773438 l 1
 460.975585938 585.205078125 l 1
 441.450195312 565.447265625 l 1
922.77734375 -16.388671875 m 1
 927.5 -43.888671875 l 2
 908.8046875 -46.498046875 878.311523438 -48.615234375 859.434570312 -48.615234375 c 0
 858.900390625 -48.615234375 858.034179688 -48.61328125 857.5 -48.611328125 c 0
 611.110351562 -48.611328125 455.27734375 140.555664062 427.5 176.388671875 c 1
 364.721679688 60.27734375 264.444335938 -59.4443359375 108.333007812 -110.555664062 c 1
 100 -82.77734375 l 1
 388.888671875 9.4443359375 479.166015625 357.22265625 496.110351562 436.666992188 c 2
 211.944335938 436.666992188 l 1
 211.944335938 464.444335938 l 1
 529.444335938 464.444335938 l 1
 526.666015625 448.333007812 l 2
 511.78125 373.891601562 471.336914062 258.78125 436.388671875 191.388671875 c 2
 446.388671875 198.333007812 l 2
 448.333007812 195.833007812 628.333007812 -57.77734375 922.77734375 -16.388671875 c 1
EndSplineSet
Validated: 33
EndChar

StartChar: NameMe.3232
Encoding: 3232 57947 506
Width: 1041
VWidth: 0
Flags: W
LayerCount: 4
Fore
SplineSet
523.055664062 155.833007812 m 2
 512.674804688 156.293945312 501.474609375 164.631835938 498.055664062 174.444335938 c 0
 464.756835938 249.232421875 374.161132812 329.25 295.833007812 353.055664062 c 0
 217.22265625 380.833007812 141.666992188 378.611328125 114.166992188 362.22265625 c 2
 100 386.111328125 l 2
 138.888671875 409.166992188 225 406.388671875 304.72265625 379.444335938 c 0
 388.991210938 353.661132812 486.8046875 267.545898438 523.055664062 187.22265625 c 1
 578.611328125 342.22265625 736.666992188 388.333007812 783.888671875 398.888671875 c 0
 855 414.72265625 916.944335938 408.888671875 941.388671875 383.888671875 c 2
 921.666992188 364.444335938 l 2
 907.22265625 379.166992188 856.388671875 386.666992188 790.278320312 371.666992188 c 0
 746.111328125 361.944335938 598.611328125 318.611328125 549.444335938 177.22265625 c 0
 546.575195312 166.498046875 535.250976562 157.2890625 524.166992188 156.666992188 c 2
 523.055664062 155.833007812 l 2
EndSplineSet
Validated: 33
EndChar

StartChar: NameMe.3328
Encoding: 3328 57951 507
Width: 1032
VWidth: 0
Flags: W
HStem: 23.333 26.667<232.819 356.183 456.86 576.132 680.081 799.227> 383.33 28.8926<229.04 361.214 446.642 585.712 669.515 800.335>
VStem: 100 28.6582<151.546 280.819> 322.302 27.5469<155.691 276.838> 460.894 27.4805<156.659 276.591> 544.802 27.2695<156.663 276.588> 683.116 28.3135<155.44 277.814> 901.798 30.292<150.348 285.039>
LayerCount: 4
Fore
SplineSet
738.671875 412.77734375 m 0
 845.438476562 412.21484375 932.08984375 325.104492188 932.08984375 218.3359375 c 0
 932.08984375 111.002929688 844.979492188 23.8916015625 737.645507812 23.8916015625 c 0
 704.3359375 23.8916015625 655.017578125 39.197265625 627.560546875 58.0556640625 c 0
 599.915039062 38.8056640625 550.13671875 23.1826171875 516.44921875 23.1826171875 c 0
 482.76171875 23.1826171875 432.983398438 38.8056640625 405.337890625 58.0556640625 c 0
 377.732421875 38.888671875 328.051757812 23.3330078125 294.444335938 23.3330078125 c 0
 187.111328125 23.3330078125 100 110.444335938 100 217.77734375 c 0
 100 325.111328125 187.111328125 412.22265625 294.444335938 412.22265625 c 0
 328.051757812 412.22265625 377.732421875 396.666992188 405.337890625 377.5 c 0
 432.983398438 396.75 482.76171875 412.373046875 516.44921875 412.373046875 c 0
 550.13671875 412.373046875 599.915039062 396.75 627.560546875 377.5 c 0
 655.16796875 396.873046875 704.9453125 412.676757812 738.671875 412.77734375 c 0
294.2265625 50 m 0
 320.821289062 50.0380859375 360.643554688 61.611328125 383.116210938 75.8330078125 c 1
 349.546875 107.591796875 322.301757812 170.872070312 322.301757812 217.083007812 c 0
 322.301757812 263.294921875 349.546875 326.575195312 383.116210938 358.333007812 c 1
 360.849609375 372.130859375 321.51953125 383.330078125 295.32421875 383.330078125 c 0
 203.32421875 383.330078125 128.658203125 308.663085938 128.658203125 216.663085938 c 0
 128.658203125 125.266601562 202.833007812 50.6015625 294.2265625 50 c 0
460.893554688 216.666992188 m 0
 460.87890625 257.791015625 435.990234375 313.416992188 405.337890625 340.833007812 c 0
 374.708007812 313.407226562 349.848632812 257.78125 349.848632812 216.666992188 c 0
 349.848632812 175.552734375 374.708007812 119.92578125 405.337890625 92.5 c 0
 435.990234375 119.916015625 460.87890625 175.54296875 460.893554688 216.666992188 c 0
516.44921875 50 m 0
 543.296875 50.4833984375 583.243164062 62.927734375 605.616210938 77.77734375 c 1
 572.046875 109.536132812 544.801757812 172.81640625 544.801757812 219.02734375 c 0
 544.801757812 265.239257812 572.046875 328.51953125 605.616210938 360.27734375 c 1
 583.103515625 374.502929688 543.21875 386.047851562 516.587890625 386.047851562 c 0
 489.958007812 386.047851562 450.073242188 374.502929688 427.560546875 360.27734375 c 1
 461.129882812 328.51953125 488.374023438 265.239257812 488.374023438 219.02734375 c 0
 488.374023438 172.81640625 461.129882812 109.536132812 427.560546875 77.77734375 c 1
 449.86328125 62.97265625 489.685546875 50.5283203125 516.44921875 50 c 0
683.116210938 216.666992188 m 0
 683.1015625 257.791015625 658.211914062 313.416992188 627.560546875 340.833007812 c 0
 596.930664062 313.407226562 572.071289062 257.78125 572.071289062 216.666992188 c 0
 572.071289062 175.552734375 596.930664062 119.92578125 627.560546875 92.5 c 0
 658.211914062 119.916015625 683.1015625 175.54296875 683.116210938 216.666992188 c 0
738.671875 50 m 0
 828.716796875 51.9130859375 901.797851562 126.563476562 901.797851562 216.62890625 c 0
 901.797851562 308.62890625 827.130859375 383.295898438 735.130859375 383.295898438 c 0
 710.07421875 383.295898438 672.211914062 372.983398438 650.616210938 360.27734375 c 1
 684.185546875 328.51953125 711.4296875 265.239257812 711.4296875 219.02734375 c 0
 711.4296875 172.81640625 684.185546875 109.536132812 650.616210938 77.77734375 c 1
 672.708984375 63.1044921875 712.158203125 50.66015625 738.671875 50 c 0
EndSplineSet
Validated: 1
EndChar

StartChar: NameMe.3424
Encoding: 3424 57955 508
Width: 1347
VWidth: 0
Flags: W
HStem: -70.0576 38.8721<267.427 455.639> 483.187 40.0381<267.427 462.171>
VStem: 49.75 40.2764<137.797 314.377> 1231.9 40.2773<-31.0557 483.444>
LayerCount: 4
Fore
SplineSet
871.8203125 250.888671875 m 2
 1272.17871094 565.112304688 l 1
 1272.17871094 -111.943359375 l 1
 871.8203125 202.278320312 l 2
 810.1953125 150.556640625 531.47265625 -69.943359375 374.389648438 -69.943359375 c 0
 372.014648438 -70.0068359375 368.16015625 -70.0576171875 365.786132812 -70.0576171875 c 0
 196.44921875 -70.0576171875 54.8642578125 62.576171875 49.75 226 c 0
 54.2353515625 390.067382812 195.833984375 523.224609375 365.821289062 523.224609375 c 0
 368.186523438 523.224609375 372.0234375 523.173828125 374.389648438 523.112304688 c 0
 531.875 523.112304688 810.1953125 301.056640625 871.8203125 250.888671875 c 2
374.389648438 -31.0556640625 m 0
 511.333984375 -31.0556640625 769.514648438 169.612304688 840 226 c 1
 769.514648438 282.778320312 511.333984375 483.056640625 374.389648438 483.056640625 c 0
 372.009765625 483.126953125 368.146484375 483.186523438 365.764648438 483.186523438 c 0
 218.640625 483.186523438 95.1103515625 367.966796875 90.0263671875 226 c 0
 95.1103515625 84.0341796875 218.640625 -31.185546875 365.764648438 -31.185546875 c 0
 368.146484375 -31.185546875 372.009765625 -31.126953125 374.389648438 -31.0556640625 c 0
1231.90136719 -31.0556640625 m 1
 1231.90136719 483.444335938 l 1
 903.639648438 226 l 1
 1231.90136719 -31.0556640625 l 1
EndSplineSet
Validated: 1
EndChar

StartChar: NameMe.3520
Encoding: 3520 57957 509
Width: 1033
VWidth: 0
Flags: W
HStem: -72.7773 27.7773<412.574 620.754> 308.056 27.7773<127.778 905.556>
VStem: 100 27.7783<232.87 308.056> 905.556 27.7783<228.059 308.056>
LayerCount: 4
Fore
SplineSet
516.666992188 -72.77734375 m 0
 286.111328125 -72.77734375 100 104.166992188 100 321.944335938 c 2
 100 335.833007812 l 1
 933.333984375 335.833007812 l 1
 933.333984375 321.944335938 l 2
 933.333984375 105.555664062 746.944335938 -72.77734375 516.666992188 -72.77734375 c 0
127.778320312 308.055664062 m 1
 135.555664062 112.22265625 307.5 -45 516.666992188 -45 c 0
 725.833984375 -45 898.889648438 112.22265625 905.555664062 308.055664062 c 1
 127.778320312 308.055664062 l 1
EndSplineSet
Validated: 1
EndChar

StartChar: NameMe.3616
Encoding: 3616 57960 510
Width: 1034
VWidth: 0
Flags: W
HStem: -23.3369 28.8438<493.014 629.524> 21.3291 30.1367<204.963 325.361> 133.056 30.2773<737.141 832.931> 463.721 27.668<409.507 479.893> 516.389 26.9443<196.299 293.098> 562.899 27.8193<573.05 678.722>
VStem: 100 25.3232<137.437 247.149 352.688 447.901> 709.312 29.5312<72.4879 137.827> 908.504 26.4414<243.825 356.937>
LayerCount: 4
Fore
SplineSet
560.473632812 -23.3330078125 m 0
 560.1640625 -23.3349609375 559.661132812 -23.3369140625 559.350585938 -23.3369140625 c 0
 539.509765625 -23.3369140625 508.404296875 -17.486328125 489.918945312 -10.27734375 c 0
 454.29296875 3.7734375 411.981445312 43.2216796875 395.473632812 77.77734375 c 1
 366.857421875 46.6181640625 309.297851562 21.3291015625 266.991210938 21.3291015625 c 0
 262.11328125 21.3291015625 254.215820312 21.7294921875 249.36328125 22.22265625 c 0
 166.915039062 32.1845703125 100 107.670898438 100 190.71875 c 0
 100 224.106445312 117.13671875 272.193359375 138.251953125 298.055664062 c 0
 117.708007812 321.452148438 101.034179688 365.709960938 101.034179688 396.845703125 c 0
 101.034179688 411.755859375 105.263671875 435.196289062 110.473632812 449.166992188 c 0
 130.479492188 500.376953125 191.333007812 542.563476562 246.307617188 543.333007812 c 0
 294.346679688 541.801757812 351.590820312 506.0859375 374.084960938 463.611328125 c 1
 399.349609375 478.793945312 443.776367188 491.23828125 473.251953125 491.388671875 c 0
 498.243164062 546.21875 567.430664062 590.71875 627.688476562 590.71875 c 0
 631.068359375 590.71875 636.546875 590.521484375 639.918945312 590.27734375 c 0
 704.189453125 582.326171875 768.900390625 524.83203125 784.36328125 461.944335938 c 0
 834.659179688 457.303710938 894.516601562 417.232421875 917.973632812 372.5 c 0
 927.341796875 353.361328125 934.9453125 320.534179688 934.9453125 299.225585938 c 0
 934.9453125 269.694335938 920.995117188 226.236328125 903.807617188 202.22265625 c 0
 888.661132812 181.274414062 856.927734375 156.384765625 832.973632812 146.666992188 c 0
 816.37109375 139.5703125 788.247070312 133.47265625 770.196289062 133.055664062 c 0
 762.321289062 133.27734375 749.876953125 135.516601562 742.418945312 138.055664062 c 2
 737.140625 138.055664062 l 2
 738.081054688 132.548828125 738.84375 123.544921875 738.84375 117.958007812 c 0
 738.84375 99.55859375 731.112304688 71.8515625 721.584960938 56.111328125 c 0
 705.36328125 32.35546875 670.39453125 4.728515625 643.529296875 -5.5556640625 c 0
 621.625 -15.2216796875 584.416015625 -23.1865234375 560.473632812 -23.3330078125 c 0
398.251953125 115.555664062 m 1
 401.307617188 115.555664062 l 2
 407.422851562 114.522460938 414.018554688 108.922851562 416.029296875 103.055664062 c 0
 428.361328125 68.9208984375 465.694335938 30.21875 499.36328125 16.6669921875 c 0
 515.704101562 10.505859375 543.140625 5.5068359375 560.604492188 5.5068359375 c 0
 581.002929688 5.5068359375 612.677734375 12.248046875 631.307617188 20.5556640625 c 0
 653.8671875 29.681640625 682.86328125 53.69921875 696.029296875 74.1669921875 c 0
 703.362304688 85.8837890625 709.3125 106.612304688 709.3125 120.434570312 c 0
 709.3125 129.350585938 706.721679688 143.342773438 703.529296875 151.666992188 c 2
 699.918945312 160 l 1
 706.029296875 166.944335938 l 2
 716.029296875 177.77734375 749.084960938 166.944335938 749.36328125 166.944335938 c 0
 754.87890625 165.052734375 764.087890625 163.434570312 769.918945312 163.333007812 c 0
 769.98046875 163.333007812 770.080078125 163.333007812 770.141601562 163.333007812 c 0
 785.37890625 163.333007812 809.172851562 168.0625 823.251953125 173.888671875 c 0
 843.03515625 181.689453125 869.416992188 201.849609375 882.140625 218.888671875 c 0
 896.693359375 238.670898438 908.50390625 274.657226562 908.50390625 299.215820312 c 0
 908.50390625 372.060546875 849.404296875 432.767578125 776.584960938 434.72265625 c 1
 768.451171875 434.981445312 760.736328125 441.701171875 759.36328125 449.72265625 c 0
 748.434570312 505.147460938 694.051757812 555.671875 637.973632812 562.5 c 0
 635.046875 562.720703125 630.288085938 562.899414062 627.3515625 562.899414062 c 0
 575.055664062 562.899414062 516.47265625 523.64453125 496.584960938 475.27734375 c 0
 494.07421875 468.830078125 486.420898438 463.59765625 479.501953125 463.59765625 c 0
 479.310546875 463.59765625 478.999023438 463.603515625 478.807617188 463.611328125 c 0
 477.140625 463.671875 474.434570312 463.720703125 472.767578125 463.720703125 c 0
 444.96875 463.720703125 403.62109375 451.227539062 380.473632812 435.833007812 c 0
 377.818359375 433.911132812 373.001953125 432.350585938 369.723632812 432.350585938 c 0
 362.866210938 432.350585938 355.23828125 437.51953125 352.696289062 443.888671875 c 0
 335.752929688 482.607421875 287.717773438 515.086914062 245.473632812 516.388671875 c 0
 201.51953125 515.524414062 151.7421875 482.048828125 134.36328125 441.666992188 c 0
 130.18359375 430.422851562 126.791992188 411.5625 126.791992188 399.56640625 c 0
 126.791992188 371.958007812 142.627929688 333.698242188 162.140625 314.166992188 c 0
 165.00390625 311.220703125 167.327148438 305.497070312 167.327148438 301.388671875 c 0
 167.327148438 297.28125 165.00390625 291.556640625 162.140625 288.611328125 c 0
 141.817382812 266.209960938 125.323242188 223.481445312 125.323242188 193.234375 c 0
 125.323242188 123.385742188 181.639648438 60.212890625 251.029296875 52.22265625 c 0
 255.12890625 51.8046875 261.799804688 51.4658203125 265.919921875 51.4658203125 c 0
 305.41015625 51.4658203125 357.228515625 76.693359375 381.584960938 107.77734375 c 0
 384.759765625 111.659179688 391.40625 114.809570312 396.420898438 114.809570312 c 0
 396.927734375 114.809570312 397.748046875 114.770507812 398.251953125 114.72265625 c 2
 398.251953125 115.555664062 l 1
143.529296875 293.333007812 m 1
 143.529296875 293.333007812 l 1
143.529296875 306.388671875 m 1
 143.529296875 306.388671875 l 1
787.140625 454.444335938 m 1
 787.140625 454.444335938 l 1
777.973632812 462.22265625 m 1
 777.973632812 462.22265625 l 1
472.418945312 485.27734375 m 1
 472.418945312 485.27734375 l 1
481.584960938 491.388671875 m 1
 481.584960938 491.388671875 l 1
EndSplineSet
Validated: 33
EndChar

StartChar: NameMe.3712
Encoding: 3712 57970 511
Width: 750
VWidth: 0
Flags: W
HStem: -116.669 27.709<423.765 586.079> 230.277 138.89<238.694 339.232> 688.889 26.7646<422.604 602.053>
VStem: 100 25.0742<209.67 382.926> 219.519 138.889<249.453 349.991> 455.719 27.9639<198.917 374.487>
LayerCount: 4
Fore
SplineSet
483.685546875 288.055664062 m 0
 483.68359375 287.673828125 483.682617188 287.055664062 483.682617188 286.673828125 c 0
 483.682617188 194.290039062 538.563476562 68.2236328125 606.185546875 5.27734375 c 0
 648.743164062 -34.453125 623.231445312 -107.672851562 569.518554688 -113.055664062 c 0
 554.66015625 -115.05078125 530.434570312 -116.668945312 515.443359375 -116.668945312 c 0
 515.034179688 -116.668945312 514.372070312 -116.66796875 513.962890625 -116.666992188 c 0
 290.96875 -114.510742188 105.545898438 68.1728515625 100.07421875 291.111328125 c 0
 100.033203125 293.284179688 100 296.813476562 100 298.987304688 c 0
 100 528.987304688 286.666015625 715.653320312 516.666015625 715.653320312 c 0
 539.1328125 715.653320312 575.254882812 712.125 597.296875 707.77734375 c 0
 648.973632812 696.889648438 670.669921875 624.255859375 626.741210938 588.611328125 c 0
 547.774414062 524.590820312 483.685546875 390.126953125 483.685546875 288.46875 c 0
 483.685546875 288.354492188 483.685546875 288.169921875 483.685546875 288.055664062 c 0
597.296875 -58.611328125 m 0
 598.500976562 -54.986328125 599.478515625 -48.943359375 599.478515625 -45.1240234375 c 0
 599.478515625 -34.74609375 593.274414062 -20.62890625 585.629882812 -13.611328125 c 0
 513.918945312 54.4130859375 455.71875 189.841796875 455.71875 288.684570312 c 0
 455.71875 397.499023438 523.999023438 541.821289062 608.129882812 610.833007812 c 0
 616.090820312 617.232421875 622.551757812 630.71484375 622.551757812 640.928710938 c 0
 622.551757812 661.349609375 606.797851562 678.025390625 589.796875 681.388671875 c 0
 569.069335938 685.508789062 535.095703125 688.869140625 513.962890625 688.888671875 c 2
 504.518554688 688.888671875 l 1
 294.2734375 681.182617188 123.1953125 503.752929688 125.07421875 291.666992188 c 0
 129.671875 77.1708984375 305.984375 -88.9599609375 521.352539062 -88.9599609375 c 0
 533.614257812 -88.9599609375 553.450195312 -87.80859375 565.629882812 -86.388671875 c 0
 579.518554688 -84.591796875 593.705078125 -72.1474609375 597.296875 -58.611328125 c 0
219.518554688 299.72265625 m 0
 219.518554688 338.075195312 250.610351562 369.166992188 288.962890625 369.166992188 c 0
 327.31640625 369.166992188 358.407226562 338.075195312 358.407226562 299.72265625 c 0
 358.407226562 261.369140625 327.31640625 230.27734375 288.962890625 230.27734375 c 0
 250.610351562 230.27734375 219.518554688 261.369140625 219.518554688 299.72265625 c 0
EndSplineSet
Validated: 33
EndChar

StartChar: NameMe.3808
Encoding: 3808 57972 512
Width: 973
VWidth: 0
Flags: W
HStem: -115 27.7773<277.222 705.557> 688.889 27.7783<133.334 840>
LayerCount: 4
Fore
SplineSet
728.888671875 -115 m 1
 254.166015625 -115 l 1
 100 716.666992188 l 1
 873.056640625 716.666992188 l 1
 728.888671875 -115 l 1
277.221679688 -87.22265625 m 1
 705.556640625 -87.22265625 l 1
 840 688.888671875 l 1
 133.333984375 688.888671875 l 1
 277.221679688 -87.22265625 l 1
EndSplineSet
Validated: 1
EndChar

StartChar: NameMe.3904
Encoding: 3904 57977 513
Width: 958
VWidth: 0
Flags: W
VStem: 465.556 27.7773<-116.667 -40 -0.833008 313.333 351.944 716.667>
LayerCount: 4
Fore
SplineSet
858.888671875 325.555664062 m 1
 493.333007812 -40 l 1
 493.333007812 -116.666992188 l 1
 465.555664062 -116.666992188 l 1
 465.555664062 -40 l 1
 100 325.555664062 l 1
 119.721679688 345 l 1
 465.555664062 -0.8330078125 l 1
 465.555664062 314.166992188 l 1
 464.721679688 313.333007812 l 1
 248.055664062 530.27734375 l 1
 267.77734375 549.72265625 l 1
 465.555664062 351.944335938 l 1
 465.555664062 716.666992188 l 1
 493.333007812 716.666992188 l 1
 493.333007812 346.111328125 l 1
 693.333007812 546.111328125 l 1
 713.055664062 526.388671875 l 1
 500 313.333007812 l 1
 493.333007812 320.27734375 l 1
 493.333007812 -0.8330078125 l 1
 839.166992188 345 l 1
 858.888671875 325.555664062 l 1
EndSplineSet
Validated: 1
EndChar

StartChar: NameMe.4000
Encoding: 4000 57980 514
Width: 633
VWidth: 0
Flags: W
LayerCount: 4
Fore
SplineSet
118.887695312 -116.388671875 m 1
 100 -96.111328125 l 1
 481.666015625 258.333007812 l 1
 142.22265625 393.333007812 l 1
 498.0546875 716.111328125 l 1
 516.666015625 695.555664062 l 1
 193.887695312 402.77734375 l 1
 533.0546875 267.77734375 l 1
 118.887695312 -116.388671875 l 1
EndSplineSet
Validated: 1
EndChar

StartChar: NameMe.4096
Encoding: 4096 57982 515
Width: 770
VWidth: 0
Flags: W
HStem: -113.629 28.0576<252.418 535.425> 342.588 28.1328<309.36 370.316 398.371 485.967> 688.958 27.7803<523.715 586.148>
VStem: 100 28.8857<48.0837 190.487> 370.316 28.0547<370.556 514.848> 642.953 27.2461<61.3918 203.807>
LayerCount: 4
Fore
SplineSet
669.483398438 152.5 m 0
 669.87890625 147.150390625 670.19921875 138.454101562 670.19921875 133.08984375 c 0
 670.19921875 130.549804688 670.126953125 126.427734375 670.0390625 123.888671875 c 0
 667.2265625 58.8994140625 626.78125 -30.3271484375 579.760742188 -75.27734375 c 0
 553.72265625 -98.126953125 504.474609375 -116.670898438 469.83203125 -116.670898438 c 0
 469.505859375 -116.670898438 468.9765625 -116.668945312 468.6484375 -116.666992188 c 0
 466.818359375 -116.734375 463.84375 -116.790039062 462.010742188 -116.790039062 c 0
 458.702148438 -116.790039062 453.338867188 -116.610351562 450.0390625 -116.388671875 c 0
 425.443359375 -114.393554688 385.453125 -112.775390625 360.77734375 -112.775390625 c 0
 348.916015625 -112.775390625 329.66796875 -113.149414062 317.81640625 -113.611328125 c 0
 317.07421875 -113.62109375 315.873046875 -113.62890625 315.1328125 -113.62890625 c 0
 267.91015625 -113.62890625 203.034179688 -85.994140625 170.31640625 -51.9443359375 c 0
 131.501953125 -12.732421875 100 63.8701171875 100 119.043945312 c 0
 100 120.227539062 100.017578125 122.149414062 100.0390625 123.333007812 c 0
 101.983398438 225.27734375 168.09375 309.72265625 277.5390625 349.166992188 c 0
 302.439453125 357.932617188 344.00390625 366.767578125 370.31640625 368.888671875 c 0
 370.31640625 431.944335938 372.5390625 582.77734375 453.6484375 663.888671875 c 0
 482.763671875 693.061523438 539.842773438 716.73828125 581.057617188 716.73828125 c 0
 582.463867188 716.73828125 584.745117188 716.706054688 586.1484375 716.666992188 c 2
 586.1484375 688.888671875 l 2
 584.8828125 688.926757812 582.827148438 688.958007812 581.560546875 688.958007812 c 0
 546.58203125 688.958007812 498.11328125 668.891601562 473.37109375 644.166992188 c 0
 401.427734375 572.22265625 398.37109375 426.111328125 398.37109375 370.555664062 c 1
 401.166992188 370.646484375 405.705078125 370.720703125 408.501953125 370.720703125 c 0
 456.983398438 370.720703125 529.849609375 350.11328125 571.1484375 324.72265625 c 0
 623.037109375 291.319335938 667.08984375 214.163085938 669.483398438 152.5 c 0
561.427734375 -55 m 0
 603.2265625 -14.9716796875 639.565429688 64.423828125 642.5390625 122.22265625 c 0
 642.767578125 126.051757812 642.953125 132.274414062 642.953125 136.111328125 c 0
 642.953125 139.948242188 642.767578125 146.169921875 642.5390625 150 c 0
 640.462890625 203.875976562 602.009765625 271.32421875 556.705078125 300.555664062 c 0
 516.549804688 323.7578125 446.3203125 342.587890625 399.9453125 342.587890625 c 0
 368.022460938 342.587890625 317.913085938 333.33984375 288.09375 321.944335938 c 0
 188.37109375 286.111328125 130.59375 213.333007812 128.927734375 121.944335938 c 0
 128.904296875 120.7734375 128.885742188 118.873046875 128.885742188 117.702148438 c 0
 128.885742188 68.9951171875 156.655273438 1.3310546875 190.87109375 -33.3330078125 c 0
 218.952148438 -62.1689453125 274.40625 -85.5712890625 314.655273438 -85.5712890625 c 0
 315.296875 -85.5712890625 316.33984375 -85.564453125 316.983398438 -85.5556640625 c 2
 372.5390625 -85.5556640625 l 2
 375.052734375 -85.525390625 379.1328125 -85.501953125 381.646484375 -85.501953125 c 0
 401.5625 -85.501953125 433.8203125 -87.0185546875 453.6484375 -88.888671875 c 0
 458.00390625 -89.388671875 465.096679688 -89.7939453125 469.479492188 -89.7939453125 c 0
 498.491210938 -89.7939453125 539.68359375 -74.2060546875 561.427734375 -55 c 0
EndSplineSet
Validated: 1
EndChar

StartChar: NameMe.4192
Encoding: 4192 57984 516
Width: 1033
VWidth: 0
Flags: W
HStem: 687.5 27.7773<100 502.778 530.556 933.334>
VStem: 502.778 27.7773<-116.667 687.5>
LayerCount: 4
Fore
SplineSet
933.333984375 715.27734375 m 1
 933.333984375 687.5 l 1
 530.555664062 687.5 l 1
 530.555664062 -116.666992188 l 1
 502.778320312 -116.666992188 l 1
 502.778320312 687.5 l 1
 100 687.5 l 1
 100 715.27734375 l 1
 933.333984375 715.27734375 l 1
EndSplineSet
Validated: 1
EndChar

StartChar: NameMe.4288
Encoding: 4288 57986 517
Width: 752
VWidth: 0
Flags: W
HStem: 320.833 27.7783<152.223 362.223 390 596.667>
VStem: 362.223 27.7773<-116.667 -15 33.0557 320.833 348.611 716.667>
LayerCount: 4
Fore
SplineSet
652.22265625 348.611328125 m 1
 390 -15 l 1
 390 -116.666992188 l 1
 362.22265625 -116.666992188 l 1
 362.22265625 -14.4443359375 l 1
 100 348.611328125 l 1
 362.22265625 348.611328125 l 1
 362.22265625 716.666992188 l 1
 390 716.666992188 l 1
 390 348.611328125 l 1
 652.22265625 348.611328125 l 1
596.666992188 320.833007812 m 1
 390 320.833007812 l 1
 390 32.5 l 1
 596.666992188 320.833007812 l 1
152.22265625 320.833007812 m 1
 362.22265625 33.0556640625 l 1
 362.22265625 320.833007812 l 1
 152.22265625 320.833007812 l 1
EndSplineSet
Validated: 1
EndChar

StartChar: NameMe.4384
Encoding: 4384 57988 518
Width: 1001
VWidth: 0
Flags: W
HStem: -112.777 27.5<412.943 486.943 514.721 588.807> 272.223 27.7773<128.332 350.667 650.71 873.055> 659.444 29.4443<410.345 486.943 514.721 591.319>
VStem: 100 28.332<197.568 272.223 300 378.465> 486.943 27.7773<-85.2773 138.879 435.288 659.444> 873.055 28.6094<196.923 272.223 300 378.002>
LayerCount: 4
Fore
SplineSet
500.83203125 688.888671875 m 0
 722.091796875 688.583007812 901.6640625 508.760742188 901.6640625 287.5 c 0
 901.6640625 287.423828125 901.6640625 287.298828125 901.6640625 287.22265625 c 0
 901.206054688 66.421875 721.6328125 -112.77734375 500.83203125 -112.77734375 c 0
 279.573242188 -112.77734375 100 66.7958984375 100 288.055664062 c 0
 100 509.315429688 279.572265625 688.888671875 500.83203125 688.888671875 c 0
873.33203125 300 m 2
 870.578125 376.407226562 826.02734375 483.802734375 773.88671875 539.72265625 c 2
 617.499023438 383.333007812 l 2
 634.556640625 363.432617188 650.361328125 326.099609375 652.776367188 300 c 2
 873.33203125 300 l 2
514.720703125 659.444335938 m 2
 514.443359375 437.22265625 l 2
 540.291992188 435.0078125 577.625 419.950195312 597.776367188 403.611328125 c 2
 754.1640625 560 l 2
 698.310546875 612.083984375 591.0390625 656.635742188 514.720703125 659.444335938 c 2
486.943359375 659.444335938 m 2
 410.65625 656.700195312 303.38671875 612.2734375 247.499023438 560.27734375 c 2
 403.609375 403.611328125 l 2
 423.76171875 419.950195312 461.09375 435.0078125 486.943359375 437.22265625 c 2
 486.943359375 659.444335938 l 2
227.776367188 540.555664062 m 2
 175.46484375 484.440429688 130.9140625 376.671875 128.33203125 300 c 2
 348.88671875 300 l 2
 351.302734375 326.099609375 367.107421875 363.432617188 384.1640625 383.333007812 c 2
 227.776367188 540.555664062 l 2
128.33203125 272.22265625 m 2
 131.30859375 196.16796875 175.861328125 89.2705078125 227.776367188 33.611328125 c 2
 383.88671875 188.888671875 l 2
 366.828125 208.7890625 351.025390625 246.123046875 348.609375 272.22265625 c 2
 128.33203125 272.22265625 l 2
486.943359375 -85.27734375 m 2
 487.220703125 136.944335938 l 2
 461.37109375 139.158203125 424.0390625 154.215820312 403.88671875 170.555664062 c 2
 247.499023438 14.1669921875 l 2
 303.353515625 -37.91796875 410.624023438 -82.46875 486.943359375 -85.27734375 c 2
514.720703125 -85.27734375 m 2
 591.127929688 -82.525390625 698.5234375 -37.9736328125 754.443359375 14.1669921875 c 2
 598.0546875 170.555664062 l 2
 577.90234375 154.215820312 540.569335938 139.158203125 514.720703125 136.944335938 c 2
 514.720703125 -85.27734375 l 2
773.88671875 33.611328125 m 2
 825.71484375 89.3037109375 870.140625 196.201171875 873.0546875 272.22265625 c 2
 652.776367188 272.22265625 l 2
 650.361328125 246.123046875 634.556640625 208.7890625 617.499023438 188.888671875 c 2
 773.88671875 33.611328125 l 2
375.83203125 287.22265625 m 0
 375.83203125 127.953125 625.83203125 128.76953125 625.83203125 287.22265625 c 0
 625.83203125 355.18359375 569.8671875 410.27734375 500.83203125 410.27734375 c 0
 431.796875 410.27734375 375.83203125 355.18359375 375.83203125 287.22265625 c 0
EndSplineSet
Validated: 33
EndChar

StartChar: NameMe.4480
Encoding: 4480 57992 519
Width: 1033
VWidth: 0
Flags: W
HStem: -116.667 27.7783<127.778 905.556> 185.556 27.7773<361.944 670.834> 355.556 27.7773<127.778 334.444 698.611 905.556>
VStem: 100 27.7783<-88.8887 355.556> 334.444 27.5<213.333 355.556> 670.834 27.7773<213.333 355.556> 905.556 27.7783<-88.8887 355.556>
LayerCount: 4
Fore
SplineSet
933.333984375 -116.666992188 m 1
 100 -116.666992188 l 1
 100 383.333007812 l 1
 361.944335938 383.333007812 l 1
 361.944335938 213.333007812 l 1
 670.833984375 213.333007812 l 1
 670.833984375 383.333007812 l 1
 933.333984375 383.333007812 l 1
 933.333984375 -116.666992188 l 1
127.778320312 -88.888671875 m 1
 905.555664062 -88.888671875 l 1
 905.555664062 355.555664062 l 1
 698.611328125 355.555664062 l 1
 698.611328125 185.555664062 l 1
 334.444335938 185.555664062 l 1
 334.444335938 355.555664062 l 1
 127.778320312 355.555664062 l 1
 127.778320312 -88.888671875 l 1
EndSplineSet
Validated: 1
EndChar

StartChar: NameMe.4576
Encoding: 4576 57995 520
Width: 1030
VWidth: 75
Flags: W
HStem: -118.86 29.9727<137.671 200.425 831.178 894.117> -5.55469 26.6943<139.661 182.421 835.151 891.156> 73.0107 25.0449<308.034 367.038 657.241 723.034> 129.282 27.6621<481.566 542.985> 181.39 28.9531<306.514 368.832 663.719 716.426> 240.277 28.8896<481.227 543.582>
VStem: 100 27.0352<-77.5187 -17.0329> 210.369 29.6309<-77.6592 -16.1165> 267.326 28.5898<112.656 170.096> 379.25 26.9727<109.566 139.723 140 155.931> 442.305 28.334<196.468 229.449> 553.973 27.2207<196.468 228.293> 621.035 27.6582<104.759 153.468> 732.027 27.7793<105.936 165.132> 791.99 28.9258<-79.4076 -16.5612> 904.25 26.0742<-76.5793 -17.8553>
LayerCount: 4
Fore
SplineSet
862.583984375 22.22265625 m 2
 861.193359375 21.388671875 l 2
 899.353515625 21.3681640625 930.32421875 -9.6181640625 930.32421875 -47.77734375 c 0
 930.32421875 -85.9580078125 899.337890625 -116.944335938 861.15625 -116.944335938 c 0
 822.9765625 -116.944335938 791.990234375 -85.9580078125 791.990234375 -47.77734375 c 0
 791.990234375 -32.8369140625 800.220703125 -11.8056640625 810.361328125 -0.8330078125 c 2
 795.916015625 17.5 l 2
 780.458984375 37.15234375 752.583984375 66.396484375 733.693359375 82.77734375 c 0
 723.193359375 74.28515625 703.70703125 67.392578125 690.201171875 67.392578125 c 0
 652.021484375 67.392578125 621.03515625 98.37890625 621.03515625 136.55859375 c 0
 621.03515625 140.62109375 621.728515625 147.140625 622.583984375 151.111328125 c 0
 609.171875 156.173828125 586.896484375 162.645507812 572.861328125 165.555664062 c 0
 562.09765625 145.533203125 534.9140625 129.282226562 512.181640625 129.282226562 c 0
 488.50390625 129.282226562 460.80859375 146.528320312 450.361328125 167.77734375 c 0
 437.556640625 165.461914062 417.146484375 160.235351562 404.8046875 156.111328125 c 0
 405.587890625 152.305664062 406.22265625 146.0625 406.22265625 142.177734375 c 0
 406.22265625 103.997070312 375.236328125 73.0107421875 337.056640625 73.0107421875 c 0
 321.982421875 73.0107421875 300.814453125 81.3681640625 289.8046875 91.6669921875 c 0
 265.0390625 71.3740234375 229.447265625 34.041015625 210.361328125 8.3330078125 c 1
 226.72265625 -3.212890625 240 -28.8349609375 240 -48.8603515625 c 0
 240 -87.5 208.640625 -118.860351562 170 -118.860351562 c 0
 131.361328125 -118.860351562 100 -87.5 100 -48.8603515625 c 0
 100 -10.2197265625 131.361328125 21.1396484375 170 21.1396484375 c 0
 173.501953125 21.1396484375 179.138671875 20.62890625 182.583984375 20 c 0
 203.755859375 49.7958984375 243.828125 92.853515625 272.02734375 116.111328125 c 0
 269.431640625 122.786132812 267.326171875 134.014648438 267.326171875 141.17578125 c 0
 267.326171875 179.356445312 298.3125 210.342773438 336.4921875 210.342773438 c 0
 355.5390625 210.342773438 380.294921875 197.993164062 391.75 182.77734375 c 0
 405.43359375 187.483398438 428.08203125 193.45703125 442.3046875 196.111328125 c 0
 442.3046875 197.22265625 442.3046875 161.388671875 442.3046875 199.72265625 c 0
 442.3046875 238.055664062 473.416015625 269.166992188 511.75 269.166992188 c 0
 550.083984375 269.166992188 581.193359375 238.055664062 581.193359375 199.72265625 c 0
 581.193359375 197.5 581.193359375 195.555664062 581.193359375 193.333007812 c 0
 596.33203125 190.119140625 620.349609375 183.025390625 634.8046875 177.5 c 0
 646.244140625 193.145507812 671.2578125 205.842773438 690.638671875 205.842773438 c 0
 728.818359375 205.842773438 759.806640625 174.856445312 759.806640625 136.67578125 c 0
 759.806640625 136.596679688 759.806640625 136.467773438 759.8046875 136.388671875 c 0
 759.7578125 127.38671875 756.3984375 113.573242188 752.3046875 105.555664062 c 0
 772.740234375 87.958984375 802.85546875 56.474609375 819.52734375 35.27734375 c 2
 834.8046875 16.111328125 l 2
 842.115234375 19.4150390625 854.560546875 22.1533203125 862.583984375 22.22265625 c 2
210.361328125 -48.0556640625 m 0
 210.365234375 -47.8251953125 210.369140625 -47.451171875 210.369140625 -47.2216796875 c 0
 210.369140625 -24.369140625 191.82421875 -5.703125 168.97265625 -5.5556640625 c 0
 168.8984375 -5.5546875 168.77734375 -5.5546875 168.703125 -5.5546875 c 0
 145.703125 -5.5546875 127.03515625 -24.2216796875 127.03515625 -47.2216796875 c 0
 127.03515625 -70.2216796875 145.703125 -88.8876953125 168.703125 -88.8876953125 c 0
 191.24609375 -88.8876953125 209.91015625 -70.5947265625 210.361328125 -48.0556640625 c 0
379.25 139.72265625 m 2
 379.52734375 140 l 2
 379.375 162.84765625 360.708984375 181.389648438 337.861328125 181.389648438 c 0
 337.78515625 181.389648438 337.66015625 181.389648438 337.583984375 181.388671875 c 0
 314.583984375 181.388671875 295.916015625 162.72265625 295.916015625 139.72265625 c 0
 295.916015625 116.72265625 314.583984375 98.0556640625 337.583984375 98.0556640625 c 0
 360.583984375 98.0556640625 379.25 116.72265625 379.25 139.72265625 c 2
470.638671875 198.611328125 m 2
 470.638671875 198.888671875 l 2
 470.638671875 198.8125 470.638671875 198.6875 470.638671875 198.611328125 c 0
 470.638671875 175.611328125 489.3046875 156.944335938 512.3046875 156.944335938 c 0
 535.3046875 156.944335938 553.97265625 175.611328125 553.97265625 198.611328125 c 0
 553.97265625 221.611328125 535.3046875 240.27734375 512.3046875 240.27734375 c 0
 489.3046875 240.27734375 470.638671875 221.611328125 470.638671875 198.611328125 c 2
690.361328125 93.611328125 m 2
 690.361328125 93.888671875 l 2
 713.208984375 93.888671875 731.875 112.430664062 732.02734375 135.27734375 c 0
 732.02734375 158.27734375 713.361328125 176.944335938 690.361328125 176.944335938 c 0
 667.361328125 176.944335938 648.693359375 158.27734375 648.693359375 135.27734375 c 0
 648.693359375 112.27734375 667.361328125 93.611328125 690.361328125 93.611328125 c 2
862.583984375 -89.72265625 m 2
 862.583984375 -88.888671875 l 2
 862.5859375 -88.888671875 862.58984375 -88.888671875 862.591796875 -88.888671875 c 0
 885.13671875 -88.888671875 903.798828125 -70.595703125 904.25 -48.0556640625 c 0
 904.25 -25.0556640625 885.583984375 -6.388671875 862.583984375 -6.388671875 c 0
 839.583984375 -6.388671875 820.916015625 -25.0556640625 820.916015625 -48.0556640625 c 0
 820.916015625 -71.0556640625 839.583984375 -89.72265625 862.583984375 -89.72265625 c 2
EndSplineSet
Validated: 5
EndChar

StartChar: NameMe.4577
Encoding: 4577 57996 521
Width: 1032
VWidth: 0
Flags: W
HStem: -116.389 26.9404<139.869 199.074 833.123 893.079> -5.55566 26.9736<139.661 182.42 835.707 893.1> 67.9482 25.9395<313.174 363.38 662.168 721.53> 129.838 27.3848<483.094 543.98> 177.223 28.6201<660.605 721.88> 240.556 28.6113<482.531 544.222>
VStem: 100 27.8691<-77.7207 -16.5554> 211.202 28.7979<-77.3809 -16.3842> 268.693 28.0557<115.589 169.734> 324.249 27.7783<204.043 615> 380.083 28.7285<108.884 156.451> 443.139 28.6104<196.746 229.727> 555.083 26.9443<196.746 228.293> 622.979 26.8262<105.517 153.885> 733.139 27.5<105.936 165.132> 793.935 27.5371<-77.2004 -48.0557 -47.7773 -17.6208> 905.36 26.9072<-77.5674 -17.4388>
LayerCount: 4
Fore
SplineSet
863.138671875 22.22265625 m 2
 863.138671875 21.9443359375 l 2
 901.297851562 21.923828125 932.267578125 -9.0625 932.267578125 -47.22265625 c 0
 932.267578125 -85.40234375 901.28125 -116.388671875 863.100585938 -116.388671875 c 0
 824.920898438 -116.388671875 793.934570312 -85.40234375 793.934570312 -47.22265625 c 0
 793.934570312 -32.28125 802.1640625 -11.25 812.3046875 -0.27734375 c 2
 797.860351562 18.0556640625 l 2
 782.404296875 37.708984375 754.528320312 66.953125 735.638671875 83.3330078125 c 0
 725.13671875 74.8408203125 705.651367188 67.9482421875 692.145507812 67.9482421875 c 0
 653.965820312 67.9482421875 622.978515625 98.9345703125 622.978515625 137.114257812 c 0
 622.978515625 141.176757812 623.672851562 147.6953125 624.52734375 151.666992188 c 0
 611.116210938 156.729492188 588.840820312 163.201171875 574.8046875 166.111328125 c 0
 564.041992188 146.088867188 536.858398438 129.837890625 514.125976562 129.837890625 c 0
 490.448242188 129.837890625 462.751953125 147.083984375 452.3046875 168.333007812 c 0
 439.5 166.017578125 419.090820312 160.791015625 406.749023438 156.666992188 c 0
 407.887695312 152.109375 408.811523438 144.599609375 408.811523438 139.90234375 c 0
 408.811523438 101.72265625 377.825195312 70.736328125 339.64453125 70.736328125 c 0
 323.3984375 70.736328125 301.0703125 80.2373046875 289.8046875 91.9443359375 c 0
 265.038085938 71.65234375 229.447265625 34.318359375 210.360351562 8.611328125 c 1
 226.721679688 -2.9345703125 240 -28.5576171875 240 -48.58203125 c 0
 240 -87.2216796875 208.640625 -118.58203125 170 -118.58203125 c 0
 131.360351562 -118.58203125 100 -87.2216796875 100 -48.58203125 c 0
 100 -9.9423828125 131.360351562 21.41796875 170 21.41796875 c 0
 173.501953125 21.41796875 179.138671875 20.9072265625 182.583007812 20.27734375 c 0
 204.17578125 49.8212890625 244.869140625 92.3818359375 273.416015625 115.27734375 c 0
 270.844726562 121.859375 268.729492188 132.934570312 268.693359375 140 c 0
 268.693359375 140.00390625 268.693359375 140.010742188 268.693359375 140.014648438 c 0
 268.693359375 171.313476562 293.583007812 201.795898438 324.249023438 208.055664062 c 2
 324.249023438 615 l 1
 352.02734375 615 l 1
 352.02734375 208.888671875 l 2
 365.889648438 205.827148438 384.05859375 194.129882812 392.583007812 182.77734375 c 0
 406.265625 187.483398438 428.9140625 193.45703125 443.138671875 196.111328125 c 0
 443.138671875 197.22265625 443.138671875 161.388671875 443.138671875 199.72265625 c 0
 443.138671875 238.055664062 474.249023438 269.166992188 512.583007812 269.166992188 c 0
 550.916015625 269.166992188 582.02734375 238.055664062 582.02734375 199.72265625 c 0
 582.02734375 197.5 582.02734375 195.555664062 582.02734375 193.333007812 c 0
 597.165039062 190.120117188 621.18359375 183.026367188 635.638671875 177.5 c 0
 647.077148438 193.145507812 672.090820312 205.842773438 691.471679688 205.842773438 c 0
 729.65234375 205.842773438 760.638671875 174.856445312 760.638671875 136.67578125 c 0
 760.638671875 136.596679688 760.638671875 136.467773438 760.638671875 136.388671875 c 0
 760.590820312 127.38671875 757.231445312 113.573242188 753.138671875 105.555664062 c 0
 773.1953125 87.7587890625 802.688476562 56.025390625 818.971679688 34.72265625 c 2
 835.360351562 16.111328125 l 2
 842.670898438 19.4150390625 855.115234375 22.1533203125 863.138671875 22.22265625 c 2
211.193359375 -48.0556640625 m 0
 211.198242188 -47.8251953125 211.202148438 -47.4521484375 211.202148438 -47.22265625 c 0
 211.202148438 -24.22265625 192.53515625 -5.5556640625 169.53515625 -5.5556640625 c 0
 169.533203125 -5.5556640625 169.529296875 -5.5556640625 169.52734375 -5.5556640625 c 0
 146.53125 -5.560546875 127.869140625 -24.2265625 127.869140625 -47.22265625 c 0
 127.869140625 -70.22265625 146.53515625 -88.888671875 169.53515625 -88.888671875 c 0
 192.080078125 -88.888671875 210.743164062 -70.595703125 211.193359375 -48.0556640625 c 0
380.083007812 139.72265625 m 2
 380.083007812 140 l 2
 379.930664062 162.846679688 361.263671875 181.388671875 338.416992188 181.388671875 c 0
 338.416992188 181.388671875 338.416015625 181.388671875 338.416015625 181.388671875 c 0
 315.416015625 181.388671875 296.749023438 162.72265625 296.749023438 139.72265625 c 0
 296.749023438 116.72265625 315.416015625 98.0556640625 338.416015625 98.0556640625 c 0
 361.416015625 98.0556640625 380.083007812 116.72265625 380.083007812 139.72265625 c 2
513.416015625 157.22265625 m 0
 536.416015625 157.22265625 555.083007812 175.888671875 555.083007812 198.888671875 c 0
 555.083007812 221.888671875 536.416015625 240.555664062 513.416015625 240.555664062 c 0
 490.416015625 240.555664062 471.749023438 221.888671875 471.749023438 198.888671875 c 0
 471.749023438 175.888671875 490.416015625 157.22265625 513.416015625 157.22265625 c 0
691.471679688 93.888671875 m 2
 691.193359375 93.888671875 l 2
 691.270507812 93.888671875 691.39453125 93.8876953125 691.471679688 93.8876953125 c 0
 714.471679688 93.8876953125 733.138671875 112.5546875 733.138671875 135.5546875 c 0
 733.138671875 135.5546875 733.138671875 135.555664062 733.138671875 135.555664062 c 0
 733.138671875 158.555664062 714.471679688 177.22265625 691.471679688 177.22265625 c 0
 668.471679688 177.22265625 649.8046875 158.555664062 649.8046875 135.555664062 c 0
 649.8046875 112.555664062 668.471679688 93.888671875 691.471679688 93.888671875 c 2
822.02734375 -47.77734375 m 2
 821.471679688 -48.0556640625 l 2
 821.622070312 -70.904296875 840.288085938 -89.4482421875 863.137695312 -89.4482421875 c 0
 863.291015625 -89.4482421875 863.540039062 -89.4462890625 863.693359375 -89.4443359375 c 0
 886.693359375 -89.4443359375 905.360351562 -70.77734375 905.360351562 -47.77734375 c 0
 905.360351562 -24.77734375 886.693359375 -6.111328125 863.693359375 -6.111328125 c 0
 840.693359375 -6.111328125 822.02734375 -24.77734375 822.02734375 -47.77734375 c 2
EndSplineSet
Validated: 5
EndChar

StartChar: NameMe.4578
Encoding: 4578 57997 522
Width: 1030
VWidth: 0
Flags: W
HStem: -118.86 29.9863<137.672 200.423 831.178 862.584 863.416 893.964> -5.54102 26.6807<139.661 182.421 835.985 891.156> 73.0107 25.0449<308.034 367.038 657.241 690.361 691.193 723.034> 129.282 27.6621<482.756 542.985> 176.944 28.8984<659.246 721.657>
VStem: 100 27.0371<-77.5119 -17.0261> 210.369 29.6309<-77.6592 -16.1165> 268.693 27.2227<115.589 169.734> 324.25 27.7773<203.623 615> 379.25 26.9727<109.566 139.723 140 155.931> 443.139 28.332<192.376 229.94> 498.693 27.7793<262.932 716.667> 553.973 28.0547<190.217 229.327> 621.035 27.6582<104.759 153.468> 732.027 28.6113<105.936 166.116> 791.99 28.9258<-79.4076 -16.5612> 904.25 26.0742<-76.7576 -17.8553>
LayerCount: 4
Fore
SplineSet
863.416015625 22.22265625 m 2
 861.193359375 21.388671875 l 2
 899.353515625 21.3681640625 930.32421875 -9.6181640625 930.32421875 -47.77734375 c 0
 930.32421875 -85.9580078125 899.337890625 -116.944335938 861.15625 -116.944335938 c 0
 822.9765625 -116.944335938 791.990234375 -85.9580078125 791.990234375 -47.77734375 c 0
 791.990234375 -32.8369140625 800.220703125 -11.8056640625 810.361328125 -0.8330078125 c 2
 795.916015625 17.5 l 2
 780.458984375 37.15234375 752.583984375 66.396484375 733.693359375 82.77734375 c 0
 723.193359375 74.28515625 703.70703125 67.392578125 690.201171875 67.392578125 c 0
 652.021484375 67.392578125 621.03515625 98.37890625 621.03515625 136.55859375 c 0
 621.03515625 140.62109375 621.728515625 147.140625 622.583984375 151.111328125 c 0
 609.171875 156.173828125 586.896484375 162.645507812 572.861328125 165.555664062 c 0
 562.09765625 145.533203125 534.9140625 129.282226562 512.181640625 129.282226562 c 0
 488.50390625 129.282226562 460.80859375 146.528320312 450.361328125 167.77734375 c 0
 437.556640625 165.461914062 417.146484375 160.235351562 404.8046875 156.111328125 c 0
 405.587890625 152.305664062 406.22265625 146.0625 406.22265625 142.177734375 c 0
 406.22265625 103.997070312 375.236328125 73.0107421875 337.056640625 73.0107421875 c 0
 321.982421875 73.0107421875 300.814453125 81.3681640625 289.8046875 91.6669921875 c 0
 265.0390625 71.3740234375 229.447265625 34.041015625 210.361328125 8.3330078125 c 1
 226.72265625 -3.212890625 240 -28.8349609375 240 -48.8603515625 c 0
 240 -87.5 208.640625 -118.860351562 170 -118.860351562 c 0
 131.361328125 -118.860351562 100 -87.5 100 -48.8603515625 c 0
 100 -10.2197265625 131.361328125 21.1396484375 170 21.1396484375 c 0
 173.501953125 21.1396484375 179.138671875 20.62890625 182.583984375 20 c 0
 204.162109375 49.6259765625 244.853515625 92.310546875 273.416015625 115.27734375 c 0
 270.845703125 121.859375 268.73046875 132.934570312 268.693359375 140 c 0
 268.693359375 140.00390625 268.693359375 140.010742188 268.693359375 140.014648438 c 0
 268.693359375 171.313476562 293.583984375 201.795898438 324.25 208.055664062 c 2
 324.25 615 l 1
 352.02734375 615 l 1
 352.02734375 208.055664062 l 2
 365.890625 204.994140625 384.05859375 193.296875 392.583984375 181.944335938 c 0
 406.265625 186.650390625 428.9140625 192.623046875 443.138671875 195.27734375 c 0
 443.138671875 196.388671875 443.138671875 198.884765625 443.138671875 198.888671875 c 0
 443.138671875 198.892578125 443.138671875 198.899414062 443.138671875 198.903320312 c 0
 443.138671875 230.202148438 468.02734375 260.684570312 498.693359375 266.944335938 c 2
 498.693359375 716.666992188 l 1
 526.47265625 716.666992188 l 1
 526.47265625 267.5 l 2
 557.01953125 261.264648438 581.91015625 230.900390625 582.02734375 199.72265625 c 0
 582.02734375 197.5 582.02734375 195.555664062 582.02734375 193.333007812 c 0
 597.166015625 190.119140625 621.18359375 183.025390625 635.638671875 177.5 c 0
 647.078125 193.145507812 672.091796875 205.842773438 691.47265625 205.842773438 c 0
 729.65234375 205.842773438 760.638671875 174.856445312 760.638671875 136.67578125 c 0
 760.638671875 136.596679688 760.638671875 136.467773438 760.638671875 136.388671875 c 0
 760.591796875 127.38671875 757.232421875 113.573242188 753.138671875 105.555664062 c 0
 773.57421875 87.958984375 803.689453125 56.474609375 820.361328125 35.27734375 c 2
 835.638671875 16.111328125 l 2
 842.94921875 19.4150390625 855.39453125 22.1533203125 863.416015625 22.22265625 c 2
210.361328125 -48.0556640625 m 0
 210.365234375 -47.8212890625 210.369140625 -47.44140625 210.369140625 -47.2080078125 c 0
 210.369140625 -24.80859375 192.197265625 -6.1484375 169.8046875 -5.5556640625 c 0
 169.501953125 -5.5478515625 169.0078125 -5.541015625 168.703125 -5.541015625 c 0
 145.703125 -5.541015625 127.037109375 -24.2080078125 127.037109375 -47.2080078125 c 0
 127.037109375 -70.2080078125 145.703125 -88.8740234375 168.703125 -88.8740234375 c 0
 191.240234375 -88.8740234375 209.90234375 -70.587890625 210.361328125 -48.0556640625 c 0
379.25 139.72265625 m 2
 380.361328125 140 l 2
 380.216796875 162.854492188 361.55078125 181.403320312 338.6953125 181.403320312 c 0
 338.388671875 181.403320312 337.890625 181.397460938 337.583984375 181.388671875 c 0
 314.583984375 181.388671875 295.916015625 162.72265625 295.916015625 139.72265625 c 0
 295.916015625 116.72265625 314.583984375 98.0556640625 337.583984375 98.0556640625 c 0
 360.583984375 98.0556640625 379.25 116.72265625 379.25 139.72265625 c 2
470.638671875 198.611328125 m 2
 471.47265625 198.888671875 l 2
 471.470703125 198.809570312 471.470703125 198.681640625 471.470703125 198.602539062 c 0
 471.470703125 176.057617188 489.765625 157.39453125 512.3046875 156.944335938 c 0
 535.3046875 156.944335938 553.97265625 175.611328125 553.97265625 198.611328125 c 0
 553.97265625 221.611328125 535.3046875 240.27734375 512.3046875 240.27734375 c 0
 489.3046875 240.27734375 470.638671875 221.611328125 470.638671875 198.611328125 c 2
690.361328125 93.611328125 m 2
 691.193359375 93.888671875 l 2
 713.58984375 94.3359375 731.8828125 112.87890625 732.02734375 135.27734375 c 0
 732.02734375 158.27734375 713.361328125 176.944335938 690.361328125 176.944335938 c 0
 667.361328125 176.944335938 648.693359375 158.27734375 648.693359375 135.27734375 c 0
 648.693359375 112.27734375 667.361328125 93.611328125 690.361328125 93.611328125 c 2
862.583984375 -89.72265625 m 2
 863.416015625 -88.888671875 l 2
 885.51953125 -88.451171875 903.8125 -70.158203125 904.25 -48.0556640625 c 0
 904.25 -25.0556640625 885.583984375 -6.388671875 862.583984375 -6.388671875 c 0
 839.583984375 -6.388671875 820.916015625 -25.0556640625 820.916015625 -48.0556640625 c 0
 820.916015625 -71.0556640625 839.583984375 -89.72265625 862.583984375 -89.72265625 c 2
EndSplineSet
Validated: 1
EndChar

StartChar: NameMe.4579
Encoding: 4579 57998 523
Width: 1032
VWidth: 0
Flags: W
HStem: -116.389 26.6328<140.916 199.001 833.122 893.077> -5.55566 26.9736<139.931 182.419 836.261 893.099> 67.9482 25.9395<313.875 363.657 662.167 721.528> 129.838 27.3838<483.609 543.705>
VStem: 100 28.4238<-77.7207 -16.5554> 211.756 28.2441<-77.3809 -16.8059> 268.693 28.6113<115.589 170.561> 324.248 27.7773<203.623 615> 380.637 28.1738<109.925 156.451> 443.137 28.8887<192.269 229.94> 498.693 27.7773<262.67 716.667> 555.359 26.666<190.273 228.493> 622.979 27.1035<105.378 153.745> 674.805 27.7773<201.085 635.556> 733.414 27.5<105.628 165.857> 793.934 26.7031<-77.2004 -19.8867> 905.637 26.6289<-77.7066 -18.3384>
LayerCount: 4
Fore
SplineSet
863.693359375 22.22265625 m 2
 863.13671875 21.9443359375 l 2
 901.296875 21.923828125 932.265625 -9.0625 932.265625 -47.22265625 c 0
 932.265625 -85.40234375 901.279296875 -116.388671875 863.099609375 -116.388671875 c 0
 824.919921875 -116.388671875 793.93359375 -85.40234375 793.93359375 -47.22265625 c 0
 793.93359375 -32.28125 802.1640625 -11.25 812.3046875 -0.27734375 c 2
 797.859375 18.0556640625 l 2
 782.40234375 37.7080078125 754.52734375 66.9521484375 735.63671875 83.3330078125 c 0
 725.134765625 74.8408203125 705.650390625 67.9482421875 692.14453125 67.9482421875 c 0
 653.96484375 67.9482421875 622.978515625 98.9345703125 622.978515625 137.114257812 c 0
 622.978515625 141.176757812 623.671875 147.6953125 624.525390625 151.666992188 c 0
 611.115234375 156.729492188 588.83984375 163.201171875 574.8046875 166.111328125 c 0
 564.041015625 146.088867188 536.857421875 129.837890625 514.125 129.837890625 c 0
 490.447265625 129.837890625 462.75 147.083984375 452.3046875 168.333007812 c 0
 439.498046875 166.017578125 419.08984375 160.791015625 406.748046875 156.666992188 c 0
 407.88671875 152.109375 408.810546875 144.599609375 408.810546875 139.90234375 c 0
 408.810546875 101.72265625 377.82421875 70.736328125 339.64453125 70.736328125 c 0
 323.396484375 70.736328125 301.068359375 80.2373046875 289.8046875 91.9443359375 c 0
 265.037109375 71.65234375 229.4453125 34.318359375 210.359375 8.611328125 c 1
 226.720703125 -2.9345703125 240 -28.5576171875 240 -48.58203125 c 0
 240 -87.2216796875 208.638671875 -118.58203125 170 -118.58203125 c 0
 131.359375 -118.58203125 100 -87.2216796875 100 -48.58203125 c 0
 100 -9.9423828125 131.359375 21.41796875 170 21.41796875 c 0
 173.5 21.41796875 179.13671875 20.9072265625 182.58203125 20.27734375 c 0
 204.17578125 49.8212890625 244.869140625 92.3818359375 273.4140625 115.27734375 c 0
 270.84375 121.859375 268.728515625 132.934570312 268.693359375 140 c 0
 268.693359375 140.00390625 268.693359375 140.010742188 268.693359375 140.014648438 c 0
 268.693359375 171.313476562 293.58203125 201.795898438 324.248046875 208.055664062 c 2
 324.248046875 615 l 1
 352.025390625 615 l 1
 352.025390625 208.055664062 l 2
 365.888671875 204.994140625 384.056640625 193.296875 392.58203125 181.944335938 c 0
 406.263671875 186.650390625 428.9140625 192.623046875 443.13671875 195.27734375 c 0
 443.13671875 196.388671875 443.13671875 198.884765625 443.13671875 198.888671875 c 0
 443.13671875 198.892578125 443.13671875 198.899414062 443.13671875 198.903320312 c 0
 443.13671875 230.202148438 468.025390625 260.684570312 498.693359375 266.944335938 c 2
 498.693359375 716.666992188 l 1
 526.470703125 716.666992188 l 1
 526.470703125 266.666992188 l 2
 557.01953125 260.431640625 581.908203125 230.06640625 582.025390625 198.888671875 c 0
 582.025390625 196.666992188 582.025390625 194.72265625 582.025390625 192.5 c 0
 597.1640625 189.286132812 621.181640625 182.192382812 635.63671875 176.666992188 c 0
 643.8515625 187.767578125 661.3984375 199.465820312 674.8046875 202.77734375 c 2
 674.8046875 635.555664062 l 1
 702.58203125 635.555664062 l 1
 702.58203125 204.72265625 l 2
 734.6796875 199.51953125 760.814453125 168.90625 760.9140625 136.388671875 c 0
 760.8671875 127.38671875 757.5078125 113.573242188 753.4140625 105.555664062 c 0
 773.873046875 87.8125 803.98828125 56.0791015625 820.63671875 34.72265625 c 2
 835.9140625 16.111328125 l 2
 843.2265625 19.4150390625 855.669921875 22.1533203125 863.693359375 22.22265625 c 2
211.748046875 -48.0556640625 m 0
 211.751953125 -47.8251953125 211.755859375 -47.4521484375 211.755859375 -47.22265625 c 0
 211.755859375 -24.22265625 193.08984375 -5.5556640625 170.08984375 -5.5556640625 c 0
 170.087890625 -5.5556640625 170.083984375 -5.5556640625 170.08203125 -5.5556640625 c 0
 147.0859375 -5.560546875 128.423828125 -24.2265625 128.423828125 -47.22265625 c 0
 128.423828125 -70.22265625 147.08984375 -88.888671875 170.08984375 -88.888671875 c 0
 192.634765625 -88.888671875 211.296875 -70.595703125 211.748046875 -48.0556640625 c 0
380.63671875 139.72265625 m 2
 380.63671875 140 l 2
 380.484375 162.846679688 361.818359375 181.388671875 338.970703125 181.388671875 c 0
 315.970703125 181.388671875 297.3046875 162.72265625 297.3046875 139.72265625 c 0
 297.3046875 116.72265625 315.970703125 98.0556640625 338.970703125 98.0556640625 c 0
 361.970703125 98.0556640625 380.63671875 116.72265625 380.63671875 139.72265625 c 2
513.693359375 156.944335938 m 2
 513.4140625 157.22265625 l 2
 513.4921875 157.221679688 513.6171875 157.221679688 513.693359375 157.221679688 c 0
 536.541015625 157.221679688 555.20703125 175.763671875 555.359375 198.611328125 c 0
 555.359375 221.611328125 536.693359375 240.27734375 513.693359375 240.27734375 c 0
 490.693359375 240.27734375 472.025390625 221.611328125 472.025390625 198.611328125 c 0
 472.025390625 175.611328125 490.693359375 156.944335938 513.693359375 156.944335938 c 2
691.748046875 93.611328125 m 2
 691.470703125 93.888671875 l 2
 691.546875 93.888671875 691.671875 93.8876953125 691.75 93.8876953125 c 0
 714.59765625 93.8876953125 733.263671875 112.430664062 733.4140625 135.27734375 c 0
 733.4140625 158.27734375 714.748046875 176.944335938 691.748046875 176.944335938 c 0
 668.748046875 176.944335938 650.08203125 158.27734375 650.08203125 135.27734375 c 0
 650.08203125 112.27734375 668.748046875 93.611328125 691.748046875 93.611328125 c 2
822.3046875 -48.0556640625 m 2
 820.63671875 -48.0556640625 l 2
 820.63671875 -48.064453125 820.63671875 -48.080078125 820.63671875 -48.0888671875 c 0
 820.63671875 -71.0888671875 839.3046875 -89.755859375 862.3046875 -89.755859375 c 0
 862.763671875 -89.755859375 863.509765625 -89.740234375 863.970703125 -89.72265625 c 0
 886.970703125 -89.72265625 905.63671875 -71.0556640625 905.63671875 -48.0556640625 c 0
 905.63671875 -25.0556640625 886.970703125 -6.388671875 863.970703125 -6.388671875 c 0
 840.970703125 -6.388671875 822.3046875 -25.0556640625 822.3046875 -48.0556640625 c 2
EndSplineSet
Validated: 1
EndChar

StartChar: NameMe.4580
Encoding: 4580 57999 524
Width: 1030
VWidth: 0
Flags: W
HStem: -118.86 29.9795<137.671 200.423 831.523 894.213> -5.54785 26.6875<139.661 182.419> 73.0107 25.0449<308.033 367.037 657.241 690.36 691.193 723.034> 129.282 27.6621<482.755 542.984>
VStem: 100 27.0352<-77.5151 -17.0293> 210.368 29.6318<-77.6592 -16.1165> 268.416 27.5<115.589 169.734> 323.971 27.7783<203.623 615> 379.249 26.9736<109.566 139.723 140 155.931> 442.86 28.6094<192.376 229.94> 498.416 27.7773<262.67 716.667> 553.971 27.7783<189.22 228.493> 621.034 27.6592<104.759 153.468> 674.526 27.7783<201.085 635.556> 732.026 28.6113<105.127 165.857> 792.335 28.5723<-77.3797 -16.4731> 849.249 27.7773<15.8004 466.667> 904.24 26.4277<-77.2649 -17.0724>
LayerCount: 4
Fore
SplineSet
877.026367188 20 m 2
 906.63671875 13.1796875 930.66796875 -17.0166015625 930.66796875 -47.4013671875 c 0
 930.66796875 -85.58203125 899.681640625 -116.568359375 861.500976562 -116.568359375 c 0
 823.321289062 -116.568359375 792.334960938 -85.58203125 792.334960938 -47.4013671875 c 0
 792.334960938 -32.623046875 800.41015625 -11.7607421875 810.360351562 -0.8330078125 c 2
 795.916015625 17.5 l 2
 780.458007812 37.15234375 752.583007812 66.396484375 733.693359375 82.77734375 c 0
 723.19140625 74.28515625 703.70703125 67.392578125 690.201171875 67.392578125 c 0
 652.020507812 67.392578125 621.034179688 98.37890625 621.034179688 136.55859375 c 0
 621.034179688 140.62109375 621.727539062 147.140625 622.58203125 151.111328125 c 0
 609.171875 156.173828125 586.896484375 162.645507812 572.860351562 165.555664062 c 0
 562.09765625 145.533203125 534.913085938 129.282226562 512.181640625 129.282226562 c 0
 488.502929688 129.282226562 460.806640625 146.528320312 450.360351562 167.77734375 c 0
 437.555664062 165.4609375 417.146484375 160.234375 404.8046875 156.111328125 c 0
 405.586914062 152.305664062 406.22265625 146.0625 406.22265625 142.177734375 c 0
 406.22265625 103.997070312 375.235351562 73.0107421875 337.055664062 73.0107421875 c 0
 321.981445312 73.0107421875 300.8125 81.3681640625 289.8046875 91.6669921875 c 0
 265.036132812 71.3759765625 229.444335938 34.04296875 210.360351562 8.3330078125 c 1
 226.721679688 -3.212890625 240 -28.8349609375 240 -48.8603515625 c 0
 240 -87.5 208.639648438 -118.860351562 170 -118.860351562 c 0
 131.360351562 -118.860351562 100 -87.5 100 -48.8603515625 c 0
 100 -10.2197265625 131.360351562 21.1396484375 170 21.1396484375 c 0
 173.500976562 21.1396484375 179.137695312 20.62890625 182.58203125 20 c 0
 204.088867188 49.6103515625 244.657226562 92.294921875 273.137695312 115.27734375 c 0
 270.56640625 121.859375 268.451171875 132.934570312 268.416015625 140 c 0
 268.416015625 140.00390625 268.416015625 140.010742188 268.416015625 140.014648438 c 0
 268.416015625 171.313476562 293.3046875 201.795898438 323.970703125 208.055664062 c 2
 323.970703125 615 l 1
 351.749023438 615 l 1
 351.749023438 208.055664062 l 2
 365.611328125 204.994140625 383.780273438 193.296875 392.3046875 181.944335938 c 0
 405.987304688 186.650390625 428.635742188 192.624023438 442.860351562 195.27734375 c 0
 442.860351562 196.388671875 442.860351562 198.884765625 442.860351562 198.888671875 c 0
 442.860351562 198.892578125 442.860351562 198.899414062 442.860351562 198.903320312 c 0
 442.860351562 230.202148438 467.749023438 260.684570312 498.416015625 266.944335938 c 2
 498.416015625 716.666992188 l 1
 526.193359375 716.666992188 l 1
 526.193359375 266.666992188 l 2
 556.741210938 260.431640625 581.630859375 230.06640625 581.749023438 198.888671875 c 0
 581.749023438 196.666992188 581.749023438 194.72265625 581.749023438 192.5 c 0
 596.88671875 189.286132812 620.904296875 182.192382812 635.360351562 176.666992188 c 0
 643.57421875 187.767578125 661.120117188 199.465820312 674.526367188 202.77734375 c 2
 674.526367188 635.555664062 l 1
 702.3046875 635.555664062 l 1
 702.3046875 204.72265625 l 2
 734.403320312 199.51953125 760.536132812 168.90625 760.637695312 136.388671875 c 0
 760.590820312 127.38671875 757.23046875 113.573242188 753.137695312 105.555664062 c 0
 773.447265625 87.71875 803.313476562 55.861328125 819.8046875 34.4443359375 c 2
 835.08203125 15.27734375 l 2
 838.849609375 17.0087890625 845.196289062 19.125 849.249023438 20 c 2
 849.249023438 466.666992188 l 1
 877.026367188 466.666992188 l 1
 877.026367188 20 l 2
210.360351562 -48.0556640625 m 0
 210.364257812 -47.8232421875 210.368164062 -47.4462890625 210.368164062 -47.2138671875 c 0
 210.368164062 -24.6650390625 192.071289062 -6.001953125 169.526367188 -5.5556640625 c 0
 169.298828125 -5.55078125 168.9296875 -5.5478515625 168.702148438 -5.5478515625 c 0
 145.702148438 -5.5478515625 127.03515625 -24.2138671875 127.03515625 -47.2138671875 c 0
 127.03515625 -70.2138671875 145.702148438 -88.880859375 168.702148438 -88.880859375 c 0
 191.2421875 -88.880859375 209.905273438 -70.5908203125 210.360351562 -48.0556640625 c 0
379.249023438 139.72265625 m 2
 380.08203125 140 l 2
 379.934570312 162.8515625 361.268554688 181.397460938 338.416015625 181.397460938 c 0
 338.186523438 181.397460938 337.8125 181.393554688 337.58203125 181.388671875 c 0
 314.58203125 181.388671875 295.916015625 162.72265625 295.916015625 139.72265625 c 0
 295.916015625 116.72265625 314.58203125 98.0556640625 337.58203125 98.0556640625 c 0
 360.58203125 98.0556640625 379.249023438 116.72265625 379.249023438 139.72265625 c 2
470.637695312 198.611328125 m 2
 471.470703125 198.888671875 l 2
 471.470703125 198.809570312 471.469726562 198.681640625 471.469726562 198.602539062 c 0
 471.469726562 176.057617188 489.763671875 157.39453125 512.3046875 156.944335938 c 0
 535.3046875 156.944335938 553.970703125 175.611328125 553.970703125 198.611328125 c 0
 553.970703125 221.611328125 535.3046875 240.27734375 512.3046875 240.27734375 c 0
 489.3046875 240.27734375 470.637695312 221.611328125 470.637695312 198.611328125 c 2
690.360351562 93.611328125 m 2
 691.193359375 93.888671875 l 2
 713.588867188 94.3359375 731.881835938 112.87890625 732.026367188 135.27734375 c 0
 732.026367188 158.27734375 713.360351562 176.944335938 690.360351562 176.944335938 c 0
 667.360351562 176.944335938 648.693359375 158.27734375 648.693359375 135.27734375 c 0
 648.693359375 112.27734375 667.360351562 93.611328125 690.360351562 93.611328125 c 2
820.916015625 -48.0556640625 m 2
 821.470703125 -48.0556640625 l 2
 821.921875 -70.595703125 840.584960938 -88.888671875 863.129882812 -88.888671875 c 0
 863.131835938 -88.888671875 863.135742188 -88.888671875 863.137695312 -88.888671875 c 0
 885.826171875 -88.58203125 904.240234375 -69.9169921875 904.240234375 -47.2255859375 c 0
 904.240234375 -24.2255859375 885.57421875 -5.5595703125 862.57421875 -5.5595703125 c 0
 839.57421875 -5.5595703125 820.907226562 -24.2255859375 820.907226562 -47.2255859375 c 0
 820.907226562 -47.455078125 820.911132812 -47.826171875 820.916015625 -48.0556640625 c 2
EndSplineSet
Validated: 1
EndChar

StartChar: NameMe.4581
Encoding: 4581 58000 525
Width: 1032
VWidth: 0
Flags: W
HStem: -116.437 27.5479<140.042 200.677 832.949 894.407> -5.55566 26.667<177.704 192.665 835.509 893.479> 67.9482 25.9404<314.144 364.291 661.733 721.797> 129.838 27.3848<483.175 544.336> 176.944 28.8984<305.042 373.087 660.811 722.75> 240.277 28.8896<482.737 545.091>
VStem: 100 28.5449<-77.6542 -16.6847> 149.926 27.7783<21.1113 463.611> 211.879 26.4541<-76.9247 -17.2912> 268.836 28.5898<112.656 170.096> 380.759 27.6182<109.925 156.451> 443.814 28.334<196.468 229.449> 555.481 27.2227<196.482 228.293> 622.544 27.6602<105.037 154.178> 733.537 27.7783<105.936 165.132> 793.761 28.665<-78.6563 -16.9592> 905.759 26.335<-76.921 -18.3334>
LayerCount: 4
Fore
SplineSet
863.814453125 22.22265625 m 0
 901.504882812 21.73828125 932.09375 -9.24609375 932.09375 -46.9384765625 c 0
 932.09375 -85.119140625 901.107421875 -116.10546875 862.926757812 -116.10546875 c 0
 824.747070312 -116.10546875 793.760742188 -85.119140625 793.760742188 -46.9384765625 c 0
 793.760742188 -32.1201171875 801.874023438 -11.2158203125 811.870117188 -0.27734375 c 2
 797.42578125 18.0556640625 l 2
 781.969726562 37.708984375 754.09375 66.953125 735.204101562 83.3330078125 c 0
 724.702148438 74.8408203125 705.216796875 67.9482421875 691.7109375 67.9482421875 c 0
 653.53125 67.9482421875 622.543945312 98.9345703125 622.543945312 137.114257812 c 0
 622.543945312 141.176757812 623.23828125 147.6953125 624.092773438 151.666992188 c 0
 610.682617188 156.73046875 588.40625 163.201171875 574.370117188 166.111328125 c 0
 563.607421875 146.088867188 536.423828125 129.837890625 513.69140625 129.837890625 c 0
 490.013671875 129.837890625 462.317382812 147.083984375 451.870117188 168.333007812 c 0
 439.065429688 166.016601562 418.65625 160.790039062 406.314453125 156.666992188 c 0
 407.453125 152.109375 408.376953125 144.599609375 408.376953125 139.90234375 c 0
 408.376953125 101.72265625 377.390625 70.736328125 339.209960938 70.736328125 c 0
 322.963867188 70.736328125 300.635742188 80.2373046875 289.370117188 91.9443359375 c 0
 264.603515625 71.65234375 229.012695312 34.318359375 209.92578125 8.611328125 c 1
 225.606445312 -2.826171875 238.333007812 -27.861328125 238.333007812 -47.26953125 c 0
 238.333007812 -85.4501953125 207.346679688 -116.436523438 169.166015625 -116.436523438 c 0
 130.986328125 -116.436523438 100 -85.4501953125 100 -47.26953125 c 0
 100 -18.578125 122.366210938 11.185546875 149.92578125 19.1669921875 c 2
 149.92578125 463.611328125 l 1
 177.704101562 463.611328125 l 1
 177.704101562 21.111328125 l 1
 182.704101562 21.111328125 l 2
 204.296875 50.6552734375 244.990234375 93.21484375 273.537109375 116.111328125 c 0
 270.94140625 122.786132812 268.8359375 134.014648438 268.8359375 141.17578125 c 0
 268.8359375 179.356445312 299.822265625 210.342773438 338.001953125 210.342773438 c 0
 357.048828125 210.342773438 381.803710938 197.993164062 393.258789062 182.77734375 c 0
 406.942382812 187.483398438 429.590820312 193.45703125 443.814453125 196.111328125 c 0
 443.814453125 197.22265625 443.814453125 161.388671875 443.814453125 199.72265625 c 0
 443.814453125 238.055664062 474.92578125 269.166992188 513.258789062 269.166992188 c 0
 551.592773438 269.166992188 582.704101562 238.055664062 582.704101562 199.72265625 c 0
 582.704101562 197.5 582.704101562 195.555664062 582.704101562 193.333007812 c 0
 597.841796875 190.119140625 621.859375 183.025390625 636.314453125 177.5 c 0
 647.75390625 193.145507812 672.767578125 205.842773438 692.1484375 205.842773438 c 0
 730.329101562 205.842773438 761.315429688 174.856445312 761.315429688 136.67578125 c 0
 761.315429688 136.596679688 761.315429688 136.467773438 761.314453125 136.388671875 c 0
 761.267578125 127.38671875 757.907226562 113.573242188 753.814453125 105.555664062 c 0
 774.2734375 87.8134765625 804.388671875 56.080078125 821.037109375 34.72265625 c 2
 836.037109375 16.111328125 l 2
 843.34765625 19.4150390625 855.791992188 22.1533203125 863.814453125 22.22265625 c 0
211.870117188 -48.0556640625 m 0
 211.875 -47.8251953125 211.87890625 -47.4521484375 211.87890625 -47.22265625 c 0
 211.87890625 -24.22265625 193.211914062 -5.5556640625 170.211914062 -5.5556640625 c 0
 170.209960938 -5.5556640625 170.206054688 -5.5556640625 170.204101562 -5.5556640625 c 0
 147.208007812 -5.560546875 128.544921875 -24.2265625 128.544921875 -47.22265625 c 0
 128.544921875 -70.22265625 147.211914062 -88.888671875 170.211914062 -88.888671875 c 0
 192.756835938 -88.888671875 211.419921875 -70.595703125 211.870117188 -48.0556640625 c 0
380.758789062 139.72265625 m 2
 380.758789062 140 l 2
 380.606445312 162.846679688 361.940429688 181.388671875 339.09375 181.388671875 c 0
 339.092773438 181.388671875 339.092773438 181.388671875 339.092773438 181.388671875 c 0
 316.092773438 181.388671875 297.42578125 162.72265625 297.42578125 139.72265625 c 0
 297.42578125 116.72265625 316.092773438 98.0556640625 339.092773438 98.0556640625 c 0
 362.092773438 98.0556640625 380.758789062 116.72265625 380.758789062 139.72265625 c 2
513.814453125 156.944335938 m 2
 513.814453125 157.22265625 l 2
 513.815429688 157.22265625 513.815429688 157.22265625 513.815429688 157.22265625 c 0
 536.663085938 157.22265625 555.329101562 175.764648438 555.481445312 198.611328125 c 0
 555.481445312 221.611328125 536.814453125 240.27734375 513.814453125 240.27734375 c 0
 490.814453125 240.27734375 472.1484375 221.611328125 472.1484375 198.611328125 c 0
 472.1484375 175.611328125 490.814453125 156.944335938 513.814453125 156.944335938 c 2
691.870117188 93.611328125 m 2
 691.870117188 93.888671875 l 2
 691.870117188 93.888671875 691.87109375 93.888671875 691.87109375 93.888671875 c 0
 714.71875 93.888671875 733.384765625 112.430664062 733.537109375 135.27734375 c 0
 733.537109375 158.27734375 714.870117188 176.944335938 691.870117188 176.944335938 c 0
 668.870117188 176.944335938 650.204101562 158.27734375 650.204101562 135.27734375 c 0
 650.204101562 112.27734375 668.870117188 93.611328125 691.870117188 93.611328125 c 2
864.092773438 -89.72265625 m 0
 863.814453125 -88.888671875 l 2
 863.893554688 -88.8896484375 864.021484375 -88.8896484375 864.100585938 -88.8896484375 c 0
 886.645507812 -88.8896484375 905.30859375 -70.595703125 905.758789062 -48.0556640625 c 0
 905.758789062 -25.0556640625 887.092773438 -6.388671875 864.092773438 -6.388671875 c 0
 841.092773438 -6.388671875 822.42578125 -25.0556640625 822.42578125 -48.0556640625 c 0
 822.42578125 -71.0556640625 841.092773438 -89.72265625 864.092773438 -89.72265625 c 0
EndSplineSet
Validated: 5
EndChar

StartChar: NameMe.4582
Encoding: 4582 58001 526
Width: 1030
VWidth: 0
Flags: W
HStem: -116.311 27.4219<138.649 199.294 832.946 892.882> -5.55566 25.833<177.272 191.204 835.119 891.401> 68.7812 25.1074<313.85 361.971 661.708 720.086> 130.672 26.5508<482.291 542.496> 177.223 29.0068<659.445 721.487> 240.556 28.6113<481.665 543.356>
VStem: 100 27.2812<-77.2504 -17.0391> 149.495 27.7773<20.2773 463.611> 210.614 27.7197<-77.1215 -16.6521> 268.384 27.7773<115.589 169.734> 323.939 27.7773<203.555 615> 379.495 27.8955<109.209 159.442> 442.272 28.6113<196.746 229.727> 554.217 26.9443<196.746 228.293> 621.558 27.3818<104.852 154.734> 732.272 27.7812<105.936 165.519> 792.235 28.9258<-79.2685 -16.4223> 904.495 26.0732<-76.5389 -17.7164>
LayerCount: 4
Fore
SplineSet
862.55078125 22.22265625 m 2
 861.439453125 21.388671875 l 2
 899.598632812 21.3681640625 930.568359375 -9.6181640625 930.568359375 -47.77734375 c 0
 930.568359375 -85.9580078125 899.58203125 -116.944335938 861.40234375 -116.944335938 c 0
 823.221679688 -116.944335938 792.235351562 -85.9580078125 792.235351562 -47.77734375 c 0
 792.235351562 -32.8369140625 800.465820312 -11.8056640625 810.606445312 -0.8330078125 c 2
 796.161132812 17.5 l 2
 780.833984375 37.54296875 753.08203125 67.41015625 734.216796875 84.1669921875 c 0
 723.71484375 75.673828125 704.23046875 68.78125 690.724609375 68.78125 c 0
 652.544921875 68.78125 621.557617188 99.767578125 621.557617188 137.948242188 c 0
 621.557617188 142.009765625 622.250976562 148.529296875 623.106445312 152.5 c 0
 609.6953125 157.5625 587.419921875 164.034179688 573.383789062 166.944335938 c 0
 562.62109375 146.921875 535.4375 130.671875 512.705078125 130.671875 c 0
 489.026367188 130.671875 461.331054688 147.916992188 450.883789062 169.166992188 c 0
 438.079101562 166.850585938 417.669921875 161.623046875 405.328125 157.5 c 0
 406.466796875 152.943359375 407.390625 145.432617188 407.390625 140.736328125 c 0
 407.390625 102.555664062 376.404296875 71.5693359375 338.223632812 71.5693359375 c 0
 321.977539062 71.5693359375 299.6484375 81.0703125 288.383789062 92.77734375 c 0
 263.6171875 72.4853515625 228.025390625 35.15234375 208.939453125 9.4443359375 c 1
 225.165039062 -1.9599609375 238.333984375 -27.310546875 238.333984375 -47.1435546875 c 0
 238.333984375 -85.3232421875 207.346679688 -116.310546875 169.166992188 -116.310546875 c 0
 130.987304688 -116.310546875 100 -85.3232421875 100 -47.1435546875 c 0
 100 -18.6455078125 122.173828125 11.0615234375 149.495117188 19.1669921875 c 2
 149.495117188 463.611328125 l 1
 177.272460938 463.611328125 l 1
 177.272460938 20.27734375 l 1
 182.272460938 20.27734375 l 2
 203.866210938 49.8212890625 244.559570312 92.3818359375 273.106445312 115.27734375 c 0
 270.53515625 121.859375 268.418945312 132.934570312 268.383789062 140 c 0
 268.383789062 140.00390625 268.383789062 140.010742188 268.383789062 140.014648438 c 0
 268.383789062 171.313476562 293.272460938 201.795898438 323.939453125 208.055664062 c 2
 323.939453125 615 l 1
 351.716796875 615 l 1
 351.716796875 207.77734375 l 2
 365.259765625 204.881835938 383.1796875 193.682617188 391.716796875 182.77734375 c 0
 405.400390625 187.483398438 428.048828125 193.45703125 442.272460938 196.111328125 c 0
 442.272460938 197.22265625 442.272460938 161.388671875 442.272460938 199.72265625 c 0
 442.272460938 238.055664062 473.383789062 269.166992188 511.716796875 269.166992188 c 0
 550.05078125 269.166992188 581.161132812 238.055664062 581.161132812 199.72265625 c 0
 581.161132812 197.5 581.161132812 195.555664062 581.161132812 193.333007812 c 0
 596.299804688 190.119140625 620.317382812 183.025390625 634.772460938 177.5 c 0
 646.201171875 193.358398438 671.33984375 206.229492188 690.88671875 206.229492188 c 0
 729.067382812 206.229492188 760.053710938 175.2421875 760.053710938 137.0625 c 0
 760.053710938 136.876953125 760.052734375 136.575195312 760.05078125 136.388671875 c 0
 760.002929688 127.38671875 756.643554688 113.573242188 752.55078125 105.555664062 c 0
 772.90625 87.9482421875 802.897460938 56.4638671875 819.495117188 35.27734375 c 2
 834.772460938 16.111328125 l 2
 842.083007812 19.4150390625 854.528320312 22.1533203125 862.55078125 22.22265625 c 2
210.606445312 -48.0556640625 m 0
 210.610351562 -47.8251953125 210.614257812 -47.4521484375 210.614257812 -47.22265625 c 0
 210.614257812 -24.22265625 191.947265625 -5.5556640625 168.947265625 -5.5556640625 c 0
 168.9453125 -5.5556640625 168.94140625 -5.5556640625 168.939453125 -5.5556640625 c 0
 145.944335938 -5.560546875 127.28125 -24.2265625 127.28125 -47.22265625 c 0
 127.28125 -70.22265625 145.947265625 -88.888671875 168.947265625 -88.888671875 c 0
 191.4921875 -88.888671875 210.155273438 -70.595703125 210.606445312 -48.0556640625 c 0
379.495117188 140 m 0
 379.495117188 163 360.828125 181.666992188 337.828125 181.666992188 c 0
 314.828125 181.666992188 296.161132812 163 296.161132812 140 c 0
 296.161132812 117 314.828125 98.3330078125 337.828125 98.3330078125 c 0
 360.828125 98.3330078125 379.495117188 117 379.495117188 140 c 0
512.55078125 157.22265625 m 0
 535.55078125 157.22265625 554.216796875 175.888671875 554.216796875 198.888671875 c 0
 554.216796875 221.888671875 535.55078125 240.555664062 512.55078125 240.555664062 c 0
 489.55078125 240.555664062 470.883789062 221.888671875 470.883789062 198.888671875 c 0
 470.883789062 175.888671875 489.55078125 157.22265625 512.55078125 157.22265625 c 0
690.606445312 93.888671875 m 0
 713.606445312 93.888671875 732.272460938 112.555664062 732.272460938 135.555664062 c 0
 732.272460938 158.555664062 713.606445312 177.22265625 690.606445312 177.22265625 c 0
 667.606445312 177.22265625 648.939453125 158.555664062 648.939453125 135.555664062 c 0
 648.939453125 112.555664062 667.606445312 93.888671875 690.606445312 93.888671875 c 0
862.828125 -89.4443359375 m 2
 862.55078125 -88.888671875 l 2
 862.627929688 -88.8896484375 862.75390625 -88.8896484375 862.83203125 -88.8896484375 c 0
 885.52734375 -88.8896484375 904.192382812 -70.4716796875 904.495117188 -47.77734375 c 0
 904.495117188 -24.77734375 885.828125 -6.111328125 862.828125 -6.111328125 c 0
 839.828125 -6.111328125 821.161132812 -24.77734375 821.161132812 -47.77734375 c 0
 821.161132812 -70.77734375 839.828125 -89.4443359375 862.828125 -89.4443359375 c 2
EndSplineSet
Validated: 5
EndChar

StartChar: NameMe.4583
Encoding: 4583 58002 527
Width: 1031
VWidth: 74
Flags: W
HStem: -116.944 27.4766<138.713 197.915 831.979 893.438> -5.55566 25.833<177.273 191.205 834.563 891.957> 68.7812 25.085<314.128 362.249 662.269 720.62> 130.672 26.5352<482.189 543.263> 177.223 29.0068<659.783 722.099>
VStem: 100 26.7266<-77.2504 -17.0391> 149.494 27.7793<20.2773 463.611> 210.059 28.2754<-77.1215 -16.6521> 268.377 28.3398<112.378 170.51> 324.494 27.7793<204.203 615> 380.051 27.3398<109.209 159.442> 441.439 28.8887<192.531 228.623> 496.994 27.7793<262.932 716.667> 554.773 25.5547<190.495 228.002> 621.559 27.9355<104.852 154.734> 732.828 26.3926<105.936 165.519> 792.791 27.5371<-77.7557 -48.0557 -47.7773 -18.8783> 905.051 26.0742<-77.8451 -17.7164>
LayerCount: 4
Fore
SplineSet
861.994140625 22.22265625 m 2
 861.994140625 21.388671875 l 2
 900.154296875 21.3681640625 931.125 -9.6181640625 931.125 -47.77734375 c 0
 931.125 -85.9580078125 900.138671875 -116.944335938 861.95703125 -116.944335938 c 0
 823.77734375 -116.944335938 792.791015625 -85.9580078125 792.791015625 -47.77734375 c 0
 792.791015625 -32.8369140625 801.021484375 -11.8056640625 811.162109375 -0.8330078125 c 2
 796.716796875 17.5 l 2
 781.244140625 37.5654296875 753.244140625 67.431640625 734.216796875 84.1669921875 c 0
 723.71484375 75.673828125 704.23046875 68.78125 690.724609375 68.78125 c 0
 652.544921875 68.78125 621.55859375 99.767578125 621.55859375 137.948242188 c 0
 621.55859375 142.009765625 622.251953125 148.529296875 623.10546875 152.5 c 0
 609.6953125 157.5625 587.419921875 164.034179688 573.384765625 166.944335938 c 0
 562.62109375 146.921875 535.4375 130.671875 512.705078125 130.671875 c 0
 489.02734375 130.671875 461.330078125 147.916992188 450.884765625 169.166992188 c 0
 438.078125 166.850585938 417.669921875 161.624023438 405.328125 157.5 c 0
 406.466796875 152.943359375 407.390625 145.432617188 407.390625 140.736328125 c 0
 407.390625 102.555664062 376.404296875 71.5693359375 338.224609375 71.5693359375 c 0
 321.9765625 71.5693359375 299.6484375 81.0703125 288.384765625 92.77734375 c 0
 263.619140625 72.4833984375 228.02734375 35.150390625 208.939453125 9.4443359375 c 1
 225.166015625 -1.9599609375 238.333984375 -27.310546875 238.333984375 -47.1435546875 c 0
 238.333984375 -85.3232421875 207.34765625 -116.310546875 169.16796875 -116.310546875 c 0
 130.986328125 -116.310546875 100 -85.3232421875 100 -47.1435546875 c 0
 100 -18.6455078125 122.173828125 11.0615234375 149.494140625 19.1669921875 c 2
 149.494140625 463.611328125 l 1
 177.2734375 463.611328125 l 1
 177.2734375 20.27734375 l 1
 182.2734375 20.27734375 l 2
 203.8671875 49.8212890625 244.560546875 92.3818359375 273.10546875 115.27734375 c 0
 270.49609375 121.955078125 268.376953125 133.19140625 268.376953125 140.360351562 c 0
 268.376953125 171.883789062 293.517578125 202.211914062 324.494140625 208.055664062 c 2
 324.494140625 615 l 1
 352.2734375 615 l 1
 352.2734375 207.77734375 l 2
 365.470703125 204.447265625 382.76953125 192.874023438 390.884765625 181.944335938 c 0
 404.56640625 186.650390625 427.21484375 192.623046875 441.439453125 195.27734375 c 0
 441.439453125 196.388671875 441.439453125 198.884765625 441.439453125 198.888671875 c 0
 441.439453125 198.892578125 441.439453125 198.899414062 441.439453125 198.903320312 c 0
 441.439453125 230.202148438 466.328125 260.684570312 496.994140625 266.944335938 c 2
 496.994140625 716.666992188 l 1
 524.7734375 716.666992188 l 1
 524.7734375 267.5 l 2
 555.3203125 261.264648438 580.2109375 230.900390625 580.328125 199.72265625 c 0
 580.328125 197.5 580.328125 195.555664062 580.328125 193.333007812 c 0
 595.466796875 190.119140625 619.484375 183.025390625 633.939453125 177.5 c 0
 645.3671875 193.358398438 670.505859375 206.229492188 690.0546875 206.229492188 c 0
 728.234375 206.229492188 759.220703125 175.2421875 759.220703125 137.0625 c 0
 759.220703125 136.876953125 759.21875 136.575195312 759.216796875 136.388671875 c 0
 759.169921875 127.38671875 755.810546875 113.573242188 751.716796875 105.555664062 c 0
 772.15234375 87.9599609375 802.26953125 56.4755859375 818.939453125 35.27734375 c 2
 834.216796875 16.111328125 l 2
 841.52734375 19.4150390625 853.97265625 22.1533203125 861.994140625 22.22265625 c 2
210.05078125 -48.0556640625 m 0
 210.0546875 -47.8251953125 210.05859375 -47.4521484375 210.05859375 -47.22265625 c 0
 210.05859375 -24.22265625 191.392578125 -5.5556640625 168.392578125 -5.5556640625 c 0
 168.390625 -5.5556640625 168.38671875 -5.5556640625 168.384765625 -5.5556640625 c 0
 145.388671875 -5.560546875 126.7265625 -24.2265625 126.7265625 -47.22265625 c 0
 126.7265625 -70.22265625 145.392578125 -88.888671875 168.392578125 -88.888671875 c 0
 190.9375 -88.888671875 209.599609375 -70.595703125 210.05078125 -48.0556640625 c 0
380.05078125 140 m 0
 380.05078125 163 361.384765625 181.666992188 338.384765625 181.666992188 c 0
 315.384765625 181.666992188 296.716796875 163 296.716796875 140 c 0
 296.716796875 117 315.384765625 98.3330078125 338.384765625 98.3330078125 c 0
 361.384765625 98.3330078125 380.05078125 117 380.05078125 140 c 0
471.439453125 198.888671875 m 2
 470.328125 198.888671875 l 2
 470.328125 198.884765625 470.328125 198.877929688 470.328125 198.874023438 c 0
 470.328125 175.874023438 488.994140625 157.20703125 511.994140625 157.20703125 c 0
 512.302734375 157.20703125 512.798828125 157.213867188 513.10546875 157.22265625 c 0
 536.10546875 157.22265625 554.7734375 175.888671875 554.7734375 198.888671875 c 0
 554.7734375 221.888671875 536.10546875 240.555664062 513.10546875 240.555664062 c 0
 490.10546875 240.555664062 471.439453125 221.888671875 471.439453125 198.888671875 c 2
691.162109375 93.888671875 m 2
 689.7734375 93.888671875 l 2
 690.15625 93.8759765625 690.77734375 93.8662109375 691.162109375 93.8662109375 c 0
 714.162109375 93.8662109375 732.828125 112.532226562 732.828125 135.532226562 c 0
 732.828125 135.5390625 732.828125 135.548828125 732.828125 135.555664062 c 0
 732.828125 158.555664062 714.162109375 177.22265625 691.162109375 177.22265625 c 0
 668.162109375 177.22265625 649.494140625 158.555664062 649.494140625 135.555664062 c 0
 649.494140625 112.555664062 668.162109375 93.888671875 691.162109375 93.888671875 c 2
821.716796875 -47.77734375 m 2
 820.328125 -48.0556640625 l 2
 820.46875 -70.9150390625 839.134765625 -89.4677734375 861.994140625 -89.4677734375 c 0
 862.37890625 -89.4677734375 863 -89.45703125 863.384765625 -89.4443359375 c 0
 886.384765625 -89.4443359375 905.05078125 -70.77734375 905.05078125 -47.77734375 c 0
 905.05078125 -24.77734375 886.384765625 -6.111328125 863.384765625 -6.111328125 c 0
 840.384765625 -6.111328125 821.716796875 -24.77734375 821.716796875 -47.77734375 c 2
EndSplineSet
Validated: 1
EndChar

StartChar: NameMe.4584
Encoding: 4584 58003 528
Width: 1031
VWidth: 131
Flags: W
HStem: -116.311 27.4219<138.65 199.294 832.183 893.442> -6.11133 28.334<177.273 193.675 833.555 893.76> 68.7812 25.1074<313.85 361.971 661.708 720.086> 130.672 26.5508<482.292 542.496>
VStem: 100 27.2812<-77.2504 -17.0391> 149.496 27.7773<20.2773 463.611> 210.615 27.7188<-77.1215 -16.6521> 268.385 27.7773<115.589 169.734> 323.939 27.7773<203.661 615> 379.496 27.8945<109.209 159.442> 441.996 28.8887<192.546 229.94> 497.551 27.7773<262.67 716.667> 554.217 26.668<189.483 228.493> 621.559 27.3809<104.852 154.734> 673.662 27.7773<201.085 635.556> 732.273 27.5<105.326 165.996> 792.994 28.168<-78.5193 -17.0228> 904.496 26.832<-77.2272 -18.1167>
LayerCount: 4
Fore
SplineSet
862.55078125 22.22265625 m 0
 900.515625 22.0087890625 931.328125 -8.9775390625 931.328125 -46.943359375 c 0
 931.328125 -85.123046875 900.341796875 -116.110351562 862.162109375 -116.110351562 c 0
 823.98046875 -116.110351562 792.994140625 -85.123046875 792.994140625 -46.943359375 c 0
 792.994140625 -32.3603515625 800.884765625 -11.703125 810.60546875 -0.8330078125 c 2
 796.162109375 17.5 l 2
 780.8359375 37.5439453125 753.083984375 67.4111328125 734.216796875 84.1669921875 c 0
 723.71484375 75.673828125 704.23046875 68.78125 690.724609375 68.78125 c 0
 652.544921875 68.78125 621.55859375 99.767578125 621.55859375 137.948242188 c 0
 621.55859375 142.009765625 622.251953125 148.529296875 623.10546875 152.5 c 0
 609.6953125 157.563476562 587.419921875 164.03515625 573.384765625 166.944335938 c 0
 562.62109375 146.921875 535.4375 130.671875 512.705078125 130.671875 c 0
 489.02734375 130.671875 461.33203125 147.916992188 450.884765625 169.166992188 c 0
 438.080078125 166.850585938 417.669921875 161.623046875 405.328125 157.5 c 0
 406.466796875 152.943359375 407.390625 145.432617188 407.390625 140.736328125 c 0
 407.390625 102.555664062 376.404296875 71.5693359375 338.224609375 71.5693359375 c 0
 321.9765625 71.5693359375 299.6484375 81.0703125 288.384765625 92.77734375 c 0
 263.6171875 72.4853515625 228.025390625 35.15234375 208.939453125 9.4443359375 c 1
 225.166015625 -1.9599609375 238.333984375 -27.310546875 238.333984375 -47.1435546875 c 0
 238.333984375 -85.3232421875 207.34765625 -116.310546875 169.16796875 -116.310546875 c 0
 130.98828125 -116.310546875 100 -85.3232421875 100 -47.1435546875 c 0
 100 -18.6455078125 122.173828125 11.0615234375 149.49609375 19.1669921875 c 2
 149.49609375 463.611328125 l 1
 177.2734375 463.611328125 l 1
 177.2734375 20.27734375 l 1
 182.2734375 20.27734375 l 2
 203.8671875 49.8212890625 244.560546875 92.3818359375 273.10546875 115.27734375 c 0
 270.53515625 121.859375 268.419921875 132.934570312 268.384765625 140 c 0
 268.384765625 140.00390625 268.384765625 140.010742188 268.384765625 140.014648438 c 0
 268.384765625 171.313476562 293.2734375 201.795898438 323.939453125 208.055664062 c 2
 323.939453125 615 l 1
 351.716796875 615 l 1
 351.716796875 207.77734375 l 2
 365.28125 204.64453125 383.076171875 193.071289062 391.439453125 181.944335938 c 0
 405.123046875 186.650390625 427.771484375 192.623046875 441.99609375 195.27734375 c 0
 441.99609375 196.388671875 441.99609375 198.884765625 441.99609375 198.888671875 c 0
 441.99609375 198.892578125 441.99609375 198.899414062 441.99609375 198.903320312 c 0
 441.99609375 230.202148438 466.884765625 260.684570312 497.55078125 266.944335938 c 2
 497.55078125 716.666992188 l 1
 525.328125 716.666992188 l 1
 525.328125 266.666992188 l 2
 555.876953125 260.431640625 580.765625 230.06640625 580.884765625 198.888671875 c 0
 580.884765625 196.666992188 580.884765625 194.72265625 580.884765625 192.5 c 0
 596.021484375 189.286132812 620.0390625 182.192382812 634.49609375 176.666992188 c 0
 642.708984375 187.767578125 660.255859375 199.465820312 673.662109375 202.77734375 c 2
 673.662109375 635.555664062 l 1
 701.439453125 635.555664062 l 1
 701.439453125 204.72265625 l 2
 733.5390625 199.51953125 759.671875 168.90625 759.7734375 136.388671875 c 0
 759.7265625 127.38671875 756.365234375 113.573242188 752.2734375 105.555664062 c 0
 772.708984375 87.9599609375 802.82421875 56.4755859375 819.49609375 35.27734375 c 2
 834.7734375 16.111328125 l 2
 842.083984375 19.4150390625 854.52734375 22.1533203125 862.55078125 22.22265625 c 0
210.60546875 -48.0556640625 m 0
 210.611328125 -47.8251953125 210.615234375 -47.4521484375 210.615234375 -47.22265625 c 0
 210.615234375 -24.22265625 191.947265625 -5.5556640625 168.947265625 -5.5556640625 c 0
 168.9453125 -5.5556640625 168.94140625 -5.5556640625 168.939453125 -5.5556640625 c 0
 145.943359375 -5.560546875 127.28125 -24.2265625 127.28125 -47.22265625 c 0
 127.28125 -70.22265625 145.947265625 -88.888671875 168.947265625 -88.888671875 c 0
 191.4921875 -88.888671875 210.15625 -70.595703125 210.60546875 -48.0556640625 c 0
379.49609375 140 m 0
 379.49609375 163 360.828125 181.666992188 337.828125 181.666992188 c 0
 314.828125 181.666992188 296.162109375 163 296.162109375 140 c 0
 296.162109375 117 314.828125 98.3330078125 337.828125 98.3330078125 c 0
 360.828125 98.3330078125 379.49609375 117 379.49609375 140 c 0
512.55078125 157.22265625 m 0
 535.55078125 157.22265625 554.216796875 175.888671875 554.216796875 198.888671875 c 0
 554.216796875 221.888671875 535.55078125 240.555664062 512.55078125 240.555664062 c 0
 489.55078125 240.555664062 470.884765625 221.888671875 470.884765625 198.888671875 c 0
 470.884765625 175.888671875 489.55078125 157.22265625 512.55078125 157.22265625 c 0
690.60546875 93.888671875 m 0
 713.60546875 93.888671875 732.2734375 112.555664062 732.2734375 135.555664062 c 0
 732.2734375 158.555664062 713.60546875 177.22265625 690.60546875 177.22265625 c 0
 667.60546875 177.22265625 648.939453125 158.555664062 648.939453125 135.555664062 c 0
 648.939453125 112.555664062 667.60546875 93.888671875 690.60546875 93.888671875 c 0
862.828125 -89.4443359375 m 2
 862.55078125 -88.888671875 l 2
 862.62890625 -88.8896484375 862.75390625 -88.8896484375 862.83203125 -88.8896484375 c 0
 885.52734375 -88.8896484375 904.193359375 -70.4716796875 904.49609375 -47.77734375 c 0
 904.49609375 -24.77734375 885.828125 -6.111328125 862.828125 -6.111328125 c 0
 839.828125 -6.111328125 821.162109375 -24.77734375 821.162109375 -47.77734375 c 0
 821.162109375 -70.77734375 839.828125 -89.4443359375 862.828125 -89.4443359375 c 2
EndSplineSet
Validated: 1
EndChar

StartChar: NameMe.4585
Encoding: 4585 58004 529
Width: 1032
VWidth: 75
Flags: W
HStem: -116.311 27.4365<137.342 197.974 831.504 861.994 862.55 891.44> -5.55566 25.833<177.272 191.204> 70.4639 27.8691<306.43 367.777 655.978 723.85> 129.282 27.9404<481.132 542.325>
VStem: 100 26.1699<-77.243 -17.0302> 149.494 27.7783<20.2773 463.611> 210.613 27.7197<-75.5996 -16.6521> 268.377 26.9502<112.718 170.17> 324.494 27.7783<204.203 615> 378.661 29.7695<108.324 158.317> 442.272 27.7773<190.213 228.882> 499.494 27.7783<263.147 716.667> 553.383 27.7783<188.596 229.164> 622.668 25.4375<106.339 153.167> 675.05 27.7773<200.623 635.556> 731.438 28.334<105.936 166.394> 793.817 26.5098<-77.7401 -17.8321> 848.383 27.7783<20 466.667> 903.661 28.4893<-77.7644 -16.7314>
LayerCount: 4
Fore
SplineSet
876.161132812 20 m 1
 876.438476562 20.27734375 l 2
 907.19140625 14.1787109375 932.150390625 -16.2158203125 932.150390625 -47.5673828125 c 0
 932.150390625 -85.748046875 901.1640625 -116.734375 862.983398438 -116.734375 c 0
 824.803710938 -116.734375 793.817382812 -85.748046875 793.817382812 -47.5673828125 c 0
 793.817382812 -32.7177734375 801.9609375 -11.7802734375 811.994140625 -0.8330078125 c 2
 797.549804688 17.5 l 2
 782.09375 37.1533203125 754.217773438 66.3974609375 735.327148438 82.77734375 c 0
 724.826171875 74.28515625 705.340820312 67.392578125 691.834960938 67.392578125 c 0
 653.655273438 67.392578125 622.66796875 98.37890625 622.66796875 136.55859375 c 0
 622.66796875 140.62109375 623.362304688 147.140625 624.216796875 151.111328125 c 0
 610.805664062 156.174804688 588.530273438 162.646484375 574.494140625 165.555664062 c 0
 563.731445312 145.533203125 536.547851562 129.282226562 513.815429688 129.282226562 c 0
 490.137695312 129.282226562 462.44140625 146.528320312 451.994140625 167.77734375 c 0
 439.189453125 165.4609375 418.780273438 160.234375 406.438476562 156.111328125 c 0
 407.538085938 151.62890625 408.430664062 144.245117188 408.430664062 139.629882812 c 0
 408.430664062 101.450195312 377.444335938 70.4638671875 339.264648438 70.4638671875 c 0
 322.520507812 70.4638671875 299.725585938 80.4599609375 288.3828125 92.77734375 c 0
 263.616210938 72.4853515625 228.025390625 35.15234375 208.938476562 9.4443359375 c 1
 225.1640625 -1.9599609375 238.333007812 -27.310546875 238.333007812 -47.1435546875 c 0
 238.333007812 -85.3232421875 207.346679688 -116.310546875 169.166015625 -116.310546875 c 0
 130.986328125 -116.310546875 100 -85.3232421875 100 -47.1435546875 c 0
 100 -18.6455078125 122.172851562 11.0615234375 149.494140625 19.1669921875 c 2
 149.494140625 463.611328125 l 1
 177.272460938 463.611328125 l 1
 177.272460938 20.27734375 l 1
 182.272460938 20.27734375 l 2
 203.865234375 49.8212890625 244.55859375 92.3818359375 273.10546875 115.27734375 c 0
 270.495117188 121.955078125 268.376953125 133.19140625 268.376953125 140.360351562 c 0
 268.376953125 171.883789062 293.517578125 202.211914062 324.494140625 208.055664062 c 2
 324.494140625 615 l 1
 352.272460938 615 l 1
 352.272460938 207.22265625 l 2
 365.70703125 204.1015625 383.377929688 192.65234375 391.716796875 181.666992188 c 0
 405.399414062 186.372070312 428.047851562 192.345703125 442.272460938 195 c 0
 442.272460938 196.111328125 442.259765625 166.536132812 442.272460938 198.611328125 c 0
 442.284179688 230.685546875 467.919921875 261.298828125 499.494140625 266.944335938 c 2
 499.494140625 716.666992188 l 1
 527.272460938 716.666992188 l 1
 527.272460938 265 l 2
 556.939453125 258.181640625 581.08203125 227.94140625 581.161132812 197.5 c 0
 581.161132812 195.27734375 581.161132812 193.333007812 581.161132812 191.111328125 c 0
 596.298828125 187.897460938 620.31640625 180.803710938 634.772460938 175.27734375 c 0
 643.002929688 187.12890625 661.046875 199.573242188 675.049804688 203.055664062 c 2
 675.049804688 635.555664062 l 1
 702.827148438 635.555664062 l 1
 702.827148438 204.444335938 l 2
 734.14453125 198.713867188 759.655273438 168.225585938 759.772460938 136.388671875 c 0
 759.724609375 127.38671875 756.365234375 113.573242188 752.272460938 105.555664062 c 0
 772.581054688 87.71875 802.448242188 55.861328125 818.938476562 34.4443359375 c 2
 834.216796875 15.27734375 l 2
 837.983398438 17.0087890625 844.330078125 19.125 848.3828125 20 c 2
 848.3828125 466.666992188 l 1
 876.161132812 466.666992188 l 1
 876.161132812 20 l 1
209.494140625 -48.0556640625 m 2
 210.60546875 -48.0556640625 l 2
 210.610351562 -47.8251953125 210.61328125 -47.4521484375 210.61328125 -47.22265625 c 0
 210.61328125 -24.22265625 191.947265625 -5.5556640625 168.947265625 -5.5556640625 c 0
 168.944335938 -5.5556640625 168.94140625 -5.5556640625 168.938476562 -5.5556640625 c 0
 168.634765625 -5.5478515625 168.140625 -5.541015625 167.8359375 -5.541015625 c 0
 144.8359375 -5.541015625 126.169921875 -24.2080078125 126.169921875 -47.2080078125 c 0
 126.169921875 -70.2080078125 144.8359375 -88.8740234375 167.8359375 -88.8740234375 c 0
 190.373046875 -88.8740234375 209.03515625 -70.587890625 209.494140625 -48.0556640625 c 2
378.661132812 140 m 0
 378.661132812 163 359.994140625 181.666992188 336.994140625 181.666992188 c 0
 313.994140625 181.666992188 295.327148438 163 295.327148438 140 c 0
 295.327148438 117 313.994140625 98.3330078125 336.994140625 98.3330078125 c 0
 359.994140625 98.3330078125 378.661132812 117 378.661132812 140 c 0
511.716796875 157.22265625 m 2
 512.272460938 157.22265625 l 2
 534.965820312 157.524414062 553.3828125 176.189453125 553.3828125 198.884765625 c 0
 553.3828125 198.885742188 553.3828125 198.887695312 553.3828125 198.888671875 c 0
 553.3828125 221.888671875 534.716796875 240.555664062 511.716796875 240.555664062 c 0
 488.716796875 240.555664062 470.049804688 221.888671875 470.049804688 198.888671875 c 0
 470.049804688 175.888671875 488.716796875 157.22265625 511.716796875 157.22265625 c 2
689.772460938 93.888671875 m 2
 690.327148438 93.888671875 l 2
 713.020507812 94.19140625 731.438476562 112.856445312 731.438476562 135.551757812 c 0
 731.438476562 135.552734375 731.438476562 135.5546875 731.438476562 135.555664062 c 0
 731.438476562 158.555664062 712.772460938 177.22265625 689.772460938 177.22265625 c 0
 666.772460938 177.22265625 648.10546875 158.555664062 648.10546875 135.555664062 c 0
 648.10546875 112.555664062 666.772460938 93.888671875 689.772460938 93.888671875 c 2
861.994140625 -89.4443359375 m 2
 862.549804688 -88.888671875 l 2
 884.946289062 -88.591796875 903.364257812 -70.1748046875 903.661132812 -47.77734375 c 0
 903.661132812 -24.77734375 884.994140625 -6.111328125 861.994140625 -6.111328125 c 0
 838.994140625 -6.111328125 820.327148438 -24.77734375 820.327148438 -47.77734375 c 0
 820.327148438 -70.77734375 838.994140625 -89.4443359375 861.994140625 -89.4443359375 c 2
EndSplineSet
Validated: 5
EndChar

StartChar: NameMe.4586
Encoding: 4586 58005 530
Width: 1033
VWidth: 0
Flags: W
HStem: -116.311 27.4365<138.787 199.429 832.878 894.286> -5.55566 26.667<177.271 191.936> 68.2178 30.1152<307.024 369.793 656.061 726.056> 129.282 27.9404<482.521 543.714> 181.667 28.6758<307.568 369.101 664.704 717.505> 240.556 28.6113<482.498 544.188>
VStem: 100 27.5586<-77.5837 -16.6895> 149.494 27.7773<21.1113 463.611> 212.002 26.3311<-75.5996 -17.621> 268.403 28.3125<112.795 170.996> 380.05 30.3613<108.39 158.303> 443.383 28.0557<196.746 229.727> 554.771 27.5<196.769 228.293> 624.057 25.4375<106.339 153.167> 732.827 28.3369<105.936 165.519> 795.206 26.7881<-77.5458 -48.0557 -47.7773 -17.2767> 849.771 27.7783<20 466.667> 905.05 28.4893<-78.8315 -16.7314>
LayerCount: 4
Fore
SplineSet
877.549804688 20 m 5
 877.827148438 20.27734375 l 6
 908.580078125 14.1787109375 933.5390625 -16.2158203125 933.5390625 -47.5673828125 c 4
 933.5390625 -85.748046875 902.552734375 -116.734375 864.372070312 -116.734375 c 4
 826.192382812 -116.734375 795.206054688 -85.748046875 795.206054688 -47.5673828125 c 4
 795.206054688 -32.7177734375 803.349609375 -11.7802734375 813.3828125 -0.8330078125 c 6
 798.938476562 17.5 l 6
 783.481445312 37.15234375 755.60546875 66.396484375 736.715820312 82.77734375 c 4
 726.21484375 74.28515625 706.729492188 67.392578125 693.223632812 67.392578125 c 4
 655.043945312 67.392578125 624.056640625 98.37890625 624.056640625 136.55859375 c 4
 624.056640625 140.62109375 624.750976562 147.140625 625.60546875 151.111328125 c 4
 612.194335938 156.173828125 589.918945312 162.645507812 575.8828125 165.555664062 c 4
 565.120117188 145.533203125 537.936523438 129.282226562 515.204101562 129.282226562 c 4
 491.526367188 129.282226562 463.830078125 146.528320312 453.3828125 167.77734375 c 4
 440.578125 165.4609375 420.168945312 160.234375 407.827148438 156.111328125 c 4
 409.25390625 151.041015625 410.411132812 142.651367188 410.411132812 137.383789062 c 4
 410.411132812 99.2041015625 379.423828125 68.2177734375 341.244140625 68.2177734375 c 4
 323.504882812 68.2177734375 299.823242188 79.220703125 288.3828125 92.77734375 c 4
 263.616210938 72.4853515625 228.025390625 35.15234375 208.938476562 9.4443359375 c 5
 225.1640625 -1.9599609375 238.333007812 -27.310546875 238.333007812 -47.1435546875 c 4
 238.333007812 -85.3232421875 207.345703125 -116.310546875 169.166015625 -116.310546875 c 4
 130.986328125 -116.310546875 100 -85.3232421875 100 -47.1435546875 c 0
 100 -18.6455078125 122.172851562 11.0615234375 149.494140625 19.1669921875 c 6
 149.494140625 463.611328125 l 5
 177.271484375 463.611328125 l 5
 177.271484375 21.111328125 l 5
 182.271484375 21.111328125 l 6
 203.865234375 50.6552734375 244.55859375 93.21484375 273.10546875 116.111328125 c 4
 270.509765625 122.786132812 268.403320312 134.014648438 268.403320312 141.17578125 c 4
 268.403320312 179.356445312 299.390625 210.342773438 337.5703125 210.342773438 c 4
 356.616210938 210.342773438 381.372070312 197.993164062 392.827148438 182.77734375 c 4
 406.509765625 187.483398438 429.159179688 193.45703125 443.3828125 196.111328125 c 4
 443.3828125 197.22265625 443.3828125 161.388671875 443.3828125 199.72265625 c 4
 443.3828125 238.055664062 474.494140625 269.166992188 512.827148438 269.166992188 c 4
 551.161132812 269.166992188 582.271484375 238.055664062 582.271484375 199.72265625 c 4
 582.271484375 197.5 582.271484375 195.555664062 582.271484375 193.333007812 c 4
 597.41015625 190.119140625 621.427734375 183.025390625 635.8828125 177.5 c 4
 647.310546875 193.358398438 672.450195312 206.229492188 691.997070312 206.229492188 c 4
 730.177734375 206.229492188 761.1640625 175.2421875 761.1640625 137.0625 c 4
 761.1640625 136.876953125 761.162109375 136.575195312 761.161132812 136.388671875 c 4
 761.11328125 127.38671875 757.75390625 113.573242188 753.661132812 105.555664062 c 4
 773.969726562 87.71875 803.836914062 55.861328125 820.327148438 34.4443359375 c 6
 835.60546875 15.27734375 l 6
 839.372070312 17.0087890625 845.71875 19.125 849.771484375 20 c 6
 849.771484375 466.666992188 l 5
 877.549804688 466.666992188 l 5
 877.549804688 20 l 5
210.8828125 -48.0556640625 m 6
 211.994140625 -48.0556640625 l 6
 211.999023438 -47.8251953125 212.001953125 -47.4521484375 212.001953125 -47.22265625 c 4
 212.001953125 -24.22265625 193.3359375 -5.5556640625 170.3359375 -5.5556640625 c 4
 170.333007812 -5.5556640625 170.330078125 -5.5556640625 170.327148438 -5.5556640625 c 4
 170.0234375 -5.5478515625 169.529296875 -5.541015625 169.224609375 -5.541015625 c 4
 146.224609375 -5.541015625 127.55859375 -24.2080078125 127.55859375 -47.2080078125 c 4
 127.55859375 -70.2080078125 146.224609375 -88.8740234375 169.224609375 -88.8740234375 c 4
 191.76171875 -88.8740234375 210.423828125 -70.587890625 210.8828125 -48.0556640625 c 6
380.049804688 140 m 4
 380.049804688 163 361.3828125 181.666992188 338.3828125 181.666992188 c 4
 315.3828125 181.666992188 296.715820312 163 296.715820312 140 c 4
 296.715820312 117 315.3828125 98.3330078125 338.3828125 98.3330078125 c 4
 361.3828125 98.3330078125 380.049804688 117 380.049804688 140 c 4
513.10546875 157.22265625 m 6
 513.661132812 157.22265625 l 6
 536.354492188 157.524414062 554.771484375 176.189453125 554.771484375 198.884765625 c 4
 554.771484375 198.885742188 554.771484375 198.887695312 554.771484375 198.888671875 c 4
 554.771484375 221.888671875 536.10546875 240.555664062 513.10546875 240.555664062 c 4
 490.10546875 240.555664062 471.438476562 221.888671875 471.438476562 198.888671875 c 4
 471.438476562 175.888671875 490.10546875 157.22265625 513.10546875 157.22265625 c 6
691.161132812 93.888671875 m 6
 691.715820312 93.888671875 l 6
 714.409179688 94.19140625 732.827148438 112.856445312 732.827148438 135.551757812 c 4
 732.827148438 135.552734375 732.827148438 135.5546875 732.827148438 135.555664062 c 4
 732.827148438 158.555664062 714.161132812 177.22265625 691.161132812 177.22265625 c 4
 668.161132812 177.22265625 649.494140625 158.555664062 649.494140625 135.555664062 c 4
 649.494140625 112.555664062 668.161132812 93.888671875 691.161132812 93.888671875 c 6
821.715820312 -47.77734375 m 6
 821.994140625 -48.0556640625 l 6
 822.14453125 -70.7509765625 840.6875 -89.2939453125 863.3828125 -89.4443359375 c 4
 886.3828125 -89.4443359375 905.049804688 -70.77734375 905.049804688 -47.77734375 c 4
 905.049804688 -24.77734375 886.3828125 -6.111328125 863.3828125 -6.111328125 c 4
 840.3828125 -6.111328125 821.715820312 -24.77734375 821.715820312 -47.77734375 c 6
EndSplineSet
Validated: 5
EndChar

StartChar: NameMe.4587
Encoding: 4587 58006 531
Width: 1144
VWidth: 0
Flags: W
HStem: -30.833 27.7773<324.224 558.334 586.111 820.221> 626.389 27.7783<324.294 558.334 586.111 820.151>
VStem: 100 27.7783<193.39 430.139> 558.334 27.7773<-3.05566 626.389> 1016.67 27.7783<193.39 430.139>
CounterMasks: 1 38
LayerCount: 4
Fore
SplineSet
1016.66699219 347.22265625 m 1026,0,-1
737.22265625 654.166992188 m 2,1,-1
 906.50390625 654.013671875 1044.13867188 516.502929688 1044.4453125 347.22265625 c 2,4,-1
 1044.4453125 276.388671875 l 2,5,-1
 1044.29199219 106.955078125 906.65625 -30.6806640625 737.22265625 -30.8330078125 c 2,8,-1
 407.22265625 -30.8330078125 l 2,9,-1
 237.7890625 -30.6806640625 100.153320312 106.955078125 100 276.388671875 c 2,12,-1
 100 347.22265625 l 2,13,-1
 100.306640625 516.502929688 237.94140625 654.013671875 407.22265625 654.166992188 c 2,16,-1
 737.22265625 654.166992188 l 2,1,-1
127.778320312 276.388671875 m 2,17,-1
 127.931640625 122.288085938 253.122070312 -2.90234375 407.22265625 -3.0556640625 c 2,20,-1
 558.333984375 -3.0556640625 l 1,21,-1
 558.333984375 626.388671875 l 1,22,-1
 407.22265625 626.388671875 l 2,23,-1
 253.275390625 626.236328125 128.083984375 501.169921875 127.778320312 347.22265625 c 2,26,-1
 127.778320312 276.388671875 l 2,17,-1
1016.66699219 276.388671875 m 2,27,-1
 1016.66699219 347.22265625 l 2,28,-1
 1016.36132812 501.169921875 891.169921875 626.236328125 737.22265625 626.388671875 c 2,31,-1
 586.111328125 626.388671875 l 1,32,-1
 586.111328125 -3.0556640625 l 1,33,-1
 737.22265625 -3.0556640625 l 2,34,-1
 891.323242188 -2.90234375 1016.51367188 122.288085938 1016.66699219 276.388671875 c 2,27,-1
EndSplineSet
Validated: 1
EndChar

StartChar: NameMe.4672
Encoding: 4672 58008 532
Width: 588
VWidth: 0
Flags: W
HStem: 287.777 27.7783<127.777 461.111>
VStem: 100 27.7773<-110.277 287.777 315.556 716.667> 461.111 27.7773<-116.667 287.777>
LayerCount: 4
Fore
SplineSet
127.77734375 315.555664062 m 1
 488.888671875 315.555664062 l 1
 488.888671875 -116.666992188 l 1
 461.111328125 -116.666992188 l 1
 461.111328125 287.77734375 l 1
 127.77734375 287.77734375 l 1
 127.77734375 -110.27734375 l 1
 100 -110.27734375 l 1
 100 716.666992188 l 1
 127.77734375 716.666992188 l 1
 127.77734375 315.555664062 l 1
EndSplineSet
Validated: 1
EndChar

StartChar: NameMe.4673
Encoding: 4673 58009 533
Width: 910
VWidth: 0
Flags: W
HStem: -116.389 27.7773<100 297.751> 230.277 138.89<419.453 519.99> 688.889 27.7783<107.777 294.099>
VStem: 400.277 138.889<249.453 349.991> 781.973 28.334<217.327 388.626>
LayerCount: 4
Fore
SplineSet
681.943359375 586.111328125 m 0
 751.8203125 524.807617188 809.313476562 399.6171875 810.27734375 306.666992188 c 0
 810.293945312 305.33203125 810.306640625 303.165039062 810.306640625 301.831054688 c 0
 810.306640625 208.563476562 754.54296875 81.6806640625 685.833007812 18.611328125 c 0
 539.166015625 -116.388671875 378.055664062 -116.388671875 112.77734375 -116.388671875 c 2
 100 -116.388671875 l 1
 100 -88.611328125 l 1
 110.833007812 -88.611328125 l 2
 370.833007812 -88.611328125 527.5 -87.5 666.388671875 39.1669921875 c 0
 730.19140625 97.6455078125 781.97265625 215.34765625 781.97265625 301.89453125 c 0
 781.97265625 303.134765625 781.958984375 305.1484375 781.943359375 306.388671875 c 0
 781.118164062 392.461914062 727.98046875 508.444335938 663.333007812 565.27734375 c 0
 524.443359375 688.888671875 366.388671875 688.888671875 107.77734375 688.888671875 c 1
 107.77734375 716.666992188 l 1
 363.888671875 716.666992188 533.611328125 716.666992188 681.943359375 586.111328125 c 0
400.27734375 299.72265625 m 0
 400.27734375 338.075195312 431.369140625 369.166992188 469.720703125 369.166992188 c 0
 508.075195312 369.166992188 539.166015625 338.075195312 539.166015625 299.72265625 c 0
 539.166015625 261.369140625 508.075195312 230.27734375 469.720703125 230.27734375 c 0
 431.369140625 230.27734375 400.27734375 261.369140625 400.27734375 299.72265625 c 0
EndSplineSet
Validated: 1
EndChar

StartChar: NameMe.4674
Encoding: 4674 58010 534
Width: 1028
VWidth: 0
Flags: W
HStem: -25.833 27.71<440.786 598.36>
VStem: 211.111 26.667<396.028 426.691> 789.444 27.7783<392.861 426.613>
LayerCount: 4
Fore
SplineSet
908.333984375 223.611328125 m 2
 859.57421875 269.69140625 806.311523438 359.7890625 789.444335938 424.72265625 c 2
 817.22265625 432.22265625 l 2
 833.001953125 371.522460938 882.779296875 287.2734375 928.333984375 244.166992188 c 2
 908.333984375 223.611328125 l 2
211.111328125 432.22265625 m 2
 237.778320312 424.72265625 l 2
 220.911132812 359.7890625 167.6484375 269.69140625 118.888671875 223.611328125 c 2
 100 244.166992188 l 2
 145.5546875 287.2734375 195.33203125 371.522460938 211.111328125 432.22265625 c 2
570.514648438 446.793945312 m 1
 403.372070312 612.774414062 l 1
 422.944335938 632.484375 l 1
 590.087890625 466.50390625 l 1
 570.514648438 446.793945312 l 1
769.444335938 135.833007812 m 2
 791.388671875 120.555664062 l 2
 740.390625 42.396484375 623.288085938 -23.185546875 530 -25.8330078125 c 2
 519.166992188 -25.8330078125 l 2
 419.931640625 -25.01171875 291.380859375 40.3212890625 232.22265625 120 c 2
 254.444335938 136.666992188 l 2
 309.616210938 62.2626953125 429.569335938 1.876953125 522.197265625 1.876953125 c 0
 524.043945312 1.876953125 527.041992188 1.9072265625 528.888671875 1.9443359375 c 0
 614.708007812 3.99609375 722.4765625 63.978515625 769.444335938 135.833007812 c 2
EndSplineSet
Validated: 1
EndChar

StartChar: NameMe.4675
Encoding: 4675 58011 535
Width: 1007
VWidth: 0
Flags: W
HStem: -116.667 27.7783<127.777 877.777> 688.889 27.7832<128.889 257.534>
VStem: 100 27.7773<-88.8887 688.889> 877.777 30<-88.8887 61.8439>
LayerCount: 4
Fore
SplineSet
905.555664062 -116.666992188 m 1
 100 -116.666992188 l 1
 100 716.666992188 l 1
 115.555664062 716.666992188 l 2
 116.32421875 716.668945312 117.571289062 716.671875 118.338867188 716.671875 c 0
 552.431640625 716.671875 906.100585938 364.3671875 907.77734375 -69.72265625 c 0
 907.77734375 -76.6669921875 907.77734375 -83.611328125 907.77734375 -90.27734375 c 0
 907.77734375 -96.9443359375 907.77734375 -98.3330078125 907.77734375 -102.22265625 c 2
 905.555664062 -116.666992188 l 1
127.77734375 -88.888671875 m 1
 877.77734375 -88.888671875 l 2
 877.77734375 -82.77734375 877.77734375 -76.9443359375 877.77734375 -70.5556640625 c 0
 876.780273438 341.887695312 541.27734375 682.119140625 128.888671875 688.888671875 c 1
 127.77734375 -88.888671875 l 1
EndSplineSet
Validated: 1
EndChar

StartChar: NameMe.4676
Encoding: 4676 58012 536
Width: 572
VWidth: 0
Flags: W
HStem: 695 26.667<127.5 445>
VStem: 100 27.7783<139.444 695> 445 27.5<139.444 695>
LayerCount: 4
Fore
SplineSet
283.611328125 -121.666992188 m 1
 100 130.27734375 l 1
 100 721.666992188 l 1
 472.5 721.666992188 l 1
 472.5 130 l 1
 283.611328125 -121.666992188 l 1
127.778320312 139.444335938 m 1
 284.166992188 -75 l 1
 445 139.444335938 l 1
 445 695 l 1
 127.5 695 l 1
 127.778320312 139.444335938 l 1
EndSplineSet
Validated: 1
EndChar

StartChar: NameMe.4677
Encoding: 4677 58013 537
Width: 1044
VWidth: 0
Flags: W
HStem: 6.64258 26.9199<127.777 767.551> 299.723 27.7773<127.777 625> 563.889 27.7783<127.777 772.374>
VStem: 100 27.7773<33.6113 299.723 327.5 563.889> 918.111 26.333<212.868 391.798>
LayerCount: 4
Fore
SplineSet
700 591.666992188 m 6
 868.610351562 591.666992188 945.5546875 440.555664062 944.444335938 299.444335938 c 4
 945.736328125 236.313476562 918.879882812 149.671875 883.888671875 99.4443359375 c 4
 847.188476562 48.2177734375 766.258789062 6.642578125 703.2421875 6.642578125 c 4
 702.34765625 6.642578125 700.89453125 6.6533203125 700 6.6669921875 c 6
 100 6.6669921875 l 5
 100 591.666992188 l 5
 700 591.666992188 l 6
862.77734375 115.27734375 m 6
 862.5 115.833007812 l 6
 893.197265625 159.912109375 918.111328125 239.28125 918.111328125 292.99609375 c 4
 918.111328125 294.622070312 918.0859375 297.262695312 918.0546875 298.888671875 c 4
 918.0546875 426.388671875 849.721679688 563.888671875 700 563.888671875 c 6
 127.77734375 563.888671875 l 5
 127.77734375 327.5 l 5
 625 327.5 l 5
 625 299.72265625 l 5
 127.77734375 299.72265625 l 5
 127.77734375 33.611328125 l 5
 700 33.611328125 l 6
 701.19921875 33.583984375 703.145507812 33.5625 704.344726562 33.5625 c 4
 759.705078125 33.5625 830.682617188 70.1708984375 862.77734375 115.27734375 c 6
EndSplineSet
Validated: 33
EndChar

StartChar: NameMe.4678
Encoding: 4678 58014 538
Width: 917
VWidth: 0
Flags: W
VStem: 100 27.7783<110 486.667> 444.723 27.7773<-73.0557 302.5> 789.444 27.7783<110 486.944>
CounterMasks: 1 e0
LayerCount: 4
Fore
SplineSet
458.611328125 716.666992188 m 1
 817.22265625 508.333007812 l 1
 817.22265625 94.1669921875 l 1
 458.611328125 -113.055664062 l 1
 100 94.1669921875 l 1
 100 508.333007812 l 1
 458.611328125 716.666992188 l 1
766.388671875 505.555664062 m 1
 458.611328125 683.333007812 l 1
 150.833984375 505.555664062 l 1
 464.166992188 329.72265625 l 1
 766.388671875 505.555664062 l 1
127.5 486.666992188 m 1
 127.778320312 110 l 1
 444.72265625 -73.0556640625 l 1
 444.72265625 308.611328125 l 1
 127.5 486.666992188 l 1
472.5 -73.0556640625 m 1
 789.444335938 110 l 1
 789.444335938 486.944335938 l 1
 472.5 302.5 l 1
 472.5 -73.0556640625 l 1
EndSplineSet
Validated: 1
EndChar

StartChar: NameMe.4679
Encoding: 4679 58015 539
Width: 1023
VWidth: 0
Flags: W
HStem: 550 28.0557<255.222 372.728 645.662 760.812>
VStem: 100 27.7773<-116.667 96.5995> 491.944 27.7773<263.889 343.304> 896.111 27.7773<-116.667 69.2724>
LayerCount: 4
Fore
SplineSet
923.888671875 -116.666992188 m 1
 896.111328125 -116.666992188 l 1
 896.111328125 309.444335938 886.666992188 550 695.555664062 550 c 0
 547.77734375 550 520 266.666992188 519.721679688 263.888671875 c 2
 491.944335938 263.888671875 l 2
 491.944335938 266.666992188 467.5 550 323.333007812 550 c 0
 234.166992188 550 180.555664062 497.22265625 153.611328125 377.5 c 0
 127.77734375 263.055664062 127.77734375 99.72265625 127.77734375 -90.8330078125 c 2
 127.77734375 -116.666992188 l 1
 100 -116.666992188 l 1
 100 -90.8330078125 l 2
 100 100.833007812 100 266.111328125 127.77734375 383.611328125 c 0
 157.77734375 516.388671875 220.27734375 578.055664062 324.721679688 578.055664062 c 0
 438.611328125 578.055664062 487.5 443.055664062 507.77734375 350.555664062 c 1
 528.055664062 443.333007812 579.444335938 577.77734375 695.555664062 577.77734375 c 0
 923.888671875 577.77734375 923.888671875 272.22265625 923.888671875 -116.666992188 c 1
EndSplineSet
Validated: 1
EndChar

StartChar: NameMe.4680
Encoding: 4680 58112 540
Width: 577
VWidth: 0
Flags: W
HStem: -138 49.667<127.777 450>
VStem: 72 55.7773<-88.333 716.667> 450 46<-88.333 716>
LayerCount: 4
Fore
SplineSet
496 -140 m 1
 72 -138 l 1
 78 718 l 1
 127.77734375 716.666992188 l 1
 127.77734375 -88.3330078125 l 1
 450 -88.3330078125 l 1
 450 716.666992188 l 1
 496 716 l 5
 496 -140 l 1
EndSplineSet
Validated: 1
EndChar

StartChar: NameMe.4681
Encoding: 4681 58113 541
Width: 1029
VWidth: 0
Flags: W
VStem: 507.223 28.9014<523.157 716.667>
LayerCount: 4
Fore
SplineSet
485.833984375 344.444335938 m 0
 537.22265625 165 670 34.4443359375 929.72265625 -91.6669921875 c 1
 917.5 -116.666992188 l 1
 670.278320312 3.611328125 530.555664062 133.333007812 470 302.22265625 c 1
 411.041015625 154.265625 251.876953125 -31.5302734375 114.72265625 -112.5 c 1
 100 -88.888671875 l 1
 381.944335938 85.27734375 518.888671875 355.555664062 507.22265625 716.666992188 c 1
 535 716.666992188 l 2
 535.62109375 703.17578125 536.124023438 681.266601562 536.124023438 667.76171875 c 0
 536.124023438 576.3671875 513.59375 431.521484375 485.833984375 344.444335938 c 0
313.055664062 372.77734375 m 2
 239.372070312 432.502929688 148.65234375 551.471679688 110.555664062 638.333007812 c 2
 136.111328125 649.444335938 l 2
 172.701171875 566.04296875 259.8125 451.802734375 330.555664062 394.444335938 c 2
 313.055664062 372.77734375 l 2
915.833984375 638.055664062 m 2
 877.737304688 551.193359375 787.016601562 432.224609375 713.333984375 372.5 c 2
 695.833984375 394.166992188 l 2
 766.583984375 451.51953125 853.6953125 565.759765625 890.278320312 649.166992188 c 2
 915.833984375 638.055664062 l 2
EndSplineSet
Validated: 33
EndChar

StartChar: NameMe.4682
Encoding: 4682 58114 542
Width: 1033
VWidth: 0
Flags: W
HStem: -116.663 27.7705<422.605 610.728> 688.886 27.7842<421.314 610.729>
VStem: 100 27.7773<204.574 395.44> 362.223 27.7773<250.045 349.926> 640 27.7773<250.074 349.955> 905.555 27.7773<205.939 394.065>
LayerCount: 4
Fore
SplineSet
515 716.666992188 m 0
 515.459960938 716.668945312 516.20703125 716.669921875 516.666992188 716.669921875 c 0
 746.666992188 716.669921875 933.33203125 530.002929688 933.33203125 300.002929688 c 0
 933.33203125 300.001953125 933.33203125 300.000976562 933.33203125 300 c 0
 933.331054688 70.001953125 746.6640625 -116.663085938 516.666992188 -116.663085938 c 0
 286.666992188 -116.663085938 100 70.0029296875 100 300.002929688 c 0
 100 529.084960938 285.919921875 715.75 515 716.666992188 c 0
515 -88.888671875 m 0
 515.459960938 -88.890625 516.20703125 -88.892578125 516.666992188 -88.892578125 c 0
 731.33203125 -88.892578125 905.5546875 85.330078125 905.5546875 299.99609375 c 0
 905.5546875 299.997070312 905.5546875 299.999023438 905.5546875 300 c 0
 905.553710938 514.665039062 731.331054688 688.885742188 516.666992188 688.885742188 c 0
 302 688.885742188 127.77734375 514.663085938 127.77734375 299.99609375 c 0
 127.77734375 86.248046875 301.252929688 -87.97265625 515 -88.888671875 c 0
667.77734375 300 m 1
 663.911132812 108.477539062 366.090820312 108.33203125 362.22265625 300 c 1
 366.087890625 491.522460938 663.908203125 491.66796875 667.77734375 300 c 1
390 300 m 1
 393.84765625 144.37109375 636.153320312 144.487304688 640 300 c 1
 636.151367188 455.62890625 393.845703125 455.512695312 390 300 c 1
EndSplineSet
Validated: 33
EndChar

StartChar: NameMe.4683
Encoding: 4683 58115 543
Width: 814
VWidth: 0
Flags: W
HStem: -116.749 27.8604<312.863 507.745>
VStem: 100 27.8018<59.625 716.667> 686.69 27.7783<59.2705 716.667>
LayerCount: 4
Fore
SplineSet
407.24609375 -116.666992188 m 0
 405.10546875 -116.711914062 401.631835938 -116.749023438 399.491210938 -116.749023438 c 0
 338.723632812 -116.749023438 248.2421875 -89.5830078125 197.5234375 -56.111328125 c 0
 143.690429688 -20.1923828125 100 61.4833984375 100 126.19921875 c 0
 100 127.094726562 100.010742188 128.548828125 100.0234375 129.444335938 c 2
 100.0234375 716.666992188 l 1
 127.801757812 716.666992188 l 1
 127.801757812 129.72265625 l 2
 127.801757812 -20 272.5234375 -88.888671875 407.24609375 -88.888671875 c 0
 541.96875 -88.888671875 686.690429688 -20.5556640625 686.690429688 129.444335938 c 2
 686.690429688 716.666992188 l 1
 714.46875 716.666992188 l 1
 714.46875 129.72265625 l 2
 714.46875 -39.1669921875 555.301757812 -116.666992188 407.24609375 -116.666992188 c 0
EndSplineSet
Validated: 1
EndChar

StartChar: NameMe.4684
Encoding: 4684 58116 544
Width: 1033
VWidth: 0
Flags: W
HStem: 128.115 27.7178<457.113 576.221> 164.444 27.7783<100 384.444 648.056 933.334> 280.277 27.7783<100 351.785 681.549 933.334> 396.111 27.7773<100 385.278 648.89 933.334> 433.611 26.6074<458.641 574.693>
LayerCount: 4
Fore
SplineSet
933.333984375 396.111328125 m 1
 648.889648438 396.111328125 l 2
 665.677734375 374.65625 681.108398438 335.20703125 683.333984375 308.055664062 c 2
 933.333984375 308.055664062 l 1
 933.333984375 280.27734375 l 1
 683.333984375 280.27734375 l 2
 680.904296875 253.046875 665.099609375 213.59765625 648.055664062 192.22265625 c 2
 933.333984375 192.22265625 l 1
 933.333984375 164.444335938 l 1
 627.778320312 164.444335938 l 1
 627.778320312 170.555664062 l 2
 601.5859375 147.127929688 551.807617188 128.115234375 516.666992188 128.115234375 c 0
 481.526367188 128.115234375 431.748046875 147.127929688 405.555664062 170.555664062 c 2
 405.555664062 164.444335938 l 1
 100 164.444335938 l 1
 100 192.22265625 l 1
 384.444335938 192.22265625 l 2
 367.65625 213.677734375 352.225585938 253.125976562 350 280.27734375 c 2
 100 280.27734375 l 1
 100 308.055664062 l 1
 350 308.055664062 l 2
 352.4296875 335.286132812 368.234375 374.735351562 385.278320312 396.111328125 c 2
 100 396.111328125 l 1
 100 423.888671875 l 1
 405.555664062 423.888671875 l 1
 405.555664062 417.77734375 l 2
 431.748046875 441.205078125 481.526367188 460.21875 516.666992188 460.21875 c 0
 551.807617188 460.21875 601.5859375 441.205078125 627.778320312 417.77734375 c 2
 627.778320312 423.888671875 l 1
 933.333984375 423.888671875 l 1
 933.333984375 396.111328125 l 1
516.666992188 155.833007812 m 0
 593.333984375 155.833007812 655.555664062 218.055664062 655.555664062 294.72265625 c 0
 655.555664062 371.388671875 593.333984375 433.611328125 516.666992188 433.611328125 c 0
 440 433.611328125 377.778320312 371.388671875 377.778320312 294.72265625 c 0
 377.778320312 218.055664062 440 155.833007812 516.666992188 155.833007812 c 0
EndSplineSet
Validated: 1
EndChar

StartChar: NameMe.4685
Encoding: 4685 58117 545
Width: 1036
VWidth: 0
Flags: W
HStem: 63.8887 27.7783<127.779 908.891> 526.944 27.7783<127.779 291.668 319.445 500.557 528.335 709.445 737.223 909.723>
VStem: 100 27.7793<91.667 526.944> 291.668 27.7773<272.223 526.944> 500.557 27.7783<272.223 526.944> 709.445 27.7773<272.223 526.944> 908.891 27.7773<91.667 526.944>
LayerCount: 4
Fore
SplineSet
100 554.72265625 m 1
 936.66796875 554.72265625 l 1
 936.66796875 63.888671875 l 1
 100 63.888671875 l 1
 100 554.72265625 l 1
908.890625 91.6669921875 m 1
 909.72265625 526.944335938 l 1
 737.22265625 526.944335938 l 1
 737.22265625 272.22265625 l 1
 709.4453125 272.22265625 l 1
 709.4453125 526.944335938 l 1
 528.334960938 526.944335938 l 1
 528.334960938 272.22265625 l 1
 500.556640625 272.22265625 l 1
 500.556640625 526.944335938 l 1
 319.4453125 526.944335938 l 1
 319.4453125 272.22265625 l 1
 291.66796875 272.22265625 l 1
 291.66796875 526.944335938 l 1
 127.779296875 526.944335938 l 1
 127.779296875 91.6669921875 l 1
 908.890625 91.6669921875 l 1
EndSplineSet
Validated: 1
EndChar

StartChar: NameMe.4686
Encoding: 4686 58118 546
Width: 1031
VWidth: 0
Flags: W
HStem: -116.667 27.7783<127.778 501.667 529.444 903.333>
VStem: 100 27.7783<-88.8887 143.333> 501.667 27.7773<-88.8887 716.667> 903.333 27.7783<-88.8887 143.333>
CounterMasks: 1 70
LayerCount: 4
Fore
SplineSet
903.333007812 143.333007812 m 1
 931.111328125 143.333007812 l 1
 931.111328125 -116.666992188 l 1
 529.444335938 -116.666992188 l 1
 501.666992188 -116.666992188 l 1
 100 -116.666992188 l 1
 100 143.333007812 l 1
 127.778320312 143.333007812 l 1
 127.778320312 -88.888671875 l 1
 501.666992188 -88.888671875 l 1
 501.666992188 716.666992188 l 1
 529.444335938 716.666992188 l 1
 529.444335938 -88.888671875 l 1
 903.333007812 -88.888671875 l 1
 903.333007812 143.333007812 l 1
EndSplineSet
Validated: 1
EndChar

StartChar: NameMe.4687
Encoding: 4687 58119 547
Width: 1035
VWidth: 0
Flags: W
HStem: -1.11133 28.0557<139.248 500.359 518.415 884.248> 573.611 27.2217<138.971 500.082 518.415 884.248>
VStem: 101.748 27.7783<57.5 542.223> 907.304 27.7783<40.2773 559.167>
LayerCount: 4
Fore
SplineSet
935.08203125 600.833007812 m 1
 935.08203125 -1.111328125 l 1
 115.915039062 -1.111328125 l 2
 114.956054688 -2.2158203125 113.08984375 -3.5849609375 111.748046875 -4.1669921875 c 2
 111.748046875 -1.111328125 l 1
 101.748046875 -1.111328125 l 1
 101.748046875 16.6669921875 l 1
 99.7255859375 18.630859375 99.126953125 20.5166015625 101.748046875 22.22265625 c 1
 101.97265625 213.596679688 101.44140625 416.873046875 101.748046875 600.833007812 c 1
 111.470703125 600.833007812 l 1
 111.470703125 603.888671875 l 2
 112.8125 603.306640625 114.678710938 601.9375 115.637695312 600.833007812 c 2
 935.08203125 600.833007812 l 1
509.526367188 538.055664062 m 2
 441.748046875 442.77734375 385.915039062 364.444335938 340.359375 300 c 0
 387.026367188 235.27734375 442.859375 156.944335938 510.637695312 61.6669921875 c 2
 685.08203125 300 l 1
 509.526367188 538.055664062 l 2
322.026367188 323.611328125 m 1
 382.303710938 407.22265625 445.08203125 494.444335938 497.859375 570.555664062 c 2
 500.08203125 573.611328125 l 1
 138.970703125 573.611328125 l 2
 164.803710938 539.72265625 216.470703125 470.27734375 322.026367188 323.611328125 c 1
518.415039062 573.611328125 m 1
 701.470703125 323.611328125 l 1
 884.248046875 573.611328125 l 1
 518.415039062 573.611328125 l 1
322.303710938 277.22265625 m 1
 217.026367188 130 165.08203125 60.27734375 139.248046875 27.22265625 c 2
 500.359375 27.22265625 l 1
 446.09765625 101.830078125 382.930664062 191.334960938 322.303710938 277.22265625 c 1
701.470703125 276.944335938 m 1
 518.415039062 26.9443359375 l 1
 884.248046875 26.9443359375 l 1
 701.470703125 276.944335938 l 1
718.415039062 300 m 1
 907.303710938 40.27734375 l 1
 907.303710938 559.166992188 l 1
 718.415039062 300 l 1
129.526367188 542.22265625 m 2
 129.526367188 57.5 l 2
 165.637695312 106.944335938 232.303710938 198.611328125 304.803710938 300 c 1
 232.303710938 400.833007812 165.637695312 492.5 129.526367188 542.22265625 c 2
EndSplineSet
Validated: 33
EndChar

StartChar: NameMe.4688
Encoding: 4688 58120 548
Width: 1033
VWidth: 0
Flags: W
HStem: 35.5557 27.7773<392.489 640.845> 536.667 27.7773<392.91 640.424>
VStem: 100 27.7783<240.625 359.373> 905.556 27.7783<240.625 359.375>
LayerCount: 4
Fore
SplineSet
516.666992188 35.5556640625 m 0
 286.944335938 35.5556640625 100 154.166992188 100 300 c 0
 100 445.833007812 286.944335938 564.444335938 516.666992188 564.444335938 c 0
 746.389648438 564.444335938 933.333984375 445.833007812 933.333984375 300 c 0
 933.333984375 154.166992188 746.389648438 35.5556640625 516.666992188 35.5556640625 c 0
516.666992188 535.555664062 m 1
 302.22265625 536.666992188 127.778320312 430.555664062 127.778320312 300 c 0
 127.778320312 169.444335938 302.22265625 63.3330078125 516.666992188 63.3330078125 c 0
 731.111328125 63.3330078125 905.555664062 169.444335938 905.555664062 300 c 0
 905.555664062 430.555664062 731.111328125 536.666992188 516.666992188 536.666992188 c 1
 516.666992188 535.555664062 l 1
EndSplineSet
Validated: 33
EndChar

StartChar: NameMe.4689
Encoding: 4689 58121 549
Width: 896
VWidth: 0
Flags: W
LayerCount: 4
Fore
SplineSet
610 -116.666992188 m 0
 561.8046875 -115.34375 487.138671875 -97.921875 443.334960938 -77.77734375 c 0
 363.334960938 -46.388671875 287.5 -16.6669921875 130.556640625 -77.77734375 c 2
 100 -88.888671875 l 1
 438.890625 716.666992188 l 1
 464.4453125 705.833007812 l 1
 150.556640625 -40 l 2
 187.374023438 -25.5205078125 249.36328125 -13.7685546875 288.92578125 -13.7685546875 c 0
 336.678710938 -13.7685546875 410.333984375 -30.6220703125 453.334960938 -51.388671875 c 0
 536.66796875 -84.1669921875 615.556640625 -115 786.66796875 -51.388671875 c 1
 796.390625 -77.5 l 2
 746.9453125 -97.8251953125 663.444335938 -115.37109375 610 -116.666992188 c 0
EndSplineSet
Validated: 33
EndChar

StartChar: NameMe.4690
Encoding: 4690 58122 550
Width: 1034
VWidth: 0
Flags: W
HStem: -49.167 27.7773<313.98 393.61 640.833 721.183> 125.557 28.0537<304.342 396.219 630.791 723.183> 334.165 27.502<304.001 395.708 628.072 725.816> 510.278 27.7773<313.98 393.61 640.833 719.856>
VStem: 100 26.1104<164.758 324.131> 232.225 27.7764<197.484 290.033> 440.556 27.7803<197.674 290.059> 558.334 27.7754<199.72 291.155> 767.775 27.7812<198.506 291.155> 906.666 27.7793<164.202 323.575>
LayerCount: 4
Fore
SplineSet
349.72265625 361.666992188 m 0
 349.80078125 361.666992188 349.926757812 361.666992188 350.004882812 361.666992188 c 0
 414.71484375 361.666992188 467.7265625 309.151367188 468.333007812 244.444335938 c 0
 468.3359375 244.21484375 468.3359375 243.841796875 468.3359375 243.612304688 c 0
 468.3359375 178.4453125 415.447265625 125.556640625 350.28125 125.556640625 c 0
 285.11328125 125.556640625 232.224609375 178.4453125 232.224609375 243.612304688 c 0
 232.224609375 308.471679688 284.86328125 361.359375 349.72265625 361.666992188 c 0
349.72265625 153.611328125 m 0
 349.798828125 153.611328125 349.922851562 153.610351562 350 153.610351562 c 0
 399.986328125 153.610351562 440.555664062 194.1796875 440.555664062 244.166015625 c 0
 440.555664062 244.243164062 440.555664062 244.3671875 440.5546875 244.444335938 c 0
 440.25 293.969726562 399.805664062 334.165039062 350.279296875 334.165039062 c 0
 300.4453125 334.165039062 260.000976562 293.720703125 260.000976562 243.88671875 c 0
 260.000976562 194.360351562 300.196289062 153.916992188 349.72265625 153.611328125 c 0
795.5546875 244.444335938 m 0
 795.40234375 179.27734375 742.388671875 126.388671875 677.22265625 126.388671875 c 0
 677.145507812 126.388671875 677.020507812 126.388671875 676.9453125 126.388671875 c 0
 611.47265625 126.389648438 558.333984375 179.52734375 558.333984375 245 c 0
 558.333984375 310.473632812 611.47265625 363.611328125 676.9453125 363.611328125 c 0
 742.418945312 363.611328125 795.556640625 310.473632812 795.556640625 245 c 0
 795.556640625 244.846679688 795.555664062 244.59765625 795.5546875 244.444335938 c 0
586.110351562 244.444335938 m 2
 586.9453125 244.444335938 l 2
 587.094726562 194.915039062 627.415039062 154.470703125 676.9453125 154.166992188 c 0
 727.083007812 154.16796875 767.775390625 194.861328125 767.775390625 245 c 0
 767.775390625 295.139648438 727.08203125 335.833007812 676.942382812 335.833007812 c 0
 626.802734375 335.833007812 586.109375 295.139648438 586.109375 245 c 0
 586.109375 244.846679688 586.109375 244.59765625 586.110351562 244.444335938 c 2
640.833007812 537.5 m 1
 802.90625 537.5 934.4453125 405.961914062 934.4453125 243.888671875 c 0
 934.4453125 81.8154296875 802.90625 -49.72265625 640.833007812 -49.72265625 c 1
 640.833007812 -21.9443359375 l 1
 787.57421875 -21.9443359375 906.666015625 97.1484375 906.666015625 243.888671875 c 0
 906.666015625 390.62890625 787.57421875 509.72265625 640.833007812 509.72265625 c 1
 640.833007812 537.5 l 1
126.110351562 244.444335938 m 0
 126.720703125 97.7041015625 246.3125 -21.3896484375 393.052734375 -21.3896484375 c 0
 393.20703125 -21.3896484375 393.45703125 -21.3896484375 393.610351562 -21.388671875 c 2
 393.610351562 -49.1669921875 l 1
 231.537109375 -49.1669921875 100 82.37109375 100 244.444335938 c 0
 100 406.517578125 231.537109375 538.055664062 393.610351562 538.055664062 c 1
 393.610351562 510.27734375 l 2
 393.45703125 510.278320312 393.20703125 510.278320312 393.052734375 510.278320312 c 0
 246.3125 510.278320312 126.720703125 391.184570312 126.110351562 244.444335938 c 0
EndSplineSet
Validated: 1
EndChar

StartChar: NameMe.4691
Encoding: 4691 58123 551
Width: 1010
VWidth: 0
Flags: W
HStem: -51.9551 27.8506<349.843 503.183> 94.4365 27.7861<101.791 256.442> 510.426 27.4912<768.065 910> 670.148 27.7754<530.75 675>
VStem: 355.879 26.9805<310.437 540.161> 598.088 27.5732<48.2529 385.861>
LayerCount: 4
Fore
SplineSet
910 537.77734375 m 2
 910.5546875 510.27734375 l 2
 906.802734375 510.359375 900.712890625 510.42578125 896.9609375 510.42578125 c 0
 862.892578125 510.42578125 808.12890625 505.008789062 774.720703125 498.333007812 c 0
 738.0703125 490.865234375 688.29296875 461.994140625 663.609375 433.888671875 c 0
 644.043945312 407.345703125 627.12109375 359.061523438 625.83203125 326.111328125 c 0
 625.73828125 322.3515625 625.661132812 316.247070312 625.661132812 312.486328125 c 0
 625.661132812 289.119140625 628.599609375 251.41796875 632.220703125 228.333007812 c 0
 641.943359375 149.72265625 651.943359375 68.611328125 582.77734375 3.3330078125 c 0
 556.915039062 -19.5966796875 508.1328125 -41.99609375 473.887695312 -46.6669921875 c 0
 455.434570312 -49.5859375 425.296875 -51.955078125 406.61328125 -51.955078125 c 0
 405.78515625 -51.955078125 404.438476562 -51.9501953125 403.609375 -51.9443359375 c 0
 384.165039062 -51.9443359375 365.27734375 -49.72265625 348.0546875 -49.72265625 c 2
 350 -21.9443359375 l 2
 363.106445312 -23.13671875 384.42578125 -24.1044921875 397.587890625 -24.1044921875 c 0
 417.513671875 -24.1044921875 449.705078125 -21.892578125 469.443359375 -19.1669921875 c 0
 499.0859375 -15.2529296875 541.395507812 3.912109375 563.887695312 23.611328125 c 0
 622.77734375 79.1669921875 613.887695312 150 604.720703125 225 c 0
 601.059570312 248.6484375 598.087890625 287.262695312 598.087890625 311.193359375 c 0
 598.087890625 315.771484375 598.197265625 323.201171875 598.33203125 327.77734375 c 0
 599.68359375 365.528320312 619.220703125 420.657226562 641.943359375 450.833007812 c 0
 669.828125 483.075195312 726.32421875 516.301757812 768.0546875 525 c 0
 803.16796875 532.129882812 860.74609375 537.916992188 896.576171875 537.916992188 c 0
 900.28125 537.916992188 906.294921875 537.854492188 910 537.77734375 c 2
389.443359375 381.111328125 m 0
 399.443359375 300 409.720703125 216.666992188 339.165039062 151.111328125 c 0
 312.767578125 127.723632812 262.990234375 104.826171875 228.0546875 100 c 0
 208.895507812 96.9287109375 177.598632812 94.4365234375 158.1953125 94.4365234375 c 0
 157.465820312 94.4365234375 156.283203125 94.4404296875 155.5546875 94.4443359375 c 0
 136.943359375 94.4443359375 117.77734375 96.6669921875 100 96.6669921875 c 2
 101.943359375 124.444335938 l 2
 115.418945312 123.217773438 137.337890625 122.22265625 150.87109375 122.22265625 c 0
 171.193359375 122.22265625 204.03125 124.461914062 224.165039062 127.22265625 c 0
 254.50390625 131.278320312 297.810546875 150.940429688 320.83203125 171.111328125 c 0
 381.387695312 228.055664062 372.220703125 300.555664062 362.77734375 377.5 c 0
 358.96875 401.907226562 355.87890625 441.763671875 355.87890625 466.465820312 c 0
 355.87890625 470.96875 355.982421875 478.276367188 356.109375 482.77734375 c 0
 357.46484375 521.481445312 377.5 577.979492188 400.83203125 608.888671875 c 0
 429.306640625 641.884765625 487.048828125 675.858398438 529.720703125 684.72265625 c 0
 565.62109375 692.009765625 624.489257812 697.923828125 661.122070312 697.923828125 c 0
 664.953125 697.923828125 671.168945312 697.858398438 675 697.77734375 c 2
 675 670 l 2
 671.19921875 670.08203125 665.02734375 670.1484375 661.2265625 670.1484375 c 0
 626.356445312 670.1484375 570.3046875 664.606445312 536.109375 657.77734375 c 0
 498.595703125 650.112304688 447.69921875 620.494140625 422.5 591.666992188 c 0
 402.129882812 564.536132812 384.458984375 515.0078125 383.0546875 481.111328125 c 0
 382.946289062 477.048828125 382.859375 470.452148438 382.859375 466.388671875 c 0
 382.859375 442.711914062 385.80859375 404.5078125 389.443359375 381.111328125 c 0
EndSplineSet
Validated: 33
EndChar

StartChar: NameMe.4692
Encoding: 4692 58124 552
Width: 1021
VWidth: 0
Flags: W
HStem: 164.751 27.8877<188.125 300.176> 220.277 28.9062<470.331 573.649> 436.527 27.6396<189.686 301.607>
VStem: 100 17.9111<269.925 358.764> 370.396 28.8887<317.223 368.874>
LayerCount: 4
Fore
SplineSet
364.840820312 312.22265625 m 1
 370.118164062 308.055664062 l 1026
858.452148438 390.555664062 m 0
 877.921875 375.665039062 906.294921875 348.163085938 921.78515625 329.166992188 c 2
 900.673828125 311.111328125 l 2
 886.545898438 328.247070312 860.786132812 353.135742188 843.173828125 366.666992188 c 0
 827.936523438 378.778320312 799.811523438 389.729492188 780.396484375 391.111328125 c 0
 728.452148438 393.611328125 699.840820312 354.72265625 669.28515625 314.444335938 c 0
 657.774414062 298.314453125 636.8671875 274.047851562 622.618164062 260.27734375 c 0
 603.201171875 241.7734375 565.868164062 223.853515625 539.28515625 220.27734375 c 2
 525.673828125 220.27734375 l 2
 500.103515625 221.2734375 462.147460938 233.717773438 440.952148438 248.055664062 c 0
 427.716796875 256.748046875 407.681640625 272.676757812 396.229492188 283.611328125 c 1
 382.408203125 218 316.7734375 164.750976562 249.72265625 164.750976562 c 0
 167.076171875 164.750976562 100 231.826171875 100 314.473632812 c 0
 100 395.513671875 165.759765625 462.576171875 246.78515625 464.166992188 c 0
 247.12890625 464.169921875 247.686523438 464.171875 248.03125 464.171875 c 0
 328.14453125 464.171875 395.907226562 399.209960938 399.28515625 319.166992188 c 0
 413.241210938 304.4453125 438.129882812 283.165039062 454.840820312 271.666992188 c 0
 472.892578125 259.255859375 505.323242188 249.18359375 527.23046875 249.18359375 c 0
 529.486328125 249.18359375 533.14453125 249.299804688 535.396484375 249.444335938 c 0
 556.749023438 252.743164062 586.740234375 267.551757812 602.340820312 282.5 c 0
 615.479492188 295.301757812 634.768554688 317.826171875 645.396484375 332.77734375 c 0
 678.729492188 376.944335938 713.729492188 420.555664062 780.118164062 420.555664062 c 0
 804.310546875 418.991210938 839.403320312 405.55078125 858.452148438 390.555664062 c 0
245.673828125 192.77734375 m 0
 245.9765625 192.775390625 246.467773438 192.772460938 246.770507812 192.772460938 c 0
 310.541992188 192.772460938 365.677734375 244.419921875 369.840820312 308.055664062 c 2
 365.396484375 312.5 l 1
 370.396484375 317.22265625 l 2
 368.032226562 383.005859375 312.690429688 436.39453125 246.865234375 436.39453125 c 0
 246.536132812 436.39453125 246.002929688 436.391601562 245.673828125 436.388671875 c 0
 244.069335938 436.465820312 241.461914062 436.52734375 239.85546875 436.52734375 c 0
 172.541992188 436.52734375 117.911132812 381.896484375 117.911132812 314.583007812 c 0
 117.911132812 247.26953125 172.541992188 192.638671875 239.85546875 192.638671875 c 0
 241.461914062 192.638671875 244.069335938 192.701171875 245.673828125 192.77734375 c 0
EndSplineSet
Validated: 35
EndChar

StartChar: NameMe.4693
Encoding: 4693 58125 553
Width: 1033
VWidth: 0
Flags: W
HStem: 134.485 28.5703<460.338 575.478> 436.931 28.126<459.972 578.468>
VStem: 100 27.7793<167.5 433.056> 350 31.668<291.111 312.223> 655.557 27.7783<286.389 310.277> 905.557 28.334<165.556 433.611>
LayerCount: 4
Fore
SplineSet
683.334960938 286.666992188 m 1026,0,-1
933.334960938 481.111328125 m 1,1,-1
 933.890625 118.888671875 l 1,2,-1
 677.779296875 257.77734375 l 2,3,-1
 659.435546875 189.719726562 587.341796875 134.485351562 516.85546875 134.485351562 c 0,6,-1
 444.721679688 134.485351562 372.2109375 191.337890625 355 261.388671875 c 2,9,-1
 100 120.555664062 l 1,10,-1
 100 479.444335938 l 1,11,-1
 355.279296875 340 l 2,12,-1
 373.077148438 409.03125 445.37890625 465.056640625 516.66796875 465.056640625 c 0,15,-1
 587.95703125 465.056640625 660.2578125 409.03125 678.056640625 340 c 2,18,-1
 933.334960938 481.111328125 l 1,1,-1
516.66796875 163.055664062 m 0,19,-1
 516.671875 163.055664062 516.677734375 163.055664062 516.681640625 163.055664062 c 0,22,-1
 592.28125 163.055664062 654.498046875 224.40625 655.556640625 300 c 0,25,-1
 655.548828125 375.5859375 594.198242188 436.930664062 518.612304688 436.930664062 c 0,28,-1
 443.01953125 436.930664062 381.66796875 375.579101562 381.66796875 299.986328125 c 0,31,-1
 381.66796875 225.458984375 442.1484375 164.11328125 516.66796875 163.055664062 c 0,19,-1
127.779296875 167.5 m 1,34,-1
 350 291.111328125 l 2,35,-1
 350 294.166992188 350 296.388671875 350 300.27734375 c 0,38,-1
 350 304.166992188 350 308.333007812 350 312.22265625 c 2,41,-1
 127.779296875 433.055664062 l 1,42,-1
 127.779296875 167.5 l 1,34,-1
905.556640625 165.555664062 m 1,43,-1
 905.556640625 433.611328125 l 1,44,-1
 683.334960938 310.27734375 l 2,45,-1
 683.334960938 306.944335938 683.334960938 304.166992188 683.334960938 299.72265625 c 0,48,-1
 683.334960938 295.27734375 683.334960938 290.833007812 683.334960938 286.388671875 c 2,51,-1
 905.556640625 165.555664062 l 1,43,-1
EndSplineSet
Validated: 1
EndChar

StartChar: NameMe.4694
Encoding: 4694 58126 554
Width: 1042
VWidth: 0
Flags: W
HStem: -77.5 27.7773<415.517 628.386> 466.978 27.751<248.916 398.072 650.917 798.025>
VStem: 100 28.0693<202.78 347.786> 109.539 27.7773<-114.723 -77.2698> 914.261 28.0557<-114.723 -87.0368 206.689 353.325>
LayerCount: 4
Fore
SplineSet
937.595703125 -114.72265625 m 2xe8
 909.81640625 -114.72265625 l 2
 909.81640625 -100.833007812 882.0390625 -40.27734375 832.873046875 36.9443359375 c 1
 764.232421875 -26.443359375 632.693359375 -77.888671875 539.260742188 -77.888671875 c 0
 534.198242188 -77.888671875 525.986328125 -77.71484375 520.927734375 -77.5 c 0
 517.463867188 -77.5966796875 511.83984375 -77.67578125 508.374023438 -77.67578125 c 0
 412.760742188 -77.67578125 277.763671875 -25.455078125 207.0390625 38.888671875 c 1
 181.815429688 -0.79296875 150.580078125 -69.611328125 137.31640625 -114.72265625 c 2
 109.5390625 -114.72265625 l 2xd8
 109.5390625 -93.0556640625 137.31640625 -23.888671875 185.927734375 60.5556640625 c 0
 139.623046875 111.131835938 101.169921875 207.825195312 100.095703125 276.388671875 c 0
 100.04296875 278.171875 100 281.06640625 100 282.849609375 c 0
 100 329.009765625 124.931640625 394.435546875 155.650390625 428.888671875 c 0
 192.169921875 465.232421875 263.625 494.728515625 315.147460938 494.728515625 c 0
 318.279296875 494.728515625 323.357421875 494.6015625 326.483398438 494.444335938 c 0
 384.310546875 491.677734375 469.4296875 462.060546875 516.483398438 428.333007812 c 0
 568.541015625 462.083007812 661.127929688 490.706054688 723.150390625 492.22265625 c 0
 856.205078125 492.22265625 942.31640625 408.888671875 942.31640625 279.72265625 c 0
 940.376953125 209.233398438 900.306640625 109.677734375 852.873046875 57.5 c 0
 905.095703125 -25.27734375 937.595703125 -93.611328125 937.595703125 -114.72265625 c 2xe8
221.483398438 63.611328125 m 0
 288.25390625 0.9462890625 416.76171875 -49.9111328125 508.33203125 -49.9111328125 c 0
 511.810546875 -49.9111328125 517.452148438 -49.8271484375 520.927734375 -49.72265625 c 0
 525.5546875 -49.9140625 533.068359375 -50.0693359375 537.69921875 -50.0693359375 c 0
 626.380859375 -50.0693359375 750.776367188 -0.7587890625 815.373046875 60 c 1
 742.31640625 172.77734375 633.150390625 311.944335938 514.81640625 393.333007812 c 1
 392.0390625 314.444335938 288.705078125 176.111328125 221.483398438 63.611328125 c 0
540.927734375 411.111328125 m 1
 657.0390625 327.77734375 763.150390625 194.72265625 837.0390625 83.0556640625 c 1
 877.948242188 129.641601562 912.544921875 217.748046875 914.260742188 279.72265625 c 0
 914.260742188 368.888671875 863.983398438 464.444335938 722.873046875 464.444335938 c 0
 668.681640625 463.286132812 587.169921875 439.392578125 540.927734375 411.111328125 c 1
326.483398438 466.666992188 m 0
 323.416015625 466.837890625 318.431640625 466.977539062 315.358398438 466.977539062 c 0
 270.955078125 466.977539062 208.987304688 441.94921875 177.0390625 411.111328125 c 0
 150.0078125 380.932617188 128.069335938 323.559570312 128.069335938 283.045898438 c 0xe8
 128.069335938 281.514648438 128.10546875 279.030273438 128.150390625 277.5 c 0
 129.088867188 217.536132812 161.818359375 132.16796875 201.205078125 86.9443359375 c 1
 268.983398438 198.055664062 370.373046875 330.555664062 491.483398438 413.055664062 c 1
 450.126953125 440.725585938 376.206054688 464.743164062 326.483398438 466.666992188 c 0
EndSplineSet
Validated: 1
EndChar

StartChar: NameMe.4695
Encoding: 4695 58127 555
Width: 572
VWidth: 0
Flags: W
HStem: -116.667 27.7783<127.778 444.444> 688.889 27.7783<127.778 444.444>
VStem: 100 27.7783<-88.8887 688.889> 444.444 27.7783<-88.8887 688.889>
LayerCount: 4
Fore
SplineSet
472.22265625 -116.666992188 m 1
 100 -116.666992188 l 1
 100 716.666992188 l 1
 472.22265625 716.666992188 l 1
 472.22265625 -116.666992188 l 1
127.778320312 -88.888671875 m 1
 444.444335938 -88.888671875 l 1
 444.444335938 688.888671875 l 1
 127.778320312 688.888671875 l 1
 127.778320312 -88.888671875 l 1
EndSplineSet
Validated: 1
EndChar

StartChar: NameMe.4696
Encoding: 4696 58128 556
Width: 864
VWidth: 0
Flags: W
VStem: 737.945 26.7793<523.06 616.183>
LayerCount: 4
Fore
SplineSet
124.720703125 -116.666992188 m 1
 100 -103.888671875 l 1
 520.27734375 716.666992188 l 1
 528.887695312 716.666992188 l 2
 593.609375 715.27734375 745.83203125 699.72265625 764.165039062 588.333007812 c 0
 764.473632812 584.713867188 764.724609375 578.828125 764.724609375 575.1953125 c 0
 764.724609375 540.217773438 744.8125 491.596679688 720.27734375 466.666992188 c 0
 711.109375 455.833007812 701.387695312 445.27734375 692.5 435 c 0
 677.266601562 420.078125 655.489257812 393.446289062 643.887695312 375.555664062 c 0
 586.109375 278.611328125 650.5546875 188.611328125 714.720703125 130 c 2
 696.109375 109.444335938 l 1
 593.0546875 203.333007812 566.943359375 300.27734375 620 389.72265625 c 0
 632.446289062 409.032226562 655.841796875 437.778320312 672.220703125 453.888671875 c 0
 681.665039062 463.888671875 691.109375 473.888671875 700 484.444335938 c 0
 720.9453125 505.854492188 737.9453125 547.540039062 737.9453125 577.4921875 c 0
 737.9453125 579.334960938 737.869140625 582.325195312 737.77734375 584.166992188 c 0
 722.5 669.444335938 600 685.27734375 536.943359375 688.888671875 c 2
 124.720703125 -116.666992188 l 1
EndSplineSet
Validated: 33
EndChar

StartChar: NameMe.4697
Encoding: 4697 58129 557
Width: 1033
VWidth: 0
Flags: W
HStem: -116.667 27.7783<127.778 502.778 530.556 905.556> 286.111 27.7773<127.778 502.778 530.556 905.556> 688.889 27.7783<127.778 502.778 530.556 905.556>
VStem: 100 27.7783<-88.8887 286.111 313.889 688.889> 502.778 27.7773<-88.8887 286.111 313.889 688.889> 905.556 27.7783<-88.8887 286.111 313.889 688.889>
CounterMasks: 1 fc
LayerCount: 4
Fore
SplineSet
100 716.666992188 m 1
 933.333984375 716.666992188 l 1
 933.333984375 -116.666992188 l 1
 100 -116.666992188 l 1
 100 716.666992188 l 1
905.555664062 313.888671875 m 1
 905.555664062 688.888671875 l 1
 530.555664062 688.888671875 l 1
 530.555664062 313.888671875 l 1
 905.555664062 313.888671875 l 1
502.778320312 688.888671875 m 1
 127.778320312 688.888671875 l 1
 127.778320312 313.888671875 l 1
 502.778320312 313.888671875 l 1
 502.778320312 688.888671875 l 1
127.778320312 286.111328125 m 1
 127.778320312 -88.888671875 l 1
 502.778320312 -88.888671875 l 1
 502.778320312 286.111328125 l 1
 127.778320312 286.111328125 l 1
530.555664062 -88.888671875 m 1
 905.555664062 -88.888671875 l 1
 905.555664062 286.111328125 l 1
 530.555664062 286.111328125 l 1
 530.555664062 -88.888671875 l 1
EndSplineSet
Validated: 1
EndChar

